<svg xmlns="http://www.w3.org/2000/svg" width="868" height="986"
     style="shape-rendering:geometricPrecision;text-rendering:geometricPrecision;image-rendering:optimizeQuality;fill-rule:evenodd;clip-rule:evenodd">
    <path style="opacity:.913" fill="#6716e1"
          d="M234.5 119.5v3c1.679.215 2.679-.452 3-2 9.993 3.131 20.327 5.131 31 6v3h3v-3c5.307 2.409 10.973 3.742 17 4 1 2.667 2 2.667 3 0 9.993 3.131 20.327 5.131 31 6v3h3v-3c5.307 2.409 10.973 3.742 17 4 1 2.667 2 2.667 3 0 9.993 3.131 20.327 5.131 31 6v3h3v-3c12.914 4.156 26.247 6.823 40 8v3h4v-3c1.956 1.648 4.289 2.315 7 2v3h3v-3c12.914 4.156 26.247 6.823 40 8v3h4v-3c1.956 1.648 4.289 2.315 7 2v3h3v-3c12.913 4.183 26.246 6.849 40 8v3h4v-3c1.956 1.648 4.289 2.315 7 2v3h3v-3c12.913 4.183 26.246 6.849 40 8v3h4v-3c1.956 1.648 4.289 2.315 7 2v3h3v-3c8.636 3.13 17.636 5.13 27 6v5h-3c.204 3.018.537 6.018 1 9v3h-3c-.268 1.599.066 2.932 1 4v3h-4v8a41.333 41.333 0 0 1-2 10h-4a63.227 63.227 0 0 1-4 15c.14 1.53.807 2.53 2 3-1.365 2.091-2.032 4.424-2 7-2.551.168-3.218 1.168-2 3v3h-3c-.237 1.291.096 2.291 1 3v3h-3c-.237 1.291.096 2.291 1 3v3h-3c-.237 1.291.096 2.291 1 3v3h-3c-.237 1.291.096 2.291 1 3v3h-3c-.237 1.291.096 2.291 1 3-.058 3.164-.724 6.164-2 9h-3c-.268 1.599.066 2.932 1 4v2h-3c-.268 1.599.066 2.932 1 4v2h-3c-.268 1.599.066 2.932 1 4l-6 22c-2.551.168-3.218 1.168-2 3v3h-3c-.268 1.599.066 2.932 1 4a23.142 23.142 0 0 0-2 8h-3c-.237 1.291.096 2.291 1 3v3h-3c-.237 1.291.096 2.291 1 3v3h-3c-.237 1.291.096 2.291 1 3v3h-3c-.237 1.291.096 2.291 1 3v3h-3c-.237 1.291.096 2.291 1 3v3h-3c-.237 1.291.096 2.291 1 3v3h-3c-.237 1.291.096 2.291 1 3-.058 3.164-.724 6.164-2 9h-3c-.268 1.599.066 2.932 1 4v2h-3c-.268 1.599.066 2.932 1 4l-8 28c-2.551.168-3.218 1.168-2 3v3h-3c-.268 1.599.066 2.932 1 4a23.142 23.142 0 0 0-2 8h-3c-.237 1.291.096 2.291 1 3v3h-3c-.237 1.291.096 2.291 1 3v3h-3c-1.301 1.384-1.301 2.884 0 4.5-2.535.928-3.535 2.762-3 5.5-1.291-.237-2.291.096-3 1-1.333 1-1.333 2 0 3 .709.904 1.709 1.237 3 1a57.403 57.403 0 0 1 2 9c-1.003 1.987-1.003 4.154 0 6.5 1.115 3.941 2.782 7.441 5 10.5v3h3v2c-.934 1.068-1.268 2.401-1 4h3v2c-.624.417-.957 1.084-1 2 .429 2.529 1.096 4.862 2 7 1.756 1.052 2.423 2.719 2 5h3v3c-1.218 1.832-.551 2.832 2 3v3c-.904.709-1.237 1.709-1 3h3v2c-.934 1.068-1.268 2.401-1 4h3v2c-.597.235-.93.735-1 1.5a46.667 46.667 0 0 1 4 12.5h3v3c-1.218 1.832-.551 2.832 2 3 .193 2.808.86 5.475 2 8-.934 1.068-1.268 2.401-1 4h3v2c-.597.235-.93.735-1 1.5a46.667 46.667 0 0 1 4 12.5h3v3c-1.218 1.832-.551 2.832 2 3 .193 2.808.86 5.475 2 8-.934 1.068-1.268 2.401-1 4h3v2c-.934 1.068-1.268 2.401-1 4h3l8 24c-.934 1.068-1.268 2.401-1 4h3v2c-.934 1.068-1.268 2.401-1 4h3a313.9 313.9 0 0 1 6 19c-1.218 1.832-.551 2.832 2 3v3c-.904.709-1.237 1.709-1 3h3v2c-.934 1.068-1.268 2.401-1 4h3a23.142 23.142 0 0 1 2 8c-1.003 1.987-1.003 4.154 0 6.5 1.115 3.941 2.782 7.441 5 10.5v3h3v2c-.934 1.068-1.268 2.401-1 4h3a23.142 23.142 0 0 1 2 8c-1.003 1.987-1.003 4.154 0 6.5 1.115 3.941 2.782 7.441 5 10.5v3h3v2c-.934 1.068-1.268 2.401-1 4h3v2c-.597.235-.93.735-1 1.5a46.667 46.667 0 0 1 4 12.5h3v3c-1.218 1.832-.551 2.832 2 3 .193 2.808.86 5.475 2 8-.934 1.068-1.268 2.401-1 4h4v6c-1.086.12-1.753.787-2 2 .247 1.213.914 1.88 2 2v3c-2.386-.241-4.386.425-6 2v-3h-8v3c-3.033-.368-5.7.298-8 2v-3c-2.804-1.138-5.804-1.305-9-.5-.837 1.011-1.17 2.178-1 3.5-3.033-.368-5.7.298-8 2v-3c-2.128-1.129-4.461-1.296-7-.5-.837 1.011-1.17 2.178-1 3.5-3.033-.368-5.7.298-8 2v-3c-2.128-1.129-4.461-1.296-7-.5-.837 1.011-1.17 2.178-1 3.5-3.033-.368-5.7.298-8 2v-3c-2.128-1.129-4.461-1.296-7-.5-.837 1.011-1.17 2.178-1 3.5-3.033-.368-5.7.298-8 2v-3h-8v3c-3.033-.368-5.7.298-8 2v-3a18.453 18.453 0 0 0-6 .5c-.752.671-1.086 1.504-1 2.5-2.711-.315-5.044.352-7 2v-3c-3.125-.979-6.458-1.313-10-1v4a342.475 342.475 0 0 0-29 3c-3.934.511-7.601 1.511-11 3v-3c-2.893-.469-4.893.531-6 3-3.679-.44-7.012.227-10 2v-3h-10v3c-3.679-.44-7.012.227-10 2v-3c-2.785-.584-4.452.416-5 3-2.711-.315-5.044.352-7 2v-3c-2.804-1.138-5.804-1.305-9-.5-.837 1.011-1.17 2.178-1 3.5-3.033-.368-5.7.298-8 2v-3c-2.128-1.129-4.461-1.296-7-.5-.837 1.011-1.17 2.178-1 3.5-3.033-.368-5.7.298-8 2v-3c-2.128-1.129-4.461-1.296-7-.5-.837 1.011-1.17 2.178-1 3.5-3.033-.368-5.7.298-8 2v-3c-2.128-1.129-4.461-1.296-7-.5-1.473.71-2.14 1.876-2 3.5-2.711-.315-5.044.352-7 2v-3h-8v3c-7.765-.347-15.098.986-22 4v-3c-3.125-.979-6.458-1.313-10-1v4c-8.378-.149-16.378 1.185-24 4v-3c-2.893-.469-4.893.531-6 3-3.679-.44-7.012.227-10 2v-3h-10v3c-2.386-.241-4.386.425-6 2v-3h-8v4h-8v-2c-2.787-.977-5.787-1.31-9-1v3h-5a32.763 32.763 0 0 1-4-10h-3a115.373 115.373 0 0 0 6-16h3c.237-1.291-.096-2.291-1-3v-3h3c.268-1.599-.066-2.932-1-4l2-6h3c.268-1.599-.066-2.932-1-4l4-12h4a190.863 190.863 0 0 1 3-12c-.043-.916-.376-1.583-1-2l4-12h3c.268-1.599-.066-2.932-1-4l4-12h3c.268-1.599-.066-2.932-1-4l2-6h3c.268-1.599-.066-2.932-1-4l4-12h3c.237-1.291-.096-2.291-1-3v-3h3c.268-1.599-.066-2.932-1-4l2-6h3c.268-1.599-.066-2.932-1-4l4-12h4a190.863 190.863 0 0 1 3-12c-.043-.916-.376-1.583-1-2l4-12h3c.237-1.291-.096-2.291-1-3v-3h3c.268-1.599-.066-2.932-1-4l2-6h3c.268-1.599-.066-2.932-1-4l2-6h3c.268-1.599-.066-2.932-1-4l4-12h3c.237-1.291-.096-2.291-1-3v-3h3c.268-1.599-.066-2.932-1-4l2-6h3c.268-1.599-.066-2.932-1-4l4-12h4a190.863 190.863 0 0 1 3-12c-.043-.916-.376-1.583-1-2l4-12h3c.237-1.291-.096-2.291-1-3v-3h3c.268-1.599-.066-2.932-1-4l2-6h3c.268-1.599-.066-2.932-1-4l8-22h3c.237-1.291-.096-2.291-1-3v-3h3a94.17 94.17 0 0 0 4-11v-5h-3v-6c.597-.235.93-.735 1-1.5-1.611-2.21-2.278-4.71-2-7.5h-3a146.561 146.561 0 0 0-4-13c.934-1.068 1.268-2.401 1-4h-3l-2-6c.934-1.068 1.268-2.401 1-4h-3v-3c.904-.709 1.237-1.709 1-3h-3v-3c.904-.709 1.237-1.709 1-3h-3v-2c.597-.235.93-.735 1-1.5-1.611-2.21-2.278-4.71-2-7.5h-3a146.561 146.561 0 0 0-4-13c.934-1.068 1.268-2.401 1-4h-3l-4-12c.934-1.068 1.268-2.401 1-4h-3v-3c.904-.709 1.237-1.709 1-3h-3v-2c.597-.235.93-.735 1-1.5-1.611-2.21-2.278-4.71-2-7.5h-3a146.561 146.561 0 0 0-4-13c.934-1.068 1.268-2.401 1-4h-3l-4-12c.934-1.068 1.268-2.401 1-4h-3v-3c.904-.709 1.237-1.709 1-3h-3v-3c-.251-3.611-1.251-6.944-3-10 0-2-1-3-3-3a23.142 23.142 0 0 0-2-8c.934-1.068 1.268-2.401 1-4h-3l-4-12c.934-1.068 1.268-2.401 1-4h-3v-3c.904-.709 1.237-1.709 1-3h-3v-2c.934-1.068 1.268-2.401 1-4h-3l-2-6c.934-1.068 1.268-2.401 1-4h-3v-3c.904-.709 1.237-1.709 1-3h-3v-3c.904-.709 1.237-1.709 1-3h-3v-2c.934-1.068 1.268-2.401 1-4h-3l-4-12c.934-1.068 1.268-2.401 1-4h-3v-2c.934-1.068 1.268-2.401 1-4h-3l-2-6c.934-1.068 1.268-2.401 1-4h-3v-3c.904-.709 1.237-1.709 1-3h-3v-3c.904-.709 1.237-1.709 1-3h-3v-2c.934-1.068 1.268-2.401 1-4h-3l-4-12c.934-1.068 1.268-2.401 1-4h-3v-2c.934-1.068 1.268-2.401 1-4h-3l-2-6c.934-1.068 1.268-2.401 1-4h-3v-3c.904-.709 1.237-1.709 1-3h-3v-3c.904-.709 1.237-1.709 1-3h-3v-2c.597-.235.93-.735 1-1.5-1.611-2.21-2.278-4.71-2-7.5h-3a146.561 146.561 0 0 0-4-13c.934-1.068 1.268-2.401 1-4h-3l-2-6c.934-1.068 1.268-2.401 1-4h-3v-3c.904-.709 1.237-1.709 1-3h-3v-3c-.321-1.548-1.321-2.215-3-2v-4c1.574-1.602 2.241-3.602 2-6 3-.333 4.667-2 5-5h14zm-6 13c6.027.258 11.693 1.591 17 4h3c2.711-.315 5.044.352 7 2h5c13.402 1.28 26.402 3.946 39 8h3c2.711-.315 5.044.352 7 2h5c13.402 1.28 26.402 3.946 39 8h3c2.711-.315 5.044.352 7 2h5c13.403 1.285 26.403 3.952 39 8h3a443.452 443.452 0 0 1 32 5c6.66.924 12.993 2.591 19 5h3c10.673.869 21.007 2.869 31 6h3c6.027.258 11.693 1.591 17 4h3c10.673.869 21.007 2.869 31 6h3c6.027.258 11.693 1.591 17 4h3c10.07.613 19.736 2.613 29 6h7v6c-1.548.321-2.215 1.321-2 3v3c-1.548.321-2.215 1.321-2 3v3c-1.548.321-2.215 1.321-2 3a23.142 23.142 0 0 1-2 8v1c-1.333 0-2 .667-2 2v4c-1.548.321-2.215 1.321-2 3v1a377.373 377.373 0 0 0-6 21c-1.306.967-1.973 2.301-2 4v2c-1.306.967-1.973 2.301-2 4v2c-1.306.967-1.973 2.301-2 4-1.276 2.836-1.942 5.836-2 9-1.548.321-2.215 1.321-2 3v3c-1.548.321-2.215 1.321-2 3v3c-1.548.321-2.215 1.321-2 3v3c-1.548.321-2.215 1.321-2 3v3c-1.548.321-2.215 1.321-2 3v3c-1.548.321-2.215 1.321-2 3v3c-1.548.321-2.215 1.321-2 3a23.142 23.142 0 0 1-2 8v1c-1.333 0-2 .667-2 2v4c-1.548.321-2.215 1.321-2 3v1a377.373 377.373 0 0 0-6 21c-1.306.967-1.973 2.301-2 4v2c-1.306.967-1.973 2.301-2 4v2c-1.306.967-1.973 2.301-2 4-1.276 2.836-1.942 5.836-2 9-1.548.321-2.215 1.321-2 3v3c-1.548.321-2.215 1.321-2 3v3c-1.548.321-2.215 1.321-2 3v3c-1.548.321-2.215 1.321-2 3v3c-1.548.321-2.215 1.321-2 3v3c-1.548.321-2.215 1.321-2 3v3c-1.548.321-2.215 1.321-2 3a23.142 23.142 0 0 1-2 8v1c-1.333 0-2 .667-2 2v4c-1.548.321-2.215 1.321-2 3v1a57.403 57.403 0 0 0-2 9c-1.306.967-1.973 2.301-2 4v1c-1.333 0-2 .667-2 2v5c-1.306.967-1.973 2.301-2 4v1c-1.278-.282-2.278-.949-3-2h-6c-1.279 1.468-2.946 2.135-5 2h-3c-5.307 2.409-10.973 3.742-17 4h-3c-1.279 1.468-2.946 2.135-5 2h-3c-10.637 3.742-21.637 6.409-33 8h-3c-1.956 1.648-4.289 2.315-7 2h-3c-4.239 2.52-8.905 3.854-14 4h-6c-1.279 1.468-2.946 2.135-5 2h-3c-1.279 1.468-2.946 2.135-5 2h-3c-5.174 2.972-10.841 4.305-17 4h-3c-1.279 1.468-2.946 2.135-5 2h-3a31.147 31.147 0 0 0-2 2c-.607-.124-.94-.457-1-1 .215-1.679-.452-2.679-2-3v-3c.215-1.679-.452-2.679-2-3v-4c0-1.333-.667-2-2-2v-1c-.027-1.699-.694-3.033-2-4v-2c.215-1.679-.452-2.679-2-3a190.798 190.798 0 0 1-4-15v-1c0-1.333-.667-2-2-2 .135-2.054-.532-3.721-2-5v-2c.215-1.679-.452-2.679-2-3v-3c.215-1.679-.452-2.679-2-3v-4c0-1.333-.667-2-2-2v-1c-.027-1.699-.694-3.033-2-4v-2c-.027-1.699-.694-3.033-2-4v-2c-.027-1.699-.694-3.033-2-4l-4-12c-.027-1.699-.694-3.033-2-4v-2c.215-1.679-.452-2.679-2-3v-3c.215-1.679-.452-2.679-2-3v-4c0-1.333-.667-2-2-2v-1c-.027-1.699-.694-3.033-2-4v-2c-.027-1.699-.694-3.033-2-4v-2c-.027-1.699-.694-3.033-2-4l-4-12c-.027-1.699-.694-3.033-2-4v-2c.215-1.679-.452-2.679-2-3v-3c.215-1.679-.452-2.679-2-3v-4c0-1.333-.667-2-2-2v-1c-.027-1.699-.694-3.033-2-4v-2c-.027-1.699-.694-3.033-2-4v-2a29.753 29.753 0 0 1-2-7c0-1.333-.667-2-2-2v-1l-4-12c-.027-1.699-.694-3.033-2-4a23.142 23.142 0 0 1-2-8c.215-1.679-.452-2.679-2-3v-4c0-1.333-.667-2-2-2 .135-2.054-.532-3.721-2-5v-2a29.753 29.753 0 0 1-2-7c0-1.333-.667-2-2-2v-1l-4-12c-.027-1.699-.694-3.033-2-4a23.142 23.142 0 0 1-2-8c.215-1.679-.452-2.679-2-3v-4c0-1.333-.667-2-2-2 .135-2.054-.532-3.721-2-5v-2a29.753 29.753 0 0 1-2-7c0-1.333-.667-2-2-2v-1l-4-12c.215-1.679-.452-2.679-2-3a190.798 190.798 0 0 1-4-15v-1c0-1.333-.667-2-2-2 .135-2.054-.532-3.721-2-5v-2a29.753 29.753 0 0 1-2-7c0-1.333-.667-2-2-2v-1l-4-12c.215-1.679-.452-2.679-2-3a190.798 190.798 0 0 1-4-15v-1c0-1.333-.667-2-2-2v-4zm284 356 4 2a57.403 57.403 0 0 1 2 9c-.215 1.679.452 2.679 2 3v3c-.215 1.679.452 2.679 2 3v3c-.215 1.679.452 2.679 2 3-.343 1.983.324 3.317 2 4v3c.027 1.699.694 3.033 2 4v2c-.215 1.679.452 2.679 2 3v3c-.215 1.679.452 2.679 2 3v3c-.215 1.679.452 2.679 2 3v3c-.215 1.679.452 2.679 2 3-.343 1.983.324 3.317 2 4v3c.027 1.699.694 3.033 2 4v2c-.215 1.679.452 2.679 2 3v3c-.215 1.679.452 2.679 2 3v3c.027 1.699.694 3.033 2 4l4 12c.027 1.699.694 3.033 2 4v2c-.215 1.679.452 2.679 2 3v3c-.215 1.679.452 2.679 2 3a313.9 313.9 0 0 0 6 19c.027 1.699.694 3.033 2 4v2c-.215 1.679.452 2.679 2 3v3c-.215 1.679.452 2.679 2 3a313.9 313.9 0 0 0 6 19c.027 1.699.694 3.033 2 4v2c.027 1.699.694 3.033 2 4a84.097 84.097 0 0 1 4 14c-.215 1.679.452 2.679 2 3v3c-.215 1.679.452 2.679 2 3-.343 1.983.324 3.317 2 4v3c.027 1.699.694 3.033 2 4a23.142 23.142 0 0 1 2 8c-.215 1.679.452 2.679 2 3v3c-.215 1.679.452 2.679 2 3v3c-.215 1.679.452 2.679 2 3-.343 1.983.324 3.317 2 4v3c.027 1.699.694 3.033 2 4v2c-.215 1.679.452 2.679 2 3v3c-.215 1.679.452 2.679 2 3v3l2 6c-.215 1.679.452 2.679 2 3v1c.027 1.699.694 3.033 2 4v2c.027 1.699.694 3.033 2 4v2c-.215 1.679.452 2.679 2 3v3c-.215 1.679.452 2.679 2 3v3c.027 1.699.694 3.033 2 4l4 12c.027 1.699.694 3.033 2 4-3.125.979-6.458 1.313-10 1h-5c-2.988 1.773-6.321 2.44-10 2h-10c-2.988 1.773-6.321 2.44-10 2h-6c-3.399 1.489-7.066 2.489-11 3a642.964 642.964 0 0 1-47 5h-6c-2.645 1.742-5.645 2.409-9 2h-7c-2.3 1.702-4.967 2.368-8 2h-8c-2.3 1.702-4.967 2.368-8 2h-8c-2.3 1.702-4.967 2.368-8 2h-8c-3.331 1.798-6.998 2.464-11 2h-7c-1.956 1.648-4.289 2.315-7 2h-9c-1.614 1.575-3.614 2.241-6 2h-10c-2.988 1.773-6.321 2.44-10 2h-6c-3.399 1.489-7.066 2.489-11 3a825.641 825.641 0 0 1-45 5h-8c-2.645 1.742-5.645 2.409-9 2h-7c-2.3 1.702-4.967 2.368-8 2h-8c-2.3 1.702-4.967 2.368-8 2h-8c-3.331 1.798-6.998 2.464-11 2h-7c-1.956 1.648-4.289 2.315-7 2h-4v-6c1.333 0 2-.667 2-2v-4c1.548-.321 2.215-1.321 2-3l8-22c1.306-.967 1.973-2.301 2-4v-3c1.676-.683 2.343-2.017 2-4 1.333 0 2-.667 2-2v-4c1.548-.321 2.215-1.321 2-3a146.561 146.561 0 0 0 4-13c1.676-.683 2.343-2.017 2-4 1.333 0 2-.667 2-2v-4c1.548-.321 2.215-1.321 2-3a146.561 146.561 0 0 0 4-13c1.676-.683 2.343-2.017 2-4 1.548-.321 2.215-1.321 2-3v-3c1.333 0 2-.667 2-2v-4c1.548-.321 2.215-1.321 2-3l8-22c1.306-.967 1.973-2.301 2-4v-3c1.676-.683 2.343-2.017 2-4 1.333 0 2-.667 2-2v-4c1.548-.321 2.215-1.321 2-3a146.561 146.561 0 0 0 4-13c1.676-.683 2.343-2.017 2-4 1.333 0 2-.667 2-2v-4c1.548-.321 2.215-1.321 2-3l4-12c1.306-.967 1.973-2.301 2-4v-3c1.676-.683 2.343-2.017 2-4 1.333 0 2-.667 2-2v-4c1.548-.321 2.215-1.321 2-3a146.561 146.561 0 0 0 4-13c1.548-.321 2.215-1.321 2-3l2-6c1.306-.967 1.973-2.301 2-4a146.561 146.561 0 0 0 4-13c1.548-.321 2.215-1.321 2-3a146.561 146.561 0 0 0 4-13c1.676-.683 2.343-2.017 2-4 1.333 0 2-.667 2-2v-4c1.548-.321 2.215-1.321 2-3l4-12c1.306-.967 1.973-2.301 2-4v-3c1.676-.683 2.343-2.017 2-4 1.333 0 2-.667 2-2v-4c1.548-.321 2.215-1.321 2-3a46.16 46.16 0 0 1 6-14 55.243 55.243 0 0 1 20-5h3c1.279-1.468 2.946-2.135 5-2h3c13.906-4.725 28.239-8.058 43-10h3c4.239-2.52 8.905-3.854 14-4h6c1.279-1.468 2.946-2.135 5-2h3c7.971-3.075 16.305-5.075 25-6h3c1.279-1.468 2.946-2.135 5-2h3c1.956-1.648 4.289-2.315 7-2z"/>
    <path style="opacity:.356" fill="#712dd8" d="M234.5 119.5c1.291-.237 2.291.096 3 1-.321 1.548-1.321 2.215-3 2v-3z"/>
    <path style="opacity:.71" fill="#6f2cd5" d="M215.5 124.5c.241 2.398-.426 4.398-2 6-.475-2.582.192-4.582 2-6z"/>
    <path style="opacity:1" fill="#6c30c9" d="M268.5 126.5h3v3h-3v-3z"/>
    <path style="opacity:.5" fill="#712dd8" d="M288.5 130.5h3c-1 2.667-2 2.667-3 0z"/>
    <path style="opacity:.339" fill="#6d2dce"
          d="M228.5 132.5v4c1.333 0 2 .667 2 2v1h-3a57.403 57.403 0 0 0-2-9c1.679-.215 2.679.452 3 2z"/>
    <path style="opacity:.129" fill="#7334d4" d="M213.5 134.5c1.679-.215 2.679.452 3 2-1.679.215-2.679-.452-3-2z"/>
    <path style="opacity:.357" fill="#6c30c7" d="M248.5 136.5h-3v-3h3v3z"/>
    <path style="opacity:.129" fill="#6b39b9" d="M228.5 136.5c1.333 0 2 .667 2 2-1.333 0-2-.667-2-2z"/>
    <path style="opacity:.5" fill="#6b33c0" d="M258.5 135.5v3h-3v-3h3z"/>
    <path style="opacity:.259" fill="#702ad9" d="M258.5 135.5c1.548.321 2.215 1.321 2 3h-2v-3z"/>
    <path style="opacity:1" fill="#6c30c9" d="M322.5 136.5h3v3h-3v-3z"/>
    <path style="opacity:.629" fill="#6f2fd1" d="M216.5 139.5h3c.237 1.291-.096 2.291-1 3-1.548-.321-2.215-1.321-2-3z"/>
    <path style="opacity:.5" fill="#712dd8" d="M342.5 140.5h3c-1 2.667-2 2.667-3 0z"/>
    <path style="opacity:.357" fill="#6c30c7" d="M302.5 146.5h-3v-3h3v3z"/>
    <path style="opacity:.629" fill="#6e30cb" d="M218.5 145.5h3c.268 1.599-.066 2.932-1 4-1.306-.967-1.973-2.301-2-4z"/>
    <path style="opacity:.5" fill="#6b33c0" d="M312.5 145.5v3h-3v-3h3z"/>
    <path style="opacity:.259" fill="#702ad9" d="M312.5 145.5c1.548.321 2.215 1.321 2 3h-2v-3z"/>
    <path style="opacity:1" fill="#6c30c9" d="M376.5 146.5h3v3h-3v-3z"/>
    <path style="opacity:.357" fill="#6c30c7" d="M356.5 156.5h-3v-3h3v3z"/>
    <path style="opacity:.629" fill="#6f27db" d="M222.5 155.5h3c.268 1.599-.066 2.932-1 4-1.306-.967-1.973-2.301-2-4z"/>
    <path style="opacity:.773" fill="#6f28dc" d="M234.5 154.5c1.548.321 2.215 1.321 2 3h-3c-.237-1.291.096-2.291 1-3z"/>
    <path style="opacity:.5" fill="#6b33c0" d="M366.5 155.5v3h-3v-3h3z"/>
    <path style="opacity:.839" fill="#6a2bc9" d="M419.5 154.5h1c.667 2.667 1.333 2.667 2 0h1v3h-4v-3z"/>
    <path style="opacity:.5" fill="#6b36ba" d="M420.5 154.5h2c-.667 2.667-1.333 2.667-2 0z"/>
    <path style="opacity:.259" fill="#702ad9" d="M366.5 155.5c1.548.321 2.215 1.321 2 3h-2v-3z"/>
    <path style="opacity:1" fill="#6c30c9" d="M430.5 156.5h3v3h-3v-3z"/>
    <path style="opacity:.357" fill="#6c30c7" d="M410.5 166.5h-3v-3h3v3z"/>
    <path style="opacity:.839" fill="#6a2bc9" d="M473.5 164.5h1c.667 2.667 1.333 2.667 2 0h1v3h-4v-3z"/>
    <path style="opacity:.5" fill="#6b36ba" d="M474.5 164.5h2c-.667 2.667-1.333 2.667-2 0z"/>
    <path style="opacity:1" fill="#6c30c9" d="M484.5 166.5h3v3h-3v-3z"/>
    <path style="opacity:.25" fill="#7237cc" d="M240.5 170.5c1.333 0 2 .667 2 2-1.333 0-2-.667-2-2z"/>
    <path style="opacity:.371" fill="#6a36bd" d="M228.5 173.5c1.548.321 2.215 1.321 2 3-1.548-.321-2.215-1.321-2-3z"/>
    <path style="opacity:.357" fill="#6c30c7" d="M464.5 176.5h-3v-3h3v3z"/>
    <path style="opacity:.839" fill="#6a2bc9" d="M527.5 174.5h1c.667 2.667 1.333 2.667 2 0h1v3h-4v-3z"/>
    <path style="opacity:.5" fill="#6b36ba" d="M528.5 174.5h2c-.667 2.667-1.333 2.667-2 0z"/>
    <path style="opacity:.25" fill="#6f2ad7"
          d="M228.5 173.5v-1h3c-.278 2.79.389 5.29 2 7.5-.07.765-.403 1.265-1 1.5-1.468-1.279-2.135-2.946-2-5 .215-1.679-.452-2.679-2-3z"/>
    <path style="opacity:.522" fill="#6e29d8"
          d="M240.5 169.5v1c0 1.333.667 2 2 2a29.753 29.753 0 0 0 2 7h-3c-.053-2.64-.72-5.14-2-7.5.028-1.07.361-1.903 1-2.5z"/>
    <path style="opacity:1" fill="#6c30c9" d="M538.5 176.5h3v3h-3v-3z"/>
    <path style="opacity:.5" fill="#702ada" d="M498.5 182.5h-3v-3h3v3z"/>
    <path style="opacity:.25" fill="#6f2bd5"
          d="M244.5 181.5c1.468 1.279 2.135 2.946 2 5 1.333 0 2 .667 2 2v1h-3c.179-2.454-.487-4.621-2-6.5.07-.765.403-1.265 1-1.5z"/>
    <path style="opacity:.629" fill="#702dd7" d="M232.5 183.5h3c.237 1.291-.096 2.291-1 3-1.548-.321-2.215-1.321-2-3z"/>
    <path style="opacity:.357" fill="#6c30c7" d="M518.5 186.5h-3v-3h3v3z"/>
    <path style="opacity:.129" fill="#6a38ba" d="M246.5 186.5c1.333 0 2 .667 2 2-1.333 0-2-.667-2-2z"/>
    <path style="opacity:.839" fill="#6a2bc9" d="M581.5 184.5h1c.667 2.667 1.333 2.667 2 0h1v3h-4v-3z"/>
    <path style="opacity:.5" fill="#6b36ba" d="M582.5 184.5h2c-.667 2.667-1.333 2.667-2 0z"/>
    <path style="opacity:1" fill="#6c30c9" d="M592.5 186.5h3v3h-3v-3z"/>
    <path style="opacity:.629" fill="#6f2fd1" d="M234.5 189.5h3c.237 1.291-.096 2.291-1 3-1.548-.321-2.215-1.321-2-3z"/>
    <path style="opacity:.5" fill="#702ada" d="M552.5 192.5h-3v-3h3v3z"/>
    <path style="opacity:.357" fill="#6c30c7" d="M572.5 196.5h-3v-3h3v3z"/>
    <path style="opacity:.629" fill="#6e30cb" d="M236.5 195.5h3c.268 1.599-.066 2.932-1 4-1.306-.967-1.973-2.301-2-4z"/>
    <path style="opacity:.5" fill="#6a35bb" d="M622.5 198.5v3c-2.667-1-2.667-2 0-3z"/>
    <path style="opacity:.357" fill="#6c30c7" d="M604.5 202.5h-3v-3h3v3z"/>
    <path style="opacity:.725" fill="#6c2eca" d="M611.5 205.5h-3v-3c2.379-1.067 3.379-.067 3 3z"/>
    <path style="opacity:.341" fill="#702ed5"
          d="M622.5 197.5v1c-2.667 1-2.667 2 0 3 .423 2.281-.244 3.948-2 5a104.618 104.618 0 0 1-1-9h3z"/>
    <path style="opacity:.629" fill="#6f27dc" d="M240.5 205.5h3c.268 1.599-.066 2.932-1 4-1.306-.967-1.973-2.301-2-4z"/>
    <path style="opacity:.773" fill="#6f28dc" d="M252.5 204.5c1.548.321 2.215 1.321 2 3h-3c-.237-1.291.096-2.291 1-3z"/>
    <path style="opacity:.868" fill="#691ddc"
          d="M608.5 205.5h3c-.418.722-1.084 1.222-2 1.5 1.64 2.776.973 4.776-2 6 1.64 2.776.973 4.776-2 6 1.301 1.616 1.301 3.116 0 4.5.237-1.291-.096-2.291-1-3v-3c2.551-.168 3.218-1.168 2-3v-3c2.551-.168 3.218-1.168 2-3v-3z"/>
    <path style="opacity:.25" fill="#7133ce" d="M608.5 208.5c1.218 1.832.551 2.832-2 3-.215-1.679.452-2.679 2-3z"/>
    <path style="opacity:.25" fill="#702adb" d="M620.5 209.5c-.027 1.699-.694 3.033-2 4-.934-1.068-1.268-2.401-1-4h3z"/>
    <path style="opacity:.629" fill="#702cd7" d="M242.5 211.5h3c.268 1.599-.066 2.932-1 4-1.306-.967-1.973-2.301-2-4z"/>
    <path style="opacity:.25" fill="#7133ce" d="M606.5 214.5c1.218 1.832.551 2.832-2 3-.215-1.679.452-2.679 2-3z"/>
    <path style="opacity:.371" fill="#6b37bd" d="M618.5 217.5c.215 1.679-.452 2.679-2 3-.215-1.679.452-2.679 2-3z"/>
    <path style="opacity:.25" fill="#7237cc" d="M258.5 220.5c1.333 0 2 .667 2 2-1.333 0-2-.667-2-2z"/>
    <path style="opacity:.522" fill="#7030d1" d="M604.5 220.5c.904.709 1.237 1.709 1 3h-3c-.215-1.679.452-2.679 2-3z"/>
    <path style="opacity:.371" fill="#6d25d9"
          d="M618.5 216.5v1c-1.548.321-2.215 1.321-2 3 .343 1.983-.324 3.317-2 4v-8h4z"/>
    <path style="opacity:.629" fill="#6f27dc" d="M248.5 227.5h3c.268 1.599-.066 2.932-1 4-1.306-.967-1.973-2.301-2-4z"/>
    <path style="opacity:.522" fill="#6e29d8"
          d="M258.5 219.5v1c0 1.333.667 2 2 2a29.753 29.753 0 0 0 2 7h-3c-.053-2.64-.72-5.14-2-7.5.028-1.07.361-1.903 1-2.5z"/>
    <path style="opacity:.371" fill="#6f39c3" d="M600.5 232.5c0 1.333-.667 2-2 2 0-1.333.667-2 2-2z"/>
    <path style="opacity:.629" fill="#702dd7" d="M250.5 233.5h3c.237 1.291-.096 2.291-1 3-1.548-.321-2.215-1.321-2-3z"/>
    <path style="opacity:.311" fill="#6a37ba" d="M264.5 236.5c1.333 0 2 .667 2 2-1.333 0-2-.667-2-2z"/>
    <path style="opacity:.871" fill="#6a1edb"
          d="M612.5 234.5v1c-2.551.168-3.218 1.168-2 3v3h-3c-.237 1.291.096 2.291 1 3v3h-3c-.268 1.599.066 2.932 1 4v1c-1.193-.47-1.86-1.47-2-3a63.227 63.227 0 0 0 4-15h4z"/>
    <path style="opacity:.371" fill="#6e35c7" d="M612.5 235.5c.215 1.679-.452 2.679-2 3-1.218-1.832-.551-2.832 2-3z"/>
    <path style="opacity:.871" fill="#6a20d9"
          d="M600.5 231.5c.619 3.477.619 7.144 0 11h-4v-1h3c.237-1.291-.096-2.291-1-3v-4c1.333 0 2-.667 2-2v-1z"/>
    <path style="opacity:.531" fill="#6e2ad5"
          d="M262.5 231.5c1.468 1.279 2.135 2.946 2 5 0 1.333.667 2 2 2v4h-1a248.624 248.624 0 0 1-4-9.5c.07-.765.403-1.265 1-1.5z"/>
    <path style="opacity:.629" fill="#6f2fd1" d="M252.5 239.5h3c.237 1.291-.096 2.291-1 3-1.548-.321-2.215-1.321-2-3z"/>
    <path style="opacity:.522" fill="#6e32ca" d="M598.5 238.5c.904.709 1.237 1.709 1 3h-3c-.215-1.679.452-2.679 2-3z"/>
    <path style="opacity:.129" fill="#6f35c7" d="M610.5 241.5c.215 1.679-.452 2.679-2 3-.904-.709-1.237-1.709-1-3h3z"/>
    <path style="opacity:.522" fill="#6e32ca" d="M265.5 242.5h1c1.548.321 2.215 1.321 2 3h-3v-3z"/>
    <path style="opacity:.629" fill="#6e30cb" d="M254.5 245.5h3c.268 1.599-.066 2.932-1 4-1.306-.967-1.973-2.301-2-4z"/>
    <path style="opacity:.629" fill="#6d2dce" d="M608.5 247.5v1c-1.333 0-2 .667-2 2v1c-.934-1.068-1.268-2.401-1-4h3z"/>
    <path style="opacity:.129" fill="#7039c3" d="M608.5 248.5c0 1.333-.667 2-2 2 0-1.333.667-2 2-2z"/>
    <path style="opacity:.129" fill="#7130d6" d="M270.5 253.5c1.306.967 1.973 2.301 2 4h-3c-.268-1.599.066-2.932 1-4z"/>
    <path style="opacity:.629" fill="#6f27dc" d="M258.5 255.5h3c.268 1.599-.066 2.932-1 4-1.306-.967-1.973-2.301-2-4z"/>
    <path style="opacity:.25" fill="#7133ce" d="M604.5 259.5c.215 1.679-.452 2.679-2 3-1.218-1.832-.551-2.832 2-3z"/>
    <path style="opacity:.629" fill="#702cd7" d="M260.5 261.5h3c.268 1.599-.066 2.932-1 4-1.306-.967-1.973-2.301-2-4z"/>
    <path style="opacity:.773" fill="#6f27dc" d="M590.5 263.5c.934 1.068 1.268 2.401 1 4h-3c.027-1.699.694-3.033 2-4z"/>
    <path style="opacity:.25" fill="#7133ce" d="M602.5 265.5c.215 1.679-.452 2.679-2 3-.904-.709-1.237-1.709-1-3h3z"/>
    <path style="opacity:.25" fill="#7237cc" d="M276.5 270.5c1.333 0 2 .667 2 2-1.333 0-2-.667-2-2z"/>
    <path style="opacity:.629" fill="#6f27dc" d="M588.5 269.5c.934 1.068 1.268 2.401 1 4h-3c.027-1.699.694-3.033 2-4z"/>
    <path style="opacity:.25" fill="#7133ce" d="M600.5 271.5c.215 1.679-.452 2.679-2 3-.904-.709-1.237-1.709-1-3h3z"/>
    <path style="opacity:.629" fill="#6f27dc"
          d="M586.5 275.5c.934 1.068 1.268 2.401 1 4h-3c.027-1.699.694-3.033 2-4zM266.5 277.5h3c.268 1.599-.066 2.932-1 4-1.306-.967-1.973-2.301-2-4z"/>
    <path style="opacity:.522" fill="#6e29d8"
          d="M276.5 269.5v1c0 1.333.667 2 2 2a29.753 29.753 0 0 0 2 7h-3c-.053-2.64-.72-5.14-2-7.5.028-1.07.361-1.903 1-2.5z"/>
    <path style="opacity:.129" fill="#7230d5" d="M598.5 277.5c.215 1.679-.452 2.679-2 3-.904-.709-1.237-1.709-1-3h3z"/>
    <path style="opacity:.629" fill="#702dd7" d="M268.5 283.5h3c.237 1.291-.096 2.291-1 3-1.548-.321-2.215-1.321-2-3z"/>
    <path style="opacity:.129" fill="#7230d5" d="M596.5 283.5c.215 1.679-.452 2.679-2 3-.904-.709-1.237-1.709-1-3h3z"/>
    <path style="opacity:.311" fill="#6a37ba" d="M282.5 286.5c1.333 0 2 .667 2 2-1.333 0-2-.667-2-2z"/>
    <path style="opacity:.531" fill="#6e2ad5"
          d="M280.5 281.5c1.468 1.279 2.135 2.946 2 5 0 1.333.667 2 2 2v4h-1a248.624 248.624 0 0 1-4-9.5c.07-.765.403-1.265 1-1.5z"/>
    <path style="opacity:.629" fill="#6f2fd1" d="M270.5 289.5h3c.237 1.291-.096 2.291-1 3-1.548-.321-2.215-1.321-2-3z"/>
    <path style="opacity:.522" fill="#702cd7" d="M582.5 288.5c.904.709 1.237 1.709 1 3h-3c-.215-1.679.452-2.679 2-3z"/>
    <path style="opacity:.129" fill="#7230d5" d="M594.5 289.5c.215 1.679-.452 2.679-2 3-.904-.709-1.237-1.709-1-3h3z"/>
    <path style="opacity:.522" fill="#6e32ca" d="M283.5 292.5h1c1.548.321 2.215 1.321 2 3h-3v-3z"/>
    <path style="opacity:.629" fill="#6e30cb" d="M272.5 295.5h3c.268 1.599-.066 2.932-1 4-1.306-.967-1.973-2.301-2-4z"/>
    <path style="opacity:.522" fill="#702cd7"
          d="M580.5 294.5c.904.709 1.237 1.709 1 3h-3c-.215-1.679.452-2.679 2-3zM578.5 300.5c.904.709 1.237 1.709 1 3h-3c-.215-1.679.452-2.679 2-3z"/>
    <path style="opacity:.25" fill="#702adb" d="M590.5 301.5c-.027 1.699-.694 3.033-2 4-.934-1.068-1.268-2.401-1-4h3z"/>
    <path style="opacity:.129" fill="#7130d6" d="M288.5 303.5c1.306.967 1.973 2.301 2 4h-3c-.268-1.599.066-2.932 1-4z"/>
    <path style="opacity:.629" fill="#6f27dc" d="M276.5 305.5h3c.268 1.599-.066 2.932-1 4-1.306-.967-1.973-2.301-2-4z"/>
    <path style="opacity:.25" fill="#7133ce" d="M576.5 306.5c1.218 1.832.551 2.832-2 3-.215-1.679.452-2.679 2-3z"/>
    <path style="opacity:.25" fill="#702adb" d="M588.5 307.5c-.027 1.699-.694 3.033-2 4-.934-1.068-1.268-2.401-1-4h3z"/>
    <path style="opacity:.569" fill="#691cdc"
          d="M576.5 306.5v-1c2.696 2.097 2.362 3.93-1 5.5 1.64 2.776.973 4.776-2 6 1.64 2.776.973 4.776-2 6 1.301 1.616 1.301 3.116 0 4.5.237-1.291-.096-2.291-1-3v-3c2.551-.168 3.218-1.168 2-3v-3c2.551-.168 3.218-1.168 2-3v-3c2.551-.168 3.218-1.168 2-3z"/>
    <path style="opacity:.629" fill="#702dd7" d="M278.5 311.5h3c.237 1.291-.096 2.291-1 3-1.548-.321-2.215-1.321-2-3z"/>
    <path style="opacity:.25" fill="#7133ce" d="M574.5 312.5c1.218 1.832.551 2.832-2 3-.215-1.679.452-2.679 2-3z"/>
    <path style="opacity:.25" fill="#702adb" d="M586.5 313.5c-.027 1.699-.694 3.033-2 4-.934-1.068-1.268-2.401-1-4h3z"/>
    <path style="opacity:.629" fill="#6f2ed1" d="M280.5 317.5h3c.268 1.599-.066 2.932-1 4-1.306-.967-1.973-2.301-2-4z"/>
    <path style="opacity:.25" fill="#7133ce" d="M572.5 318.5c1.218 1.832.551 2.832-2 3-.215-1.679.452-2.679 2-3z"/>
    <path style="opacity:.25" fill="#7237cc" d="M294.5 320.5c1.333 0 2 .667 2 2-1.333 0-2-.667-2-2z"/>
    <path style="opacity:.522" fill="#7030d1" d="M570.5 324.5c.904.709 1.237 1.709 1 3h-3c-.215-1.679.452-2.679 2-3z"/>
    <path style="opacity:.522" fill="#6e29d8"
          d="M294.5 319.5v1c0 1.333.667 2 2 2a29.753 29.753 0 0 0 2 7h-3c-.053-2.64-.72-5.14-2-7.5.028-1.07.361-1.903 1-2.5z"/>
    <path style="opacity:.25" fill="#702adb" d="M298.5 331.5c1.306.967 1.973 2.301 2 4h-3c-.268-1.599.066-2.932 1-4z"/>
    <path style="opacity:.629" fill="#702cd7" d="M286.5 333.5h3c.268 1.599-.066 2.932-1 4-1.306-.967-1.973-2.301-2-4z"/>
    <path style="opacity:.371" fill="#6f39c3" d="M566.5 336.5c0 1.333-.667 2-2 2 0-1.333.667-2 2-2z"/>
    <path style="opacity:.371" fill="#6e35c7" d="M578.5 339.5c.215 1.679-.452 2.679-2 3-1.218-1.832-.551-2.832 2-3z"/>
    <path style="opacity:.871" fill="#6b1fdd"
          d="M300.5 337.5c1.306.967 1.973 2.301 2 4-.934 1.068-1.268 2.401-1 4h3v3c-1.218 1.832-.551 2.832 2 3v3h-1c-2.218-3.059-3.885-6.559-5-10.5-1.003-2.346-1.003-4.513 0-6.5z"/>
    <path style="opacity:.629" fill="#6d2dcf" d="M302.5 341.5v1c1.333 0 2 .667 2 2v1h-3c-.268-1.599.066-2.932 1-4z"/>
    <path style="opacity:.129" fill="#6f39c3" d="M302.5 342.5c1.333 0 2 .667 2 2-1.333 0-2-.667-2-2z"/>
    <path style="opacity:.871" fill="#6a20d9"
          d="M566.5 335.5c.619 3.477.619 7.144 0 11h-4v-1h3c.237-1.291-.096-2.291-1-3v-4c1.333 0 2-.667 2-2v-1z"/>
    <path style="opacity:.522" fill="#6e32ca" d="M564.5 342.5c.904.709 1.237 1.709 1 3h-3c-.215-1.679.452-2.679 2-3z"/>
    <path style="opacity:.371" fill="#6e34c7" d="M290.5 345.5c2 0 3 1 3 3h-1c-1.548-.321-2.215-1.321-2-3z"/>
    <path style="opacity:.629" fill="#6d2dce" d="M576.5 345.5v1c-1.333 0-2 .667-2 2v1c-.934-1.068-1.268-2.401-1-4h3z"/>
    <path style="opacity:.129" fill="#7039c3" d="M576.5 346.5c0 1.333-.667 2-2 2 0-1.333.667-2 2-2z"/>
    <path style="opacity:.25" fill="#7133ce" d="M304.5 348.5c1.548.321 2.215 1.321 2 3-2.551-.168-3.218-1.168-2-3z"/>
    <path style="opacity:.311" fill="#6a36bd" d="M292.5 351.5c1.548.321 2.215 1.321 2 3-1.548-.321-2.215-1.321-2-3z"/>
    <path style="opacity:.25" fill="#6f2bd5"
          d="M292.5 348.5h1c1.749 3.056 2.749 6.389 3 10-1.676-.683-2.343-2.017-2-4 .215-1.679-.452-2.679-2-3v-3z"/>
    <path style="opacity:.522" fill="#702cd7" d="M305.5 354.5h1c1.548.321 2.215 1.321 2 3h-3v-3z"/>
    <path style="opacity:.25" fill="#7133ce" d="M572.5 357.5c.215 1.679-.452 2.679-2 3-.904-.709-1.237-1.709-1-3h3z"/>
    <path style="opacity:.25" fill="#702adb" d="M308.5 359.5c1.306.967 1.973 2.301 2 4h-3c-.268-1.599.066-2.932 1-4z"/>
    <path style="opacity:.629" fill="#702dd7" d="M296.5 361.5h3c.237 1.291-.096 2.291-1 3-1.548-.321-2.215-1.321-2-3z"/>
    <path style="opacity:.25" fill="#7133ce" d="M570.5 363.5c.215 1.679-.452 2.679-2 3-.904-.709-1.237-1.709-1-3h3z"/>
    <path style="opacity:.629" fill="#6f2ed1" d="M298.5 367.5h3c.268 1.599-.066 2.932-1 4-1.306-.967-1.973-2.301-2-4z"/>
    <path style="opacity:.773" fill="#6f27dc" d="M556.5 367.5c.934 1.068 1.268 2.401 1 4h-3c.027-1.699.694-3.033 2-4z"/>
    <path style="opacity:.25" fill="#7133ce" d="M568.5 369.5c.215 1.679-.452 2.679-2 3-.904-.709-1.237-1.709-1-3h3z"/>
    <path style="opacity:.629" fill="#6f27dc" d="M554.5 373.5c.934 1.068 1.268 2.401 1 4h-3c.027-1.699.694-3.033 2-4z"/>
    <path style="opacity:.25" fill="#7133ce" d="M566.5 375.5c.215 1.679-.452 2.679-2 3-.904-.709-1.237-1.709-1-3h3z"/>
    <path style="opacity:.522" fill="#702cd7" d="M314.5 375.5c1.306.967 1.973 2.301 2 4h-3c-.268-1.599.066-2.932 1-4z"/>
    <path style="opacity:.629" fill="#6f27dc" d="M552.5 379.5c.934 1.068 1.268 2.401 1 4h-3c.027-1.699.694-3.033 2-4z"/>
    <path style="opacity:.25" fill="#702adb" d="M316.5 381.5c1.306.967 1.973 2.301 2 4h-3c-.268-1.599.066-2.932 1-4z"/>
    <path style="opacity:.129" fill="#7230d5" d="M564.5 381.5c.215 1.679-.452 2.679-2 3-.904-.709-1.237-1.709-1-3h3z"/>
    <path style="opacity:.629" fill="#6f27db" d="M304.5 383.5h3c.268 1.599-.066 2.932-1 4-1.306-.967-1.973-2.301-2-4z"/>
    <path style="opacity:.129" fill="#7230d5" d="M562.5 387.5c.215 1.679-.452 2.679-2 3-.904-.709-1.237-1.709-1-3h3z"/>
    <path style="opacity:.871" fill="#6b1fdd"
          d="M318.5 387.5c1.306.967 1.973 2.301 2 4-.934 1.068-1.268 2.401-1 4h3v3c-1.218 1.832-.551 2.832 2 3v3h-1c-2.218-3.059-3.885-6.559-5-10.5-1.003-2.346-1.003-4.513 0-6.5z"/>
    <path style="opacity:.629" fill="#6d2dcf" d="M320.5 391.5v1c1.333 0 2 .667 2 2v1h-3c-.268-1.599.066-2.932 1-4z"/>
    <path style="opacity:.129" fill="#6f39c3" d="M320.5 392.5c1.333 0 2 .667 2 2-1.333 0-2-.667-2-2z"/>
    <path style="opacity:.522" fill="#702cd7" d="M548.5 392.5c.904.709 1.237 1.709 1 3h-3c-.215-1.679.452-2.679 2-3z"/>
    <path style="opacity:.129" fill="#7230d5" d="M560.5 393.5c.215 1.679-.452 2.679-2 3-.904-.709-1.237-1.709-1-3h3z"/>
    <path style="opacity:.25" fill="#7133ce" d="M322.5 398.5c1.548.321 2.215 1.321 2 3-2.551-.168-3.218-1.168-2-3z"/>
    <path style="opacity:.522" fill="#702cd7" d="M546.5 398.5c.904.709 1.237 1.709 1 3h-3c-.215-1.679.452-2.679 2-3z"/>
    <path style="opacity:.371" fill="#6a36bd" d="M310.5 401.5c1.548.321 2.215 1.321 2 3-1.548-.321-2.215-1.321-2-3z"/>
    <path style="opacity:.25" fill="#6f2ad7"
          d="M310.5 401.5v-1h3c-.278 2.79.389 5.29 2 7.5-.07.765-.403 1.265-1 1.5-1.468-1.279-2.135-2.946-2-5 .215-1.679-.452-2.679-2-3z"/>
    <path style="opacity:.522" fill="#702cd7"
          d="M323.5 404.5h1c1.548.321 2.215 1.321 2 3h-3v-3zM544.5 404.5c.904.709 1.237 1.709 1 3h-3c-.215-1.679.452-2.679 2-3z"/>
    <path style="opacity:.25" fill="#702adb"
          d="M556.5 405.5c-.027 1.699-.694 3.033-2 4-.934-1.068-1.268-2.401-1-4h3zM326.5 409.5c1.306.967 1.973 2.301 2 4h-3c-.268-1.599.066-2.932 1-4z"/>
    <path style="opacity:.25" fill="#7133ce" d="M542.5 410.5c1.218 1.832.551 2.832-2 3-.215-1.679.452-2.679 2-3z"/>
    <path style="opacity:.629" fill="#702dd7" d="M314.5 411.5h3c.237 1.291-.096 2.291-1 3-1.548-.321-2.215-1.321-2-3z"/>
    <path style="opacity:.25" fill="#702adb" d="M554.5 411.5c-.027 1.699-.694 3.033-2 4-.934-1.068-1.268-2.401-1-4h3z"/>
    <path style="opacity:.569" fill="#691cdc"
          d="M542.5 410.5v-1c2.696 2.097 2.362 3.93-1 5.5 1.64 2.776.973 4.776-2 6 1.64 2.776.973 4.776-2 6 1.301 1.616 1.301 3.116 0 4.5.237-1.291-.096-2.291-1-3v-3c2.551-.168 3.218-1.168 2-3v-3c2.551-.168 3.218-1.168 2-3v-3c2.551-.168 3.218-1.168 2-3z"/>
    <path style="opacity:.25" fill="#7133ce" d="M540.5 416.5c1.218 1.832.551 2.832-2 3-.215-1.679.452-2.679 2-3z"/>
    <path style="opacity:.629" fill="#6f2ed1" d="M316.5 417.5h3c.268 1.599-.066 2.932-1 4-1.306-.967-1.973-2.301-2-4z"/>
    <path style="opacity:.25" fill="#7133ce" d="M538.5 422.5c1.218 1.832.551 2.832-2 3-.215-1.679.452-2.679 2-3z"/>
    <path style="opacity:.522" fill="#702cd7" d="M332.5 425.5c1.306.967 1.973 2.301 2 4h-3c-.268-1.599.066-2.932 1-4z"/>
    <path style="opacity:.522" fill="#7030d1" d="M536.5 428.5c.904.709 1.237 1.709 1 3h-3c-.215-1.679.452-2.679 2-3z"/>
    <path style="opacity:.25" fill="#702adb" d="M334.5 431.5c1.306.967 1.973 2.301 2 4h-3c-.268-1.599.066-2.932 1-4z"/>
    <path style="opacity:.629" fill="#6f27db" d="M322.5 433.5h3c.268 1.599-.066 2.932-1 4-1.306-.967-1.973-2.301-2-4z"/>
    <path style="opacity:.371" fill="#6f39c3" d="M532.5 440.5c0 1.333-.667 2-2 2 0-1.333.667-2 2-2z"/>
    <path style="opacity:.871" fill="#6b1fdd"
          d="M336.5 437.5c1.306.967 1.973 2.301 2 4-.934 1.068-1.268 2.401-1 4h3v3c-1.218 1.832-.551 2.832 2 3v3h-1c-2.218-3.059-3.885-6.559-5-10.5-1.003-2.346-1.003-4.513 0-6.5z"/>
    <path style="opacity:.629" fill="#6d2dcf" d="M338.5 441.5v1c1.333 0 2 .667 2 2v1h-3c-.268-1.599.066-2.932 1-4z"/>
    <path style="opacity:.129" fill="#6f39c3" d="M338.5 442.5c1.333 0 2 .667 2 2-1.333 0-2-.667-2-2z"/>
    <path style="opacity:.371" fill="#6e35c7" d="M544.5 443.5c.215 1.679-.452 2.679-2 3-1.218-1.832-.551-2.832 2-3z"/>
    <path style="opacity:.871" fill="#6a20d9"
          d="M532.5 439.5c.619 3.477.619 7.144 0 11h-4v-1h3c.237-1.291-.096-2.291-1-3v-4c1.333 0 2-.667 2-2v-1z"/>
    <path style="opacity:.25" fill="#7133ce" d="M340.5 448.5c1.548.321 2.215 1.321 2 3-2.551-.168-3.218-1.168-2-3z"/>
    <path style="opacity:.522" fill="#6e32ca" d="M530.5 446.5c.904.709 1.237 1.709 1 3h-3c-.215-1.679.452-2.679 2-3z"/>
    <path style="opacity:.629" fill="#6d2dce" d="M542.5 449.5v1c-1.333 0-2 .667-2 2v1c-.934-1.068-1.268-2.401-1-4h3z"/>
    <path style="opacity:.129" fill="#7039c3" d="M542.5 450.5c0 1.333-.667 2-2 2 0-1.333.667-2 2-2z"/>
    <path style="opacity:.371" fill="#6a36bd" d="M328.5 451.5c1.548.321 2.215 1.321 2 3-1.548-.321-2.215-1.321-2-3z"/>
    <path style="opacity:.25" fill="#6f2ad7"
          d="M328.5 451.5v-1h3c-.278 2.79.389 5.29 2 7.5-.07.765-.403 1.265-1 1.5-1.468-1.279-2.135-2.946-2-5 .215-1.679-.452-2.679-2-3z"/>
    <path style="opacity:.522" fill="#702cd7" d="M341.5 454.5h1c1.548.321 2.215 1.321 2 3h-3v-3z"/>
    <path style="opacity:.25" fill="#6f2bd5"
          d="M344.5 459.5c1.468 1.279 2.135 2.946 2 5 1.333 0 2 .667 2 2v1h-3c.179-2.454-.487-4.621-2-6.5.07-.765.403-1.265 1-1.5z"/>
    <path style="opacity:.192" fill="#6d22dd"
          d="M526.5 459.5c.624.417.957 1.084 1 2a130.406 130.406 0 0 0-1.5 7c-1.011.837-2.178 1.17-3.5 1v-2h3c.268-1.599-.066-2.932-1-4 .027-1.699.694-3.033 2-4z"/>
    <path style="opacity:.629" fill="#702dd7" d="M332.5 461.5h3c.237 1.291-.096 2.291-1 3-1.548-.321-2.215-1.321-2-3z"/>
    <path style="opacity:.25" fill="#7133ce" d="M538.5 461.5c.215 1.679-.452 2.679-2 3-.904-.709-1.237-1.709-1-3h3z"/>
    <path style="opacity:.129" fill="#6a38ba" d="M346.5 464.5c1.333 0 2 .667 2 2-1.333 0-2-.667-2-2z"/>
    <path style="opacity:.371" fill="#6b38ba" d="M524.5 464.5c0 1.333-.667 2-2 2 0-1.333.667-2 2-2z"/>
    <path style="opacity:.629" fill="#6b2ec8" d="M524.5 463.5c.934 1.068 1.268 2.401 1 4h-3v-1c1.333 0 2-.667 2-2v-1z"/>
    <path style="opacity:.629" fill="#6f2fd1" d="M334.5 467.5h3c.237 1.291-.096 2.291-1 3-1.548-.321-2.215-1.321-2-3z"/>
    <path style="opacity:.25" fill="#7133ce" d="M536.5 467.5c.215 1.679-.452 2.679-2 3-.904-.709-1.237-1.709-1-3h3z"/>
    <path style="opacity:.629" fill="#6f27dc" d="M522.5 471.5c.934 1.068 1.268 2.401 1 4h-3c.027-1.699.694-3.033 2-4z"/>
    <path style="opacity:.629" fill="#6e30cb" d="M336.5 473.5h3c.268 1.599-.066 2.932-1 4-1.306-.967-1.973-2.301-2-4z"/>
    <path style="opacity:.25" fill="#7133ce" d="M531.5 473.5h3c.215 1.679-.452 2.679-2 3-.904-.709-1.237-1.709-1-3z"/>
    <path style="opacity:1" fill="#6e2fd0" d="M511.5 474.5h3v3h-3v-3z"/>
    <path style="opacity:1" fill="#6e27da" d="M503.5 476.5h3v3h-3v-3z"/>
    <path style="opacity:1" fill="#6b2bcc" d="M517.5 474.5c.722 1.051 1.722 1.718 3 2v3h-3v-5z"/>
    <path style="opacity:.129" fill="#7334d4" d="M532.5 480.5c0 1.333-.667 2-2 2 0-1.333.667-2 2-2z"/>
    <path style="opacity:1" fill="#6c30c9" d="M483.5 480.5h3v3h-3v-3z"/>
    <path style="opacity:.658" fill="#6b1fde"
          d="M531.5 473.5c-.237 1.291.096 2.291 1 3v4c-1.333 0-2 .667-2 2 .343 1.983-.324 3.317-2 4-.321-1.548-1.321-2.215-3-2 .709-.904 1.709-1.237 3-1-.535-2.738.465-4.572 3-5.5-1.301-1.616-1.301-3.116 0-4.5z"/>
    <path style="opacity:.629" fill="#6f27db" d="M340.5 483.5h3c.268 1.599-.066 2.932-1 4-1.306-.967-1.973-2.301-2-4z"/>
    <path style="opacity:.773" fill="#6f28dc" d="M352.5 482.5c1.548.321 2.215 1.321 2 3h-3c-.237-1.291.096-2.291 1-3z"/>
    <path style="opacity:.92" fill="#6f2bd5" d="M475.5 482.5h3v3h-3v-3z"/>
    <path style="opacity:.459" fill="#7033cd" d="m516.5 490.5-4-2v-3h3a20.69 20.69 0 0 0 1 5z"/>
    <path style="opacity:.212" fill="#6b27d2"
          d="M525.5 484.5c1.679-.215 2.679.452 3 2v2c-1.291.237-2.291-.096-3-1-1.333-1-1.333-2 0-3z"/>
    <path style="opacity:.808" fill="#652cbb" d="M525.5 487.5c.139-1.837.806-2.17 2-1-.457.798-1.124 1.131-2 1z"/>
    <path style="opacity:.357" fill="#6f2cd4" d="M505.5 490.5h-3v-3h3v3z"/>
    <path style="opacity:.357" fill="#6c30c7" d="M497.5 492.5h-3v-3h3v3z"/>
    <path style="opacity:.871" fill="#6b1fdd"
          d="M354.5 487.5c1.306.967 1.973 2.301 2 4-.934 1.068-1.268 2.401-1 4h3v3c-1.218 1.832-.551 2.832 2 3v3h-1c-2.218-3.059-3.885-6.559-5-10.5-1.003-2.346-1.003-4.513 0-6.5z"/>
    <path style="opacity:.629" fill="#6d2dcf" d="M356.5 491.5v1c1.333 0 2 .667 2 2v1h-3c-.268-1.599.066-2.932 1-4z"/>
    <path style="opacity:.129" fill="#6f39c3" d="M356.5 492.5c1.333 0 2 .667 2 2-1.333 0-2-.667-2-2z"/>
    <path style="opacity:1" fill="#6e27da" d="M439.5 490.5h3v3h-3v-3z"/>
    <path style="opacity:.92" fill="#6f2bd5" d="M429.5 492.5h3v3h-3v-3z"/>
    <path style="opacity:.5" fill="#6f30d0" d="M469.5 498.5h-3v-3h3v3z"/>
    <path style="opacity:.25" fill="#7133ce" d="M358.5 498.5c1.548.321 2.215 1.321 2 3-2.551-.168-3.218-1.168-2-3z"/>
    <path style="opacity:1" fill="#6a2fc3" d="M409.5 496.5h3v3h-3v-3z"/>
    <path style="opacity:1" fill="#6d23dc" d="M412.5 496.5h3c.17 1.322-.163 2.489-1 3.5-1.887.78-3.554.613-5-.5h3v-3z"/>
    <path style="opacity:.5" fill="#6c22dc"
          d="M461.5 497.5h-3v3h-3c-.17-1.322.163-2.489 1-3.5 1.887-.78 3.554-.613 5 .5z"/>
    <path style="opacity:.357" fill="#6930c0" d="M461.5 497.5v3h-3v-3h3z"/>
    <path style="opacity:1" fill="#6e2fd0" d="M401.5 498.5h3v3h-3v-3z"/>
    <path style="opacity:.25" fill="#7033ce" d="M518.5 499.5c2.551.168 3.218 1.168 2 3-1.548-.321-2.215-1.321-2-3z"/>
    <path style="opacity:.371" fill="#6a36bd" d="M346.5 501.5c1.548.321 2.215 1.321 2 3-1.548-.321-2.215-1.321-2-3z"/>
    <path style="opacity:1" fill="#6e27da" d="M393.5 500.5h3v3h-3v-3z"/>
    <path style="opacity:.357" fill="#6f2cd4" d="M441.5 504.5h-3v-3h3v3z"/>
    <path style="opacity:.871" fill="#6b1fdd"
          d="M530.5 497.5c1.306.967 1.973 2.301 2 4-.934 1.068-1.268 2.401-1 4h3v3c-1.218 1.832-.551 2.832 2 3v3h-1c-2.218-3.059-3.885-6.559-5-10.5-1.003-2.346-1.003-4.513 0-6.5z"/>
    <path style="opacity:.629" fill="#6d2dcf" d="M532.5 501.5v1c0 1.333.667 2 2 2v1h-3c-.268-1.599.066-2.932 1-4z"/>
    <path style="opacity:.129" fill="#6f39c3" d="M532.5 502.5c1.333 0 2 .667 2 2 0-1.333-.667-2-2-2z"/>
    <path style="opacity:.25" fill="#6f2ad7"
          d="M346.5 501.5v-1h3c-.278 2.79.389 5.29 2 7.5-.07.765-.403 1.265-1 1.5-1.468-1.279-2.135-2.946-2-5 .215-1.679-.452-2.679-2-3z"/>
    <path style="opacity:.486" fill="#712ed6" d="M359.5 504.5h1c1.548.321 2.215 1.321 2 3h-3v-3z"/>
    <path style="opacity:1" fill="#6c30c9" d="M373.5 504.5h3v3h-3v-3z"/>
    <path style="opacity:.629" fill="#6e31ca" d="M520.5 505.5h3v3h-1c-1.548-.321-2.215-1.321-2-3z"/>
    <path style="opacity:.92" fill="#6f2bd5" d="M365.5 506.5h3v3h-3v-3z"/>
    <path style="opacity:.25" fill="#7133ce" d="M534.5 508.5c1.548.321 2.215 1.321 2 3-2.551-.168-3.218-1.168-2-3z"/>
    <path style="opacity:.357" fill="#6f2cd4" d="M395.5 514.5h-3v-3h3v3z"/>
    <path style="opacity:.311" fill="#6a36bd" d="M522.5 511.5c1.548.321 2.215 1.321 2 3-1.548-.321-2.215-1.321-2-3z"/>
    <path style="opacity:.357" fill="#6c30c7" d="M387.5 516.5h-3v-3h3v3z"/>
    <path style="opacity:.25" fill="#6f2bd5"
          d="M522.5 508.5h1c1.749 3.056 2.749 6.389 3 10-1.676-.683-2.343-2.017-2-4 .215-1.679-.452-2.679-2-3v-3z"/>
    <path style="opacity:.522" fill="#702cd7" d="M535.5 514.5h1c1.548.321 2.215 1.321 2 3h-3v-3z"/>
    <path style="opacity:.741" fill="#6c37c0" d="M350.5 516.5c2.667 1 2.667 2 0 3v-3z"/>
    <path style="opacity:.5" fill="#6e2dd1" d="M350.5 516.5v-1h3v5c-1.333 0-2 .667-2 2h-1v-3c2.667-1 2.667-2 0-3z"/>
    <path style="opacity:.25" fill="#702adb" d="M538.5 519.5c1.306.967 1.973 2.301 2 4h-3c-.268-1.599.066-2.932 1-4z"/>
    <path style="opacity:.629" fill="#6f27dc" d="M526.5 521.5h3c.268 1.599-.066 2.932-1 4-1.306-.967-1.973-2.301-2-4z"/>
    <path style="opacity:.522" fill="#6a32c3" d="M350.5 522.5h1v3h-3c-.215-1.679.452-2.679 2-3z"/>
    <path style="opacity:.725" fill="#6c21dc"
          d="M353.5 520.5a94.17 94.17 0 0 1-4 11c.268-1.599-.066-2.932-1-4v-2h3v-3c0-1.333.667-2 2-2z"/>
    <path style="opacity:.371" fill="#6c21dd"
          d="M540.5 525.5c1.306.967 1.973 2.301 2 4-.951 1.419-1.284 3.085-1 5-.904-2.138-1.571-4.471-2-7 .043-.916.376-1.583 1-2z"/>
    <path style="opacity:.629" fill="#6f2ed2" d="M348.5 527.5c.934 1.068 1.268 2.401 1 4h-3c.027-1.699.694-3.033 2-4z"/>
    <path style="opacity:.629" fill="#702dd7" d="M528.5 527.5h3c.237 1.291-.096 2.291-1 3-1.548-.321-2.215-1.321-2-3z"/>
    <path style="opacity:.129" fill="#6b38b9" d="M542.5 530.5c1.333 0 2 .667 2 2 0-1.333-.667-2-2-2z"/>
    <path style="opacity:.531" fill="#6d2bd1"
          d="M542.5 529.5v1c0 1.333.667 2 2 2v4c0 1.333.667 2 2 2v1h-3c.423-2.281-.244-3.948-2-5-.284-1.915.049-3.581 1-5z"/>
    <path style="opacity:.629" fill="#6f2fd1" d="M530.5 533.5h3c.237 1.291-.096 2.291-1 3-1.548-.321-2.215-1.321-2-3z"/>
    <path style="opacity:.522" fill="#6f28dc" d="M346.5 534.5c.904.709 1.237 1.709 1 3h-3c-.215-1.679.452-2.679 2-3z"/>
    <path style="opacity:.25" fill="#712bda" d="M358.5 535.5c.215 1.679-.452 2.679-2 3-.904-.709-1.237-1.709-1-3h3z"/>
    <path style="opacity:.129" fill="#6f38c3" d="M544.5 536.5c1.333 0 2 .667 2 2 0-1.333-.667-2-2-2z"/>
    <path style="opacity:.629" fill="#6e31ca" d="M532.5 539.5h3v3h-1c-1.548-.321-2.215-1.321-2-3z"/>
    <path style="opacity:.25" fill="#7237cc" d="M356.5 542.5c0 1.333-.667 2-2 2 0-1.333.667-2 2-2z"/>
    <path style="opacity:.25" fill="#7133ce" d="M546.5 542.5c1.548.321 2.215 1.321 2 3-2.551-.168-3.218-1.168-2-3z"/>
    <path style="opacity:.371" fill="#6e25db" d="M356.5 541.5v1c-1.333 0-2 .667-2 2 .343 1.983-.324 3.317-2 4v-7h4z"/>
    <path style="opacity:.311" fill="#6a36bd" d="M534.5 545.5c1.548.321 2.215 1.321 2 3-1.548-.321-2.215-1.321-2-3z"/>
    <path style="opacity:.25" fill="#6f2bd5"
          d="M534.5 542.5h1c1.749 3.056 2.749 6.389 3 10-1.676-.683-2.343-2.017-2-4 .215-1.679-.452-2.679-2-3v-3z"/>
    <path style="opacity:.522" fill="#702cd7" d="M548.5 548.5c1.548.321 2.215 1.321 2 3h-3c-.237-1.291.096-2.291 1-3z"/>
    <path style="opacity:.129" fill="#7230d6"
          d="M352.5 551.5c-.027 1.699-.694 3.033-2 4-.934-1.068-1.268-2.401-1-4h3z"/>
    <path style="opacity:.25" fill="#702adb" d="M550.5 553.5c1.306.967 1.973 2.301 2 4h-3c-.268-1.599.066-2.932 1-4z"/>
    <path style="opacity:.629" fill="#6f27dc" d="M538.5 555.5h3c.268 1.599-.066 2.932-1 4-1.306-.967-1.973-2.301-2-4z"/>
    <path style="opacity:.629" fill="#702cd7" d="M336.5 559.5c.934 1.068 1.268 2.401 1 4h-3c.027-1.699.694-3.033 2-4z"/>
    <path style="opacity:.629" fill="#702dd7" d="M540.5 561.5h3c.237 1.291-.096 2.291-1 3-1.548-.321-2.215-1.321-2-3z"/>
    <path style="opacity:.311" fill="#6a37ba" d="M554.5 564.5c1.333 0 2 .667 2 2 0-1.333-.667-2-2-2z"/>
    <path style="opacity:.531" fill="#6e2bd4"
          d="M552.5 559.5c1.468 1.279 2.135 2.946 2 5 0 1.333.667 2 2 2v4c0 1.333.667 2 2 2v1h-3a46.667 46.667 0 0 0-4-12.5c.07-.765.403-1.265 1-1.5z"/>
    <path style="opacity:.129" fill="#7230d5" d="M346.5 567.5c.215 1.679-.452 2.679-2 3-.904-.709-1.237-1.709-1-3h3z"/>
    <path style="opacity:.629" fill="#6f2fd1" d="M542.5 567.5h3c.237 1.291-.096 2.291-1 3-1.548-.321-2.215-1.321-2-3z"/>
    <path style="opacity:.629" fill="#6f2ed1" d="M332.5 569.5c.934 1.068 1.268 2.401 1 4h-3c.027-1.699.694-3.033 2-4z"/>
    <path style="opacity:.129" fill="#6f38c3"
          d="M556.5 570.5c1.333 0 2 .667 2 2 0-1.333-.667-2-2-2zM344.5 574.5c0 1.333-.667 2-2 2 0-1.333.667-2 2-2z"/>
    <path style="opacity:.629" fill="#6e30cb" d="M544.5 573.5h3c.268 1.599-.066 2.932-1 4-1.306-.967-1.973-2.301-2-4z"/>
    <path style="opacity:.25" fill="#7033ce" d="M558.5 576.5c1.548.321 2.215 1.321 2 3-2.551-.168-3.218-1.168-2-3z"/>
    <path style="opacity:.522" fill="#6f28dc" d="M330.5 576.5c.904.709 1.237 1.709 1 3h-3c-.215-1.679.452-2.679 2-3z"/>
    <path style="opacity:.25" fill="#702cd7"
          d="M344.5 573.5v1c-1.333 0-2 .667-2 2 .343 1.983-.324 3.317-2 4-.543-.06-.876-.393-1-1 1.586-1.673 2.253-3.673 2-6h3z"/>
    <path style="opacity:.629" fill="#6f27dc" d="M550.5 589.5h3c.268 1.599-.066 2.932-1 4-1.306-.967-1.973-2.301-2-4z"/>
    <path style="opacity:.522" fill="#702cd7" d="M562.5 587.5c1.306.967 1.973 2.301 2 4h-3c-.268-1.599.066-2.932 1-4z"/>
    <path style="opacity:.25" fill="#712bda" d="M336.5 593.5c.215 1.679-.452 2.679-2 3-.904-.709-1.237-1.709-1-3h3z"/>
    <path style="opacity:.629" fill="#6d30cb" d="M322.5 595.5c.934 1.068 1.268 2.401 1 4h-3c.027-1.699.694-3.033 2-4z"/>
    <path style="opacity:.935" fill="#6c23db"
          d="M324.5 591.5c.624.417.957 1.084 1 2a190.863 190.863 0 0 0-3 12h-4l2-6h3c.268-1.599-.066-2.932-1-4 .027-1.699.694-3.033 2-4z"/>
    <path style="opacity:.629" fill="#702dd7" d="M552.5 595.5h3c.237 1.291-.096 2.291-1 3-1.548-.321-2.215-1.321-2-3z"/>
    <path style="opacity:.311" fill="#6a37ba" d="M566.5 598.5c1.333 0 2 .667 2 2 0-1.333-.667-2-2-2z"/>
    <path style="opacity:.531" fill="#6e2bd4"
          d="M564.5 593.5c1.468 1.279 2.135 2.946 2 5 0 1.333.667 2 2 2v4c0 1.333.667 2 2 2v1h-3a46.667 46.667 0 0 0-4-12.5c.07-.765.403-1.265 1-1.5z"/>
    <path style="opacity:.629" fill="#6f2fd1" d="M554.5 601.5h3c.237 1.291-.096 2.291-1 3-1.548-.321-2.215-1.321-2-3z"/>
    <path style="opacity:.129" fill="#6f38c3" d="M568.5 604.5c1.333 0 2 .667 2 2 0-1.333-.667-2-2-2z"/>
    <path style="opacity:.129" fill="#7230d6"
          d="M330.5 609.5c-.027 1.699-.694 3.033-2 4-.934-1.068-1.268-2.401-1-4h3z"/>
    <path style="opacity:.25" fill="#7033ce" d="M570.5 610.5c1.548.321 2.215 1.321 2 3-2.551-.168-3.218-1.168-2-3z"/>
    <path style="opacity:.629" fill="#702cd7" d="M314.5 617.5c.934 1.068 1.268 2.401 1 4h-3c.027-1.699.694-3.033 2-4z"/>
    <path style="opacity:.25" fill="#712bda" d="M326.5 619.5c.215 1.679-.452 2.679-2 3-.904-.709-1.237-1.709-1-3h3z"/>
    <path style="opacity:.629" fill="#6f27dc" d="M562.5 623.5h3c.268 1.599-.066 2.932-1 4-1.306-.967-1.973-2.301-2-4z"/>
    <path style="opacity:.522" fill="#702cd7" d="M574.5 621.5c1.306.967 1.973 2.301 2 4h-3c-.268-1.599.066-2.932 1-4z"/>
    <path style="opacity:.629" fill="#6f2ed1" d="M310.5 627.5c.934 1.068 1.268 2.401 1 4h-3c.027-1.699.694-3.033 2-4z"/>
    <path style="opacity:.25" fill="#702adb" d="M576.5 627.5c1.306.967 1.973 2.301 2 4h-3c-.268-1.599.066-2.932 1-4z"/>
    <path style="opacity:.629" fill="#702dd7" d="M564.5 629.5h3c.237 1.291-.096 2.291-1 3-1.548-.321-2.215-1.321-2-3z"/>
    <path style="opacity:.522" fill="#6f28dc" d="M308.5 634.5c.904.709 1.237 1.709 1 3h-3c-.215-1.679.452-2.679 2-3z"/>
    <path style="opacity:.25" fill="#712bda" d="M320.5 635.5c.215 1.679-.452 2.679-2 3-.904-.709-1.237-1.709-1-3h3z"/>
    <path style="opacity:.629" fill="#6f2fd1" d="M566.5 635.5h3c.237 1.291-.096 2.291-1 3-1.548-.321-2.215-1.321-2-3z"/>
    <path style="opacity:.25" fill="#7237cc" d="M318.5 642.5c0 1.333-.667 2-2 2 0-1.333.667-2 2-2z"/>
    <path style="opacity:.371" fill="#6e25db" d="M318.5 641.5v1c-1.333 0-2 .667-2 2 .343 1.983-.324 3.317-2 4v-7h4z"/>
    <path style="opacity:.522" fill="#6f27dc" d="M302.5 649.5c.934 1.068 1.268 2.401 1 4h-3c.027-1.699.694-3.033 2-4z"/>
    <path style="opacity:.129" fill="#7230d6"
          d="M314.5 651.5c-.027 1.699-.694 3.033-2 4-.934-1.068-1.268-2.401-1-4h3z"/>
    <path style="opacity:.629" fill="#6f27dc" d="M574.5 657.5h3c.268 1.599-.066 2.932-1 4-1.306-.967-1.973-2.301-2-4z"/>
    <path style="opacity:.522" fill="#702cd7" d="M586.5 655.5c1.306.967 1.973 2.301 2 4h-3c-.268-1.599.066-2.932 1-4z"/>
    <path style="opacity:.629" fill="#702cd7" d="M298.5 659.5c.934 1.068 1.268 2.401 1 4h-3c.027-1.699.694-3.033 2-4z"/>
    <path style="opacity:.25" fill="#702adb" d="M588.5 661.5c1.306.967 1.973 2.301 2 4h-3c-.268-1.599.066-2.932 1-4z"/>
    <path style="opacity:.629" fill="#702cd7" d="M576.5 663.5h3c.268 1.599-.066 2.932-1 4-1.306-.967-1.973-2.301-2-4z"/>
    <path style="opacity:.129" fill="#7230d5" d="M308.5 667.5c.215 1.679-.452 2.679-2 3-.904-.709-1.237-1.709-1-3h3z"/>
    <path style="opacity:.629" fill="#6f2ed1" d="M294.5 669.5c.934 1.068 1.268 2.401 1 4h-3c.027-1.699.694-3.033 2-4z"/>
    <path style="opacity:.129" fill="#6f38c3" d="M306.5 674.5c0 1.333-.667 2-2 2 0-1.333.667-2 2-2z"/>
    <path style="opacity:.522" fill="#6f28dc" d="M292.5 676.5c.904.709 1.237 1.709 1 3h-3c-.215-1.679.452-2.679 2-3z"/>
    <path style="opacity:.25" fill="#702cd7"
          d="M306.5 673.5v1c-1.333 0-2 .667-2 2 .343 1.983-.324 3.317-2 4-.543-.06-.876-.393-1-1 1.586-1.673 2.253-3.673 2-6h3z"/>
    <path style="opacity:.371" fill="#6e34c7" d="M582.5 681.5c2 0 3 1 3 3h-1c-1.548-.321-2.215-1.321-2-3z"/>
    <path style="opacity:.25" fill="#7133ce" d="M596.5 684.5c1.548.321 2.215 1.321 2 3-2.551-.168-3.218-1.168-2-3z"/>
    <path style="opacity:.311" fill="#6a36bd" d="M584.5 687.5c1.548.321 2.215 1.321 2 3-1.548-.321-2.215-1.321-2-3z"/>
    <path style="opacity:.25" fill="#6f2bd5"
          d="M584.5 684.5h1c1.749 3.056 2.749 6.389 3 10-1.676-.683-2.343-2.017-2-4 .215-1.679-.452-2.679-2-3v-3z"/>
    <path style="opacity:.522" fill="#702cd7" d="M598.5 690.5c1.548.321 2.215 1.321 2 3h-3c-.237-1.291.096-2.291 1-3z"/>
    <path style="opacity:.25" fill="#712bda" d="M298.5 693.5c.215 1.679-.452 2.679-2 3-.904-.709-1.237-1.709-1-3h3z"/>
    <path style="opacity:.629" fill="#6d30cb" d="M284.5 695.5c.934 1.068 1.268 2.401 1 4h-3c.027-1.699.694-3.033 2-4z"/>
    <path style="opacity:.935" fill="#6c23db"
          d="M286.5 691.5c.624.417.957 1.084 1 2a190.863 190.863 0 0 0-3 12h-4l2-6h3c.268-1.599-.066-2.932-1-4 .027-1.699.694-3.033 2-4z"/>
    <path style="opacity:.25" fill="#702adb" d="M600.5 695.5c1.306.967 1.973 2.301 2 4h-3c-.268-1.599.066-2.932 1-4z"/>
    <path style="opacity:.629" fill="#702cd7" d="M588.5 697.5h3c.268 1.599-.066 2.932-1 4-1.306-.967-1.973-2.301-2-4z"/>
    <path style="opacity:.25" fill="#7237cc" d="M296.5 700.5c0 1.333-.667 2-2 2 0-1.333.667-2 2-2z"/>
    <path style="opacity:.371" fill="#6e25db" d="M296.5 699.5v1c-1.333 0-2 .667-2 2 .343 1.983-.324 3.317-2 4v-7h4z"/>
    <path style="opacity:.129" fill="#7230d6"
          d="M292.5 709.5c-.027 1.699-.694 3.033-2 4-.934-1.068-1.268-2.401-1-4h3z"/>
    <path style="opacity:.25" fill="#7033ce" d="M592.5 709.5c2.551.168 3.218 1.168 2 3-1.548-.321-2.215-1.321-2-3z"/>
    <path style="opacity:.871" fill="#6b1fdd"
          d="M604.5 707.5c1.306.967 1.973 2.301 2 4-.934 1.068-1.268 2.401-1 4h3v3c-1.218 1.832-.551 2.832 2 3v3h-1c-2.218-3.059-3.885-6.559-5-10.5-1.003-2.346-1.003-4.513 0-6.5z"/>
    <path style="opacity:.629" fill="#6d2dcf" d="M606.5 711.5v1c0 1.333.667 2 2 2v1h-3c-.268-1.599.066-2.932 1-4z"/>
    <path style="opacity:.129" fill="#6f39c3" d="M606.5 712.5c1.333 0 2 .667 2 2 0-1.333-.667-2-2-2z"/>
    <path style="opacity:.629" fill="#6e31ca" d="M594.5 715.5h3v3h-1c-1.548-.321-2.215-1.321-2-3z"/>
    <path style="opacity:.629" fill="#702cd7" d="M276.5 717.5c.934 1.068 1.268 2.401 1 4h-3c.027-1.699.694-3.033 2-4z"/>
    <path style="opacity:.25" fill="#7133ce" d="M608.5 718.5c1.548.321 2.215 1.321 2 3-2.551-.168-3.218-1.168-2-3z"/>
    <path style="opacity:.311" fill="#6a36bd" d="M596.5 721.5c1.548.321 2.215 1.321 2 3-1.548-.321-2.215-1.321-2-3z"/>
    <path style="opacity:.25" fill="#6f2bd5"
          d="M596.5 718.5h1c1.749 3.056 2.749 6.389 3 10-1.676-.683-2.343-2.017-2-4 .215-1.679-.452-2.679-2-3v-3z"/>
    <path style="opacity:.522" fill="#702cd7" d="M609.5 724.5h1c1.548.321 2.215 1.321 2 3h-3v-3z"/>
    <path style="opacity:.629" fill="#6f2ed1" d="M272.5 727.5c.934 1.068 1.268 2.401 1 4h-3c.027-1.699.694-3.033 2-4z"/>
    <path style="opacity:.25" fill="#702adb" d="M612.5 729.5c1.306.967 1.973 2.301 2 4h-3c-.268-1.599.066-2.932 1-4z"/>
    <path style="opacity:.629" fill="#6f27dc" d="M600.5 731.5h3c.268 1.599-.066 2.932-1 4-1.306-.967-1.973-2.301-2-4z"/>
    <path style="opacity:.522" fill="#6f28dc" d="M270.5 734.5c.904.709 1.237 1.709 1 3h-3c-.215-1.679.452-2.679 2-3z"/>
    <path style="opacity:.25" fill="#712bda" d="M282.5 735.5c.215 1.679-.452 2.679-2 3-.904-.709-1.237-1.709-1-3h3z"/>
    <path style="opacity:.629" fill="#702dd7" d="M602.5 737.5h3c.237 1.291-.096 2.291-1 3-1.548-.321-2.215-1.321-2-3z"/>
    <path style="opacity:.25" fill="#7237cc" d="M280.5 742.5c0 1.333-.667 2-2 2 0-1.333.667-2 2-2z"/>
    <path style="opacity:.629" fill="#6f2fd1" d="M604.5 743.5h3c.237 1.291-.096 2.291-1 3-1.548-.321-2.215-1.321-2-3z"/>
    <path style="opacity:.871" fill="#6b1fdd"
          d="M616.5 741.5c1.306.967 1.973 2.301 2 4-.934 1.068-1.268 2.401-1 4h3v3c-1.218 1.832-.551 2.832 2 3v3h-1c-2.218-3.059-3.885-6.559-5-10.5-1.003-2.346-1.003-4.513 0-6.5z"/>
    <path style="opacity:.629" fill="#6d2dcf" d="M618.5 745.5v1c0 1.333.667 2 2 2v1h-3c-.268-1.599.066-2.932 1-4z"/>
    <path style="opacity:.129" fill="#6f39c3" d="M618.5 746.5c1.333 0 2 .667 2 2 0-1.333-.667-2-2-2z"/>
    <path style="opacity:.25" fill="#6a36bd" d="M278.5 747.5c.215 1.679-.452 2.679-2 3-.215-1.679.452-2.679 2-3z"/>
    <path style="opacity:.522" fill="#6f27dc" d="M264.5 749.5c.934 1.068 1.268 2.401 1 4h-3c.027-1.699.694-3.033 2-4z"/>
    <path style="opacity:.25" fill="#6f2dd3"
          d="M280.5 741.5v1c-1.333 0-2 .667-2 2v3c-1.548.321-2.215 1.321-2 3 .343 1.983-.324 3.317-2 4-.543-.06-.876-.393-1-1a36.208 36.208 0 0 0 4-12h3z"/>
    <path style="opacity:.25" fill="#7133ce" d="M620.5 752.5c1.548.321 2.215 1.321 2 3-2.551-.168-3.218-1.168-2-3z"/>
    <path style="opacity:.531" fill="#6d2cd0"
          d="M606.5 749.5h3c-.423 2.281.244 3.948 2 5 .284 1.915-.049 3.581-1 5v-1c.215-1.679-.452-2.679-2-3l-2-6z"/>
    <path style="opacity:.371" fill="#6b36bd" d="M608.5 755.5c1.548.321 2.215 1.321 2 3-1.548-.321-2.215-1.321-2-3z"/>
    <path style="opacity:.629" fill="#702cd7" d="M260.5 759.5c.934 1.068 1.268 2.401 1 4h-3c.027-1.699.694-3.033 2-4z"/>
    <path style="opacity:.371" fill="#6d22dd"
          d="M611.5 754.5c.904 2.138 1.571 4.471 2 7-.043.916-.376 1.583-1 2-1.306-.967-1.973-2.301-2-4 .951-1.419 1.284-3.085 1-5z"/>
    <path style="opacity:.522" fill="#702cd7" d="M621.5 758.5h1c1.548.321 2.215 1.321 2 3h-3v-3z"/>
    <path style="opacity:.25" fill="#702adb" d="M624.5 763.5c1.306.967 1.973 2.301 2 4h-3c-.268-1.599.066-2.932 1-4z"/>
    <path style="opacity:.629" fill="#6f27dc" d="M612.5 765.5h3c.268 1.599-.066 2.932-1 4-1.306-.967-1.973-2.301-2-4z"/>
    <path style="opacity:.129" fill="#7230d5" d="M270.5 767.5c.215 1.679-.452 2.679-2 3-.904-.709-1.237-1.709-1-3h3z"/>
    <path style="opacity:.629" fill="#702dd7" d="M614.5 771.5h3c.237 1.291-.096 2.291-1 3-1.548-.321-2.215-1.321-2-3z"/>
    <path style="opacity:.129" fill="#6f38c3" d="M268.5 774.5c0 1.333-.667 2-2 2 0-1.333.667-2 2-2z"/>
    <path style="opacity:.311" fill="#6a37ba" d="M628.5 774.5c1.333 0 2 .667 2 2 0-1.333-.667-2-2-2z"/>
    <path style="opacity:.531" fill="#6e2bd4"
          d="M626.5 769.5c1.468 1.279 2.135 2.946 2 5 0 1.333.667 2 2 2v4c0 1.333.667 2 2 2v1h-3a46.667 46.667 0 0 0-4-12.5c.07-.765.403-1.265 1-1.5z"/>
    <path style="opacity:.522" fill="#6f27dc" d="M254.5 775.5c.934 1.068 1.268 2.401 1 4h-3c.027-1.699.694-3.033 2-4z"/>
    <path style="opacity:.25" fill="#702cd7"
          d="M268.5 773.5v1c-1.333 0-2 .667-2 2 .343 1.983-.324 3.317-2 4-.543-.06-.876-.393-1-1 1.586-1.673 2.253-3.673 2-6h3z"/>
    <path style="opacity:.629" fill="#6f2fd1" d="M616.5 777.5h3c.237 1.291-.096 2.291-1 3-1.548-.321-2.215-1.321-2-3z"/>
    <path style="opacity:.129" fill="#6f38c3" d="M630.5 780.5c1.333 0 2 .667 2 2 0-1.333-.667-2-2-2z"/>
    <path style="opacity:.629" fill="#6e30cb" d="M618.5 783.5h3c.268 1.599-.066 2.932-1 4-1.306-.967-1.973-2.301-2-4z"/>
    <path style="opacity:.25" fill="#7033ce" d="M632.5 786.5c1.548.321 2.215 1.321 2 3-2.551-.168-3.218-1.168-2-3z"/>
    <path style="opacity:.25" fill="#712bda" d="M260.5 793.5c.215 1.679-.452 2.679-2 3-.904-.709-1.237-1.709-1-3h3z"/>
    <path style="opacity:.629" fill="#6d30cb" d="M246.5 795.5c.934 1.068 1.268 2.401 1 4h-3c.027-1.699.694-3.033 2-4z"/>
    <path style="opacity:.935" fill="#6c23db"
          d="M248.5 791.5c.624.417.957 1.084 1 2a190.863 190.863 0 0 0-3 12h-4l2-6h3c.268-1.599-.066-2.932-1-4 .027-1.699.694-3.033 2-4z"/>
    <path style="opacity:.25" fill="#7237cc" d="M258.5 800.5c0 1.333-.667 2-2 2 0-1.333.667-2 2-2z"/>
    <path style="opacity:.481" fill="#6e26dc" d="M624.5 799.5h3c.268 1.599-.066 2.932-1 4-1.306-.967-1.973-2.301-2-4z"/>
    <path style="opacity:.371" fill="#702cd7"
          d="M636.5 797.5c.709.904 1.709 1.237 3 1v3h-4c-.268-1.599.066-2.932 1-4z"/>
    <path style="opacity:.371" fill="#6e25db" d="M258.5 799.5v1c-1.333 0-2 .667-2 2 .343 1.983-.324 3.317-2 4v-7h4z"/>
    <path style="opacity:1" fill="#702cd6" d="M611.5 804.5h5v3h-5v-3z"/>
    <path style="opacity:.741" fill="#6235ab" d="M592.5 806.5h2v2c-1.333 0-2-.667-2-2z"/>
    <path style="opacity:.741" fill="#6f34ca" d="M594.5 806.5h3c-.321 1.548-1.321 2.215-3 2v-2z"/>
    <path style="opacity:1" fill="#632aba" d="M591.5 806.5h1c0 1.333.667 2 2 2-.709.904-1.709 1.237-3 1v-3z"/>
    <path style="opacity:.631" fill="#6d30cd" d="M639.5 807.5v4c-1.086-.12-1.753-.787-2-2 .247-1.213.914-1.88 2-2z"/>
    <path style="opacity:.741" fill="#6c30c7" d="M575.5 808.5h1c.667 2.667 1.333 2.667 2 0h3v3h-6v-3z"/>
    <path style="opacity:.741" fill="#6235ab" d="M576.5 808.5h2c-.667 2.667-1.333 2.667-2 0z"/>
    <path style="opacity:1" fill="#6b21db"
          d="M597.5 806.5h4c.14 1.624-.527 2.79-2 3.5-2.867.801-5.534.634-8-.5 1.291.237 2.291-.096 3-1 1.679.215 2.679-.452 3-2z"/>
    <path style="opacity:.129" fill="#7230d6"
          d="M254.5 809.5c-.027 1.699-.694 3.033-2 4-.934-1.068-1.268-2.401-1-4h3z"/>
    <path style="opacity:.5" fill="#7132d0" d="M630.5 813.5v3h-5v-3h5z"/>
    <path style="opacity:.357" fill="#622ab7" d="M630.5 814.5v-1h3v3h-1c0-1.333-.667-2-2-2z"/>
    <path style="opacity:.259" fill="#6235ab" d="M630.5 814.5c1.333 0 2 .667 2 2h-2v-2z"/>
    <path style="opacity:.5" fill="#6c22db"
          d="M617.5 815.5a18.453 18.453 0 0 0-6 .5c-.752.671-1.086 1.504-1 2.5h-3c-.17-1.322.163-2.489 1-3.5 3.196-.805 6.196-.638 9 .5z"/>
    <path style="opacity:.259" fill="#6b31c4"
          d="M617.5 815.5v3h-1c-.667-2.667-1.333-2.667-2 0h-4c-.086-.996.248-1.829 1-2.5a18.453 18.453 0 0 1 6-.5z"/>
    <path style="opacity:.5" fill="#6134a6" d="M616.5 818.5h-2c.667-2.667 1.333-2.667 2 0z"/>
    <path style="opacity:.629" fill="#702cd7" d="M238.5 817.5c.934 1.068 1.268 2.401 1 4h-3c.027-1.699.694-3.033 2-4z"/>
    <path style="opacity:1" fill="#6b2ec9" d="M511.5 816.5h1c.667 2.667 1.333 2.667 2 0h3v3h-6v-3z"/>
    <path style="opacity:.741" fill="#6b37bb" d="M512.5 816.5h2c-.667 2.667-1.333 2.667-2 0z"/>
    <path style="opacity:.5" fill="#6d23dc"
          d="M599.5 817.5c-2.534-.241-4.2.759-5 3h-3c-.17-1.322.163-2.489 1-3.5 2.539-.796 4.872-.629 7 .5z"/>
    <path style="opacity:.741" fill="#6d33c6" d="M495.5 818.5h5c-.282 1.278-.949 2.278-2 3h-3v-3z"/>
    <path style="opacity:.259" fill="#6b34c0" d="M599.5 817.5v3h-5c.8-2.241 2.466-3.241 5-3z"/>
    <path style="opacity:1" fill="#6f27db" d="M500.5 818.5h2v3h-4c1.051-.722 1.718-1.722 2-3z"/>
    <path style="opacity:.5" fill="#6d23dc"
          d="M583.5 819.5c-2.534-.241-4.2.759-5 3h-3c-.17-1.322.163-2.489 1-3.5 2.539-.796 4.872-.629 7 .5z"/>
    <path style="opacity:.741" fill="#6d33c6" d="M479.5 820.5h5c-.282 1.278-.949 2.278-2 3h-3v-3z"/>
    <path style="opacity:.259" fill="#6b34c0" d="M583.5 819.5v3h-5c.8-2.241 2.466-3.241 5-3z"/>
    <path style="opacity:1" fill="#6e26dc" d="M484.5 820.5h3v3h-5c1.051-.722 1.718-1.722 2-3z"/>
    <path style="opacity:.5" fill="#6d23dc"
          d="M567.5 821.5c-2.534-.241-4.2.759-5 3h-3c-.17-1.322.163-2.489 1-3.5 2.539-.796 4.872-.629 7 .5z"/>
    <path style="opacity:.741" fill="#6d33c6" d="M463.5 822.5h5c-.282 1.278-.949 2.278-2 3h-3v-3z"/>
    <path style="opacity:.259" fill="#6b34c0" d="M567.5 821.5v3h-5c.8-2.241 2.466-3.241 5-3z"/>
    <path style="opacity:1" fill="#6e26dc" d="M468.5 822.5h3v3h-5c1.051-.722 1.718-1.722 2-3z"/>
    <path style="opacity:.741" fill="#6d33c6" d="M447.5 824.5h5c-.282 1.278-.949 2.278-2 3h-3v-3z"/>
    <path style="opacity:.259" fill="#7029da" d="M548.5 823.5c-1.051.722-1.718 1.722-2 3h-3v-3h5z"/>
    <path style="opacity:.259" fill="#6b34c0" d="M548.5 823.5h3v3h-5c.282-1.278.949-2.278 2-3z"/>
    <path style="opacity:1" fill="#6e26dc" d="M452.5 824.5h3v3h-5c1.051-.722 1.718-1.722 2-3z"/>
    <path style="opacity:1" fill="#6b21d9"
          d="M521.5 827.5a18.453 18.453 0 0 0-6 .5c-1.256.417-1.923 1.25-2 2.5h-2v-4c3.542-.313 6.875.021 10 1z"/>
    <path style="opacity:.5" fill="#6e30cc"
          d="M535.5 828.5h-1c-.667-2.667-1.333-2.667-2 0h-4c-.086-.996.248-1.829 1-2.5a18.453 18.453 0 0 1 6-.5v3z"/>
    <path style="opacity:.741" fill="#6732b7" d="M429.5 826.5h5c-.282 1.278-.949 2.278-2 3h-3v-3z"/>
    <path style="opacity:.259" fill="#6a37b8" d="M534.5 828.5h-2c.667-2.667 1.333-2.667 2 0z"/>
    <path style="opacity:.629" fill="#6f2ed1" d="M234.5 827.5c.934 1.068 1.268 2.401 1 4h-3c.027-1.699.694-3.033 2-4z"/>
    <path style="opacity:1" fill="#6e2fcf" d="M434.5 826.5h2v3h-4c1.051-.722 1.718-1.722 2-3z"/>
    <path style="opacity:.741" fill="#6235ab" d="M414.5 828.5h2v2c-1.333 0-2-.667-2-2z"/>
    <path style="opacity:.741" fill="#7035cb" d="M416.5 828.5h4c-.683 1.676-2.017 2.343-4 2v-2z"/>
    <path style="opacity:.259" fill="#6831bd"
          d="M521.5 827.5v3h-1c-1-2.667-2-2.667-3 0h-4c.077-1.25.744-2.083 2-2.5a18.453 18.453 0 0 1 6-.5z"/>
    <path style="opacity:.5" fill="#59309c" d="M520.5 830.5h-3c1-2.667 2-2.667 3 0z"/>
    <path style="opacity:1" fill="#632aba" d="M413.5 828.5h1c0 1.333.667 2 2 2v1h-3v-3z"/>
    <path style="opacity:1" fill="#6f2ad7" d="M420.5 828.5h2v3h-6v-1c1.983.343 3.317-.324 4-2z"/>
    <path style="opacity:.741" fill="#6235ab" d="M398.5 830.5h2v2c-1.333 0-2-.667-2-2z"/>
    <path style="opacity:.741" fill="#6f34ca" d="M400.5 830.5h3c-.321 1.548-1.321 2.215-3 2v-2z"/>
    <path style="opacity:1" fill="#632aba" d="M397.5 830.5h1c0 1.333.667 2 2 2-.709.904-1.709 1.237-3 1v-3z"/>
    <path style="opacity:.741" fill="#6c30c7" d="M381.5 832.5h1c.667 2.667 1.333 2.667 2 0h3v3h-6v-3z"/>
    <path style="opacity:.741" fill="#6235ab" d="M382.5 832.5h2c-.667 2.667-1.333 2.667-2 0z"/>
    <path style="opacity:1" fill="#6b21db"
          d="M403.5 830.5h4c.14 1.624-.527 2.79-2 3.5-2.867.801-5.534.634-8-.5 1.291.237 2.291-.096 3-1 1.679.215 2.679-.452 3-2z"/>
    <path style="opacity:1" fill="#692fc2"
          d="M471.5 836.5h-1c-.667-2.667-1.333-2.667-2 0h-3c1.107-2.469 3.107-3.469 6-3v3z"/>
    <path style="opacity:1" fill="#6f28da" d="M452.5 835.5v1c-1.333 0-2 .667-2 2h-5v-3h7z"/>
    <path style="opacity:.259" fill="#6235ab" d="M470.5 836.5h-2c.667-2.667 1.333-2.667 2 0z"/>
    <path style="opacity:.522" fill="#6f28dc" d="M232.5 834.5c.904.709 1.237 1.709 1 3h-3c-.215-1.679.452-2.679 2-3z"/>
    <path style="opacity:.25" fill="#712bda" d="M244.5 835.5c.215 1.679-.452 2.679-2 3-.904-.709-1.237-1.709-1-3h3z"/>
    <path style="opacity:.357" fill="#622ab7" d="M452.5 836.5v-1h3v3h-1c0-1.333-.667-2-2-2z"/>
    <path style="opacity:1" fill="#702dd5" d="M435.5 840.5h-5c.548-2.584 2.215-3.584 5-3v3z"/>
    <path style="opacity:.259" fill="#6e36c4" d="M452.5 836.5v2h-2c0-1.333.667-2 2-2z"/>
    <path style="opacity:.259" fill="#6235ab" d="M452.5 836.5c1.333 0 2 .667 2 2h-2v-2z"/>
    <path style="opacity:.5" fill="#6c22db"
          d="M423.5 839.5a18.453 18.453 0 0 0-6 .5c-.752.671-1.086 1.504-1 2.5h-3c-.17-1.322.163-2.489 1-3.5 3.196-.805 6.196-.638 9 .5z"/>
    <path style="opacity:.259" fill="#6b31c4"
          d="M423.5 839.5v3h-1c-.667-2.667-1.333-2.667-2 0h-4c-.086-.996.248-1.829 1-2.5a18.453 18.453 0 0 1 6-.5z"/>
    <path style="opacity:.5" fill="#6134a6" d="M422.5 842.5h-2c.667-2.667 1.333-2.667 2 0z"/>
    <path style="opacity:.25" fill="#7237cc" d="M242.5 842.5c0 1.333-.667 2-2 2 0-1.333.667-2 2-2z"/>
    <path style="opacity:1" fill="#6b30c3" d="M317.5 840.5h5c-.8 2.241-2.466 3.241-5 3v-3z"/>
    <path style="opacity:.5" fill="#6d23dc"
          d="M405.5 841.5c-2.534-.241-4.2.759-5 3h-3c-.17-1.322.163-2.489 1-3.5 2.539-.796 4.872-.629 7 .5z"/>
    <path style="opacity:.741" fill="#6d33c6" d="M301.5 842.5h5c-.282 1.278-.949 2.278-2 3h-3v-3z"/>
    <path style="opacity:1" fill="#6b21dc" d="M322.5 840.5h3v4c-2.885.306-5.552-.027-8-1 2.534.241 4.2-.759 5-3z"/>
    <path style="opacity:.259" fill="#6b34c0" d="M405.5 841.5v3h-5c.8-2.241 2.466-3.241 5-3z"/>
    <path style="opacity:1" fill="#6f27db" d="M306.5 842.5h2v3h-4c1.051-.722 1.718-1.722 2-3z"/>
    <path style="opacity:.5" fill="#6d23dc"
          d="M389.5 843.5c-2.534-.241-4.2.759-5 3h-3c-.17-1.322.163-2.489 1-3.5 2.539-.796 4.872-.629 7 .5z"/>
    <path style="opacity:.741" fill="#6d33c6" d="M285.5 844.5h5c-.282 1.278-.949 2.278-2 3h-3v-3z"/>
    <path style="opacity:.75" fill="#6d22dd"
          d="M373.5 845.5c-2.534-.241-4.2.759-5 3h-4c-.14-1.624.527-2.79 2-3.5 2.539-.796 4.872-.629 7 .5z"/>
    <path style="opacity:.259" fill="#6b34c0" d="M389.5 843.5v3h-5c.8-2.241 2.466-3.241 5-3z"/>
    <path style="opacity:.531" fill="#6d29d5"
          d="M242.5 841.5v1c-1.333 0-2 .667-2 2v3a5.727 5.727 0 0 0-3 1c1.365-2.091 2.032-4.424 2-7h3z"/>
    <path style="opacity:1" fill="#6e26dc" d="M290.5 844.5h3v3h-5c1.051-.722 1.718-1.722 2-3z"/>
    <path style="opacity:.741" fill="#6d33c6" d="M269.5 846.5h5c-.282 1.278-.949 2.278-2 3h-3v-3z"/>
    <path style="opacity:.259" fill="#6b34c0" d="M373.5 845.5v3h-5c.8-2.241 2.466-3.241 5-3z"/>
    <path style="opacity:.337" fill="#6c34c3" d="M240.5 847.5v6h-3v-5a5.727 5.727 0 0 1 3-1z"/>
    <path style="opacity:1" fill="#6e26dc" d="M274.5 846.5h3v3h-5c1.051-.722 1.718-1.722 2-3z"/>
    <path style="opacity:.741" fill="#6732b7" d="M251.5 848.5h5c-.282 1.278-.949 2.278-2 3h-3v-3z"/>
    <path style="opacity:.259" fill="#7029da" d="M354.5 847.5c-1.051.722-1.718 1.722-2 3h-3v-3h5z"/>
    <path style="opacity:.259" fill="#6b34c0" d="M354.5 847.5h3v3h-5c.282-1.278.949-2.278 2-3z"/>
    <path style="opacity:1" fill="#6e2fcf" d="M256.5 848.5h2v3h-4c1.051-.722 1.718-1.722 2-3z"/>
    <path style="opacity:1" fill="#6b21d9"
          d="M327.5 851.5a18.453 18.453 0 0 0-6 .5c-1.256.417-1.923 1.25-2 2.5h-2v-4c3.542-.313 6.875.021 10 1z"/>
    <path style="opacity:1" fill="#702cd8" d="M240.5 850.5h4v3h-4v-3z"/>
    <path style="opacity:.259" fill="#6831bd"
          d="M327.5 851.5v3h-1c-1-2.667-2-2.667-3 0h-4c.077-1.25.744-2.083 2-2.5a18.453 18.453 0 0 1 6-.5z"/>
    <path style="opacity:.5" fill="#59309c" d="M326.5 854.5h-3c1-2.667 2-2.667 3 0z"/>
    <path style="opacity:.631" fill="#702ed4" d="M224.5 853.5h3a32.763 32.763 0 0 0 4 10h-3l-4-10z"/>
    <path style="opacity:1" fill="#692fc2"
          d="M293.5 858.5h-1c-.667-2.667-1.333-2.667-2 0h-3c1.107-2.469 3.107-3.469 6-3v3z"/>
    <path style="opacity:1" fill="#6f28da" d="M274.5 857.5v1c-1.333 0-2 .667-2 2h-5v-3h7z"/>
    <path style="opacity:.259" fill="#6235ab" d="M292.5 858.5h-2c.667-2.667 1.333-2.667 2 0z"/>
    <path style="opacity:.357" fill="#622ab7" d="M274.5 858.5v-1h3v3h-1c0-1.333-.667-2-2-2z"/>
    <path style="opacity:.259" fill="#6e36c4" d="M274.5 858.5v2h-2c0-1.333.667-2 2-2z"/>
    <path style="opacity:.259" fill="#6235ab" d="M274.5 858.5c1.333 0 2 .667 2 2h-2v-2z"/>
    <path style="opacity:1" fill="#6a20db"
          d="M245.5 861.5a18.453 18.453 0 0 0-6 .5c-.556.383-.889.883-1 1.5h-2v-3c3.213-.31 6.213.023 9 1z"/>
    <path style="opacity:.356" fill="#7030d1" d="M258.5 859.5v4h-5v-4h5z"/>
    <path style="opacity:.252" fill="#622ab6" d="M258.5 860.5v-1h3v3c0 .667-.333 1-1 1 .215-1.679-.452-2.679-2-3z"/>
    <path style="opacity:.259" fill="#6235ab" d="M258.5 860.5c1.548.321 2.215 1.321 2 3h-2v-3z"/>
    <path style="opacity:.71" fill="#652cbe" d="M245.5 861.5v2h-7c.111-.617.444-1.117 1-1.5a18.453 18.453 0 0 1 6-.5z"/>
</svg>