<svg xmlns="http://www.w3.org/2000/svg" width="434" height="493"
     style="shape-rendering:geometricPrecision;text-rendering:geometricPrecision;image-rendering:optimizeQuality;fill-rule:evenodd;clip-rule:evenodd">
    <path style="opacity:1" fill="#6819e0"
          d="M110.5 59.5a36565.241 36565.241 0 0 1 200 37 39.386 39.386 0 0 1-2.5 13 20621.256 20621.256 0 0 0-44.5 135 11241.235 11241.235 0 0 0 56 159c-.468 1.634-1.468 2.8-3 3.5a20222.395 20222.395 0 0 0-198 24.5c-3.451.114-5.451-1.553-6-5a5147.966 5147.966 0 0 0 63-169 11465.96 11465.96 0 0 0-69-194c2.269-.505 3.603-1.838 4-4zm3 6a22251.94 22251.94 0 0 1 191 35 8171.373 8171.373 0 0 1-44 137 3508.873 3508.873 0 0 0-79 17 399.576 399.576 0 0 1-6.5-15 17957.91 17957.91 0 0 1-61.5-174zm139 178c3.047-.645 5.213.355 6.5 3a42562.205 42562.205 0 0 0 54.5 155l-144 18.5a1054.524 1054.524 0 0 1-51 5A24552.636 24552.636 0 0 1 181 260.5a2804.448 2804.448 0 0 1 71.5-17z"/>
</svg>