<?xml version="1.0" encoding="UTF-8"?>
<!DOCTYPE svg PUBLIC "-//W3C//DTD SVG 1.1//EN" "http://www.w3.org/Graphics/SVG/1.1/DTD/svg11.dtd">
<svg xmlns="http://www.w3.org/2000/svg" version="1.1" width="434px" height="493px"
     style="shape-rendering:geometricPrecision; text-rendering:geometricPrecision; image-rendering:optimizeQuality; fill-rule:evenodd; clip-rule:evenodd"
     xmlns:xlink="http://www.w3.org/1999/xlink">
    <g>
        <path style="opacity:1" fill="#6819e0"
              d="M 110.5,59.5 C 177.199,71.6476 243.866,83.9809 310.5,96.5C 310.402,100.964 309.569,105.297 308,109.5C 293.014,154.441 278.181,199.441 263.5,244.5C 281.767,297.634 300.434,350.634 319.5,403.5C 319.032,405.134 318.032,406.3 316.5,407C 250.447,414.843 184.447,423.009 118.5,431.5C 115.049,431.614 113.049,429.947 112.5,426.5C 134.496,370.51 155.496,314.177 175.5,257.5C 153.102,192.687 130.102,128.02 106.5,63.5C 108.769,62.9954 110.103,61.6621 110.5,59.5 Z M 113.5,65.5 C 177.21,76.8875 240.877,88.5542 304.5,100.5C 290.243,146.271 275.577,191.938 260.5,237.5C 234.3,242.821 207.967,248.487 181.5,254.5C 179.244,249.575 177.078,244.575 175,239.5C 154.181,181.546 133.681,123.546 113.5,65.5 Z M 252.5,243.5 C 255.547,242.855 257.713,243.855 259,246.5C 277.072,298.215 295.238,349.882 313.5,401.5C 265.513,407.665 217.513,413.832 169.5,420C 152.506,422.083 135.506,423.75 118.5,425C 139.132,370.105 159.965,315.272 181,260.5C 204.84,254.502 228.673,248.835 252.5,243.5 Z"/>
    </g>
</svg>
