<?xml version="1.0" encoding="UTF-8"?>
<!DOCTYPE svg PUBLIC "-//W3C//DTD SVG 1.1//EN" "http://www.w3.org/Graphics/SVG/1.1/DTD/svg11.dtd">
<svg xmlns="http://www.w3.org/2000/svg" version="1.1" width="434px" height="493px"
     style="shape-rendering:geometricPrecision; text-rendering:geometricPrecision; image-rendering:optimizeQuality; fill-rule:evenodd; clip-rule:evenodd"
     xmlns:xlink="http://www.w3.org/1999/xlink">
    <g>
        <path style="opacity:1" fill="#160630"
              d="M -0.5,-0.5 C 144.167,-0.5 288.833,-0.5 433.5,-0.5C 433.5,163.833 433.5,328.167 433.5,492.5C 288.833,492.5 144.167,492.5 -0.5,492.5C -0.5,328.167 -0.5,163.833 -0.5,-0.5 Z"/>
    </g>
    <g>
        <path style="opacity:1" fill="#e0dbe9"
              d="M 110.5,59.5 C 177.216,71.6493 243.883,83.9827 310.5,96.5C 310.663,98.8568 310.497,101.19 310,103.5C 294.601,149.031 279.601,194.698 265,240.5C 264.5,241.667 263.667,242.5 262.5,243C 281.699,296.263 300.699,349.596 319.5,403C 319.223,404.892 318.223,406.225 316.5,407C 249.148,415.132 181.814,423.298 114.5,431.5C 113.64,429.184 113.14,426.851 113,424.5C 134.534,369.061 155.367,313.395 175.5,257.5C 174.847,253.039 173.68,248.706 172,244.5C 149.85,183.879 128.017,123.212 106.5,62.5C 108.973,62.9118 110.306,61.9118 110.5,59.5 Z"/>
    </g>
    <g>
        <path style="opacity:1" fill="#160630"
              d="M 113.5,65.5 C 177.198,77.0753 240.864,88.742 304.5,100.5C 290.306,146.75 275.306,192.75 259.5,238.5C 258.707,238.069 257.873,237.735 257,237.5C 231.66,243.277 206.326,248.944 181,254.5C 157.997,191.655 135.497,128.655 113.5,65.5 Z"/>
    </g>
    <g>
        <path style="opacity:1" fill="#160730"
              d="M 252.5,243.5 C 254.5,243.5 256.5,243.5 258.5,243.5C 276.428,296.282 294.761,348.948 313.5,401.5C 249.694,409.682 185.861,417.682 122,425.5C 120.833,425.167 119.667,424.833 118.5,424.5C 139.235,369.794 160.068,315.128 181,260.5C 204.79,254.345 228.623,248.679 252.5,243.5 Z"/>
    </g>
</svg>
