<?xml version="1.0" standalone="no"?>
<svg width="1695px" height="1465px" viewBox="0 0 1695 1465" version="1.1" xmlns="http://www.w3.org/2000/svg" xmlns:xlink="http://www.w3.org/1999/xlink">
    <!-- Generator: Sketch 63.1 (92452) - https://sketch.com -->
    <title>couple-date-night</title>
    <desc>Created by Webpixels.</desc>
    <g id="Page-1" stroke="none" stroke-width="1" fill="none" fill-rule="evenodd">
        <g id="couple-date-night" transform="translate(2.000000, 0.000000)">
            <polygon id="Path" fill="#283444" fill-rule="nonzero" points="1574.6 1148.9 1553 1148.9 1558.2 966 1569.4 966"></polygon>
            <path d="M1581.7,1312.8 L1545.9,1312.8 C1545.2,1312.8 1544.5,1312.8 1543.9,1312.8 C1504.9,1311.6 1476.7,1274.9 1484.5,1236.7 L1503.3,1143.9 L1624.5,1143.9 L1643.3,1236.7 C1651,1274.9 1622.9,1311.6 1583.9,1312.8 C1583,1312.8 1582.4,1312.8 1581.7,1312.8 Z" id="Path" fill="#CED5E5" fill-rule="nonzero"></path>
            <circle id="Oval" fill="#52CB96" fill-rule="nonzero" cx="1563.8" cy="865.5" r="112.7"></circle>
            <polygon id="Path" fill="#283444" fill-rule="nonzero" points="167.6 1148.9 146 1148.9 151.2 966 162.5 966"></polygon>
            <path d="M199.4,1312.8 L114.2,1312.8 C95.7,1312.8 79.9,1299.3 77.2,1281 L56.3,1143.8 L257.5,1143.8 L236.5,1281 C233.7,1299.3 217.9,1312.8 199.4,1312.8 Z" id="Path" fill="#CED5E5" fill-rule="nonzero"></path>
            <path d="M135.6,977.5 C135.6,977.5 31.5,973.4 36,895.5 C40.5,817.6 103.7,814.2 85.7,729.2 C67.7,644.2 16.4,512.6 135.6,512.6 C254.8,512.6 223.1,678 211.7,716.1 C200.4,754.1 295.6,831.3 279.7,889.1 C263.9,947 222.7,977.5 135.6,977.5 Z" id="Path" fill="#52CB96" fill-rule="nonzero"></path>
            <path d="M70.5,858.8 C70.5,858.8 56.9,862.5 55.2,878.4 C53.5,894.3 72.2,870.7 77.3,861.7" id="Path" stroke="#37B37F" stroke-width="3" stroke-linecap="round" stroke-linejoin="round"></path>
            <path d="M99,891.1 C99,891.1 89.4,905.6 92.8,920.3 C96.2,935 107.5,908.7 107.3,898.2" id="Path" stroke="#37B37F" stroke-width="3" stroke-linecap="round" stroke-linejoin="round"></path>
            <path d="M111.5,891.3 C111.5,891.3 112.3,912 119.1,915.4 C125.9,918.8 125.1,904.5 122.5,891.3" id="Path" stroke="#37B37F" stroke-width="3" stroke-linecap="round" stroke-linejoin="round"></path>
            <path d="M203.6,893.7 C203.6,893.7 198.7,910.3 207.4,917.5 C216.1,924.7 218.7,899 215.3,889.5" id="Path" stroke="#37B37F" stroke-width="3" stroke-linecap="round" stroke-linejoin="round"></path>
            <path d="M218.7,803.3 C218.7,803.3 231.6,816.9 228.9,824.1 C226.3,831.3 209.5,812.4 209.5,812.4" id="Path" stroke="#37B37F" stroke-width="3" stroke-linecap="round" stroke-linejoin="round"></path>
            <path d="M107.6,793.1 C107.6,793.1 99.3,810.6 102.3,818.7 C105.3,826.8 118.9,801.1 118.9,796.2" id="Path" stroke="#37B37F" stroke-width="3" stroke-linecap="round" stroke-linejoin="round"></path>
            <path d="M123.9,796.4 C123.9,796.4 122.9,810.9 125.2,816 C127.5,821.1 135.2,811.7 135.2,804.9 C135.2,798.1 130.7,791.3 130.7,791.3" id="Path" stroke="#37B37F" stroke-width="3" stroke-linecap="round" stroke-linejoin="round"></path>
            <path d="M193.5,681.9 C193.5,681.9 202.4,695.6 199,702.4 C195.6,709.2 183.5,686.1 183.5,686.1" id="Path" stroke="#37B37F" stroke-width="3" stroke-linecap="round" stroke-linejoin="round"></path>
            <path d="M183.5,701.3 C183.5,701.3 196.4,728.5 189.5,730.4 C182.6,732.3 172.9,709.6 172.9,709.6" id="Path" stroke="#37B37F" stroke-width="3" stroke-linecap="round" stroke-linejoin="round"></path>
            <path d="M117,710.4 C117,710.4 107.9,725.5 108.7,733.1 C109.5,740.7 129.5,723.3 129.5,718" id="Path" stroke="#37B37F" stroke-width="3" stroke-linecap="round" stroke-linejoin="round"></path>
            <path d="M87.5,618.1 C87.5,618.1 74.6,631 78.4,640.8 C82.2,650.6 93.1,626.8 95,620" id="Path" stroke="#37B37F" stroke-width="3" stroke-linecap="round" stroke-linejoin="round"></path>
            <path d="M133.3,618.1 C133.3,618.1 129.9,633.8 133.3,644.3 C136.7,654.8 141.9,641.3 141.9,633.1 C141.9,624.9 141.2,619.8 141.2,619.8" id="Path" stroke="#37B37F" stroke-width="3" stroke-linecap="round" stroke-linejoin="round"></path>
            <path d="M172.9,613.6 C172.9,613.6 173.4,620.8 181,627.9 C188.6,635 185.5,620.7 184.8,616.7 C184.1,612.7 178.4,606.5 178.4,606.5" id="Path" stroke="#37B37F" stroke-width="3" stroke-linecap="round" stroke-linejoin="round"></path>
            <path d="M95.1,546.7 C95.1,546.7 83.9,557.8 86.4,564 C88.9,570.2 104.8,553.8 104.8,553.8" id="Path" stroke="#37B37F" stroke-width="3" stroke-linecap="round" stroke-linejoin="round"></path>
            <path d="M134,541.9 C134,541.9 134.6,553.8 141.8,559.5 C149,565.2 147,544.5 144.2,539.7" id="Path" stroke="#37B37F" stroke-width="3" stroke-linecap="round" stroke-linejoin="round"></path>
            <path d="M114.2,577.9 C114.2,577.9 108.8,590.7 111.6,596.6 C114.4,602.5 123.2,588.1 122.7,581" id="Path" stroke="#37B37F" stroke-width="3" stroke-linecap="round" stroke-linejoin="round"></path>
            <path d="M164,853.4 C164,853.4 160.1,871.8 161.8,878.3 C163.5,884.8 175.7,869.8 172.9,853.1" id="Path" stroke="#37B37F" stroke-width="3" stroke-linecap="round" stroke-linejoin="round"></path>
            <g id="Group" transform="translate(0.000000, 1312.000000)" stroke="#CED5E5" stroke-linecap="round" stroke-linejoin="round" stroke-width="3">
                <line x1="382.2" y1="0.8" x2="743.3" y2="0.8" id="Path"></line>
                <line x1="991.4" y1="0.8" x2="1120.4" y2="0.8" id="Path"></line>
                <line x1="0.1" y1="0.8" x2="351.9" y2="0.8" id="Path"></line>
                <line x1="1156.3" y1="0.8" x2="1691.3" y2="0.8" id="Path"></line>
            </g>
            <path d="M872.7,817.1 C872.7,817.1 572.3,619.4 460,487.8 C347.7,356.2 335.8,131.7 516.1,77.3 C696.4,22.9 791.1,152.1 807.5,220.2 C807.5,220.2 900.5,-75.7 1181.1,19.5 C1461.7,114.7 1291.5,425.6 1245.6,483.6 C1199.7,541.6 872.7,817.1 872.7,817.1 Z" id="Path" fill="#FFB3DA" fill-rule="nonzero"></path>
            <g id="Group" transform="translate(800.000000, 564.000000)" fill-rule="nonzero">
                <path d="M44.3,114.3 C44.2,113.5 43.4,112.9 42.6,113 L33.8,114.2 L28.7,64.9 C39.4,60.6 43.8,34.3 38,0.5 L0.7,3.3 C0.7,3.3 1.6,51.5 18,62.8 C20.8,64.7 23.4,65.6 25.8,65.5 L30.9,114.6 L22,115.8 C21.2,115.9 20.6,116.7 20.7,117.5 C20.8,118.3 21.4,118.8 22.2,118.8 C22.3,118.8 22.3,118.8 22.4,118.8 L43.1,116 C43.9,115.9 44.5,115.2 44.3,114.3 Z" id="Path" fill="#FFFFFF"></path>
                <path d="M4.2,23.7 L38.8,20 C38.8,20 40.4,60.3 27.3,62.7 C14.2,65 6.7,44.2 4.2,23.7 Z" id="Path" fill="#ED85C3"></path>
            </g>
            <g id="Group" transform="translate(841.000000, 549.000000)" fill-rule="nonzero">
                <path d="M23.8,118.6 C23.7,117.8 24.3,117 25.1,116.9 L33.9,115.8 L26.2,66.8 C14.8,65.4 3.8,41.1 0.7,6.9 L37.5,0.1 C37.5,0.1 49,47 36,62 C33.8,64.6 31.5,66.1 29.2,66.6 L36.8,115.4 L45.7,114.3 C46.5,114.2 47.3,114.8 47.4,115.6 C47.5,116.4 47,117 46.3,117.2 C46.2,117.2 46.2,117.2 46.1,117.2 L25.4,119.8 C24.7,120 23.9,119.5 23.8,118.6 Z" id="Path" fill="#FFFFFF"></path>
                <path d="M39.4,20.8 L5,26.1 C5,26.1 13.8,65.5 27.1,64.4 C40.4,63.2 42.3,41.2 39.4,20.8 Z" id="Path" fill="#ED85C3"></path>
            </g>
            <path d="M712.9,1336.5 C712.9,1336.5 779.3,1099.7 765.7,1080 C752.1,1060.3 677.3,1051.7 677.3,1051.7 L645,1121.4 L726.6,1121.6 C691.7,1135.2 688.9,1329.1 688.9,1329.1 L683.6,1362.4 C683.6,1362.4 714.6,1395.2 737.3,1402.1 C737.3,1402.1 769.4,1402.8 757.4,1394.4 C736.3,1379.8 715.7,1359.8 712.9,1336.5 Z" id="Path" fill="#FFDFD7" fill-rule="nonzero"></path>
            <polygon id="Path" fill="#FFDFD7" fill-rule="nonzero" points="983.8 1349.5 983.8 1379 972.1 1395.2 943.5 1392 937.1 1378.6 934.8 1331.3 976.4 1340.2"></polygon>
            <path d="M856.8,1412.1 C856.8,1412.1 872.6,1368.6 944.3,1379.6 C944.3,1379.6 974.6,1387.3 984.9,1378 C984.9,1378 989.7,1396 988,1410.7 C988.1,1410.8 896.8,1421.7 856.8,1412.1 Z" id="Path" fill="#283444" fill-rule="nonzero"></path>
            <rect id="Rectangle" fill="#CED5E5" fill-rule="nonzero" x="859.7" y="935.8" width="28.4" height="462"></rect>
            <path d="M964.3,1416.1 L783.6,1416.1 L783.6,1416.1 C783.6,1405.5 792.2,1396.8 802.9,1396.8 L945.1,1396.8 C955.7,1396.8 964.3,1405.4 964.3,1416.1 L964.3,1416.1 Z" id="Path" fill="#CED5E5" fill-rule="nonzero"></path>
            <path d="M868.3,1396.4 L850.6,1379.7 C850.6,1379.7 775.1,1122.8 764,1108.3 C752.9,1093.8 690.9,1054.7 690.9,1054.7 C661.1,1076 661.1,1122.7 661.1,1122.7 L730.4,1164.5 C741.5,1229.8 806.6,1340 825.4,1372.3 C826.4,1374 823.3,1376.7 824,1377.8 C825.2,1379.8 825.4,1382.1 825.4,1382.1 L834.8,1395.8 C834.8,1395.8 856.6,1412.2 876.8,1419.3 C883.9,1421.8 893,1422.3 897.2,1419.7 C897.1,1419.7 889.6,1412 868.3,1396.4 Z" id="Path" fill="#FFDFD7" fill-rule="nonzero"></path>
            <path d="M1081.3,937.4 L662.1,937.4 C652.6,937.4 644.9,929.7 644.9,920.2 L644.9,911.1 C644.9,901.6 652.6,893.9 662.1,893.9 L1081.3,893.9 C1090.8,893.9 1098.5,901.6 1098.5,911.1 L1098.5,920.2 C1098.5,929.7 1090.8,937.4 1081.3,937.4 Z" id="Path" fill="#283444" fill-rule="nonzero"></path>
            <polygon id="Path" fill="#FFDFD7" fill-rule="nonzero" points="621.9 702.3 710.7 829.8 785 697.6 808.8 711.2 724.9 878.4 703.3 878.4 613.2 758.1"></polygon>
            <path d="M457.9,1133.6 L404.6,1133.6 L377.8,715.8 C376.1,689.7 395.4,666.9 421.4,664.2 L421.4,664.2 C439.8,664.2 456.7,670.6 470.1,681.3 C490.7,697.9 501.1,724.1 498.3,750.4 L457.9,1133.6 Z" id="Path" fill="#CED5E5" fill-rule="nonzero"></path>
            <path d="M592.8,1072.5 L404.5,1085.9 L404.5,1133.5 L650,1133.5 L650,1125.8 C650,1094.8 623.8,1070.3 592.8,1072.5 Z" id="Path" fill="#CED5E5" fill-rule="nonzero"></path>
            <polygon id="Path" fill="#283444" fill-rule="nonzero" points="426.7 1407.4 399.5 1407.4 420.4 1133.6 447.7 1133.6"></polygon>
            <polygon id="Path" fill="#283444" fill-rule="nonzero" points="624 1407.4 651.2 1407.4 630.2 1133.6 603 1133.6"></polygon>
            <path d="M1262.8,1133.6 L1316.1,1133.6 L1342.9,715.8 C1344.6,689.7 1325.3,666.9 1299.3,664.2 L1299.3,664.2 C1280.9,664.2 1264,670.6 1250.6,681.3 C1230,697.9 1219.6,724.1 1222.4,750.4 L1262.8,1133.6 Z" id="Path" fill="#CED5E5" fill-rule="nonzero"></path>
            <path d="M744.4,1212.2 C738.6,1196.3 732.5,1177 730.4,1164.6 L707.6,1150.9" id="Path" stroke="#FFFFFF" stroke-width="3" stroke-linecap="round" stroke-linejoin="round"></path>
            <path d="M768.6,1118.1 C766.6,1113 765,1109.6 764,1108.4 C757.9,1100.4 736.2,1084.9 718,1072.6" id="Path" stroke="#FFFFFF" stroke-width="3" stroke-linecap="round" stroke-linejoin="round"></path>
            <path d="M1127.8,1072.5 L1316.1,1085.9 L1316.1,1133.5 L1070.6,1133.5 L1070.6,1125.8 C1070.6,1094.8 1096.9,1070.3 1127.8,1072.5 Z" id="Path" fill="#CED5E5" fill-rule="nonzero"></path>
            <polygon id="Path" fill="#283444" fill-rule="nonzero" points="1294 1407.4 1321.2 1407.4 1300.2 1133.6 1273 1133.6"></polygon>
            <polygon id="Path" fill="#283444" fill-rule="nonzero" points="1096.7 1407.4 1069.5 1407.4 1090.4 1133.6 1117.7 1133.6"></polygon>
            <polygon id="Path" fill="#FFDFD7" fill-rule="nonzero" points="1125.2 1375.8 1132.4 1402.2 1127.4 1420.4 1097.7 1426.5 1087.3 1413.1 1070.3 1363.9 1114.6 1360.9"></polygon>
            <path d="M808.2,864.8 C808.2,864.8 837.9,861.5 853.2,863 C868.5,864.5 882,880.6 882,880.6 C882,880.6 889.6,893.9 869.4,893.9 C849.2,893.9 813.3,893.9 813.3,893.9 L808.2,864.8 Z" id="Path" fill="#FFDFD7" fill-rule="nonzero"></path>
            <path d="M645.3,534.5 C645.3,534.5 664.2,599.9 657.4,619.2 C650.6,638.5 646.4,648.7 603.7,640.7 C561,632.8 558.3,610.5 558.3,610.5 C558.3,610.5 546.2,565.5 567,544 C587.9,522.4 620.8,522 645.3,534.5 Z" id="Path" fill="#FFDFD7" fill-rule="nonzero"></path>
            <path d="M615.5,983.9 C615.5,983.9 617.9,967.6 622.6,932.2 C630.3,874.5 640.1,794.1 638.5,770.4 C635.9,732.1 618.5,679.3 618.5,679.3 L585,669 C585,669 537,737.6 523.3,779.3 C513.3,809.8 497.5,904 489.7,952.4 L489.7,952.4 C489.7,952.4 474.3,1015.7 474.9,1029.9 C475.5,1045.2 467.1,1064.8 547.5,1103.1 C632,1143.3 662.6,1207.8 662.6,1207.8 C662.6,1207.8 701.2,1109.3 730.5,1044.8 L615.5,983.9 Z" id="Path" fill="#FE8163" fill-rule="nonzero"></path>
            <path d="M942,677.4 C942,677.4 932,663.1 928.2,655.5 C920.3,639.8 901.6,615.1 877.7,614 C847.6,612.6 855.8,639 856.2,641.5 C856.5,642.9 858,654 861.1,655.8 C864.2,657.6 882.1,647.3 890.8,660.3 C904.3,680.6 911.4,682.4 911.4,682.4 L942,677.4 Z" id="Path" fill="#FFDFD7" fill-rule="nonzero"></path>
            <path d="M903.8,850.5 C903.8,850.5 876,846.9 857.4,849 C838.8,851.1 822.9,875.7 822.9,875.7 C822.9,875.7 813.7,894.1 838.2,894.1 C862.7,894.1 906.7,891.4 906.7,891.4 L903.8,850.5 Z" id="Path" fill="#FFDFD7" fill-rule="nonzero"></path>
            <path d="M903.8,850.5 C903.8,850.5 876,846.9 857.4,849 C838.8,851.1 822.9,875.7 822.9,875.7 C822.9,875.7 813.7,894.1 838.2,894.1" id="Path" stroke="#FFFFFF" stroke-width="3" stroke-linecap="round" stroke-linejoin="round"></path>
            <path d="M609.4,641.7 L618.5,679.3 C618.5,679.3 609.4,681.8 598.6,679.3 C587.8,676.8 585,669 585,669 L586,635.9" id="Path" fill="#FFDFD7" fill-rule="nonzero"></path>
            <path d="M645.3,534.5 C645.3,534.5 637.4,506.5 609,499.4 C580.7,492.2 561.4,499 550.8,507.3 C540.2,515.6 526.2,532.2 525.5,544.7 C524.7,557.2 538.4,565.1 534.6,572.7 C530.8,580.3 505.1,588.6 510,603.7 C514.9,618.8 530,623.7 521.3,634.3 C512.6,644.9 497.1,649 499.4,666 C501.7,683 514.9,687.2 514.9,687.2 L573.9,691 C573.9,691 590.2,672.7 588.3,662.8 C586.4,653 583.6,641.6 592.5,629 C601.4,616.3 589.9,594.6 588.2,581.9 C586.5,569.2 594.2,553.2 611.4,551.9 C628.5,550.6 640.4,548.9 645.3,534.5 Z" id="Path" fill="#5900CC" fill-rule="nonzero"></path>
            <path d="M567.7,781.4 L664.5,894 L814.5,894 L808.3,864.8 L677.3,862 L607.2,759.9 C598,746.4 578.5,745.4 567.8,757.7 L567.8,757.7 C561.9,764.6 561.9,774.6 567.7,781.4 Z" id="Path" fill="#FFDFD7" fill-rule="nonzero"></path>
            <path d="M1109.8,980.5 C1109.8,980.5 962.4,1035.1 927.2,1072.4 C892.1,1109.7 929.1,1348.4 929.1,1348.4 C929.1,1348.4 965.2,1359.9 988.4,1355.2 L983.9,1118.8 L1149.2,1054.7 C1149.2,1054.7 1237.4,1032 1245.3,1010.5 L1109.8,980.5 Z" id="Path" fill="#283444" fill-rule="nonzero"></path>
            <path d="M1167.3,994.8 C1167.3,994.8 1036.2,1043.9 1006.4,1068.4 C976.6,1093 985.5,1121.8 993.2,1152.4 C1000.9,1183 1067.6,1380.7 1067.6,1380.7 C1067.6,1380.7 1117.1,1379.6 1131.9,1373.9 L1063.5,1111.7 C1063.5,1111.7 1203,1093.8 1228.5,1076.8 C1254,1059.8 1245.9,998 1245.9,998 L1167.3,994.8 Z" id="Path" fill="#283444" fill-rule="nonzero"></path>
            <path d="M1015.7,1464.1 C1015.7,1464.1 1021.2,1418.2 1093.5,1412.5 C1093.5,1412.5 1124.8,1413.1 1132.7,1401.7 C1132.7,1401.7 1141.5,1418.1 1143.20009,1432.9 C1143.3,1432.9 1056.8,1464.4 1015.7,1464.1 Z" id="Path" fill="#283444" fill-rule="nonzero"></path>
            <path d="M489.7,952.3 C489.7,952.3 578.1,945 618,966.1 L620.2,950.1 C620.2,950.1 594.9,939.2 552.3,936.8 C528.7,935.5 492.3,936.8 492.3,936.8 L489.7,952.3 Z" id="Path" fill="#5900CC" fill-rule="nonzero"></path>
            <path d="M1193.4,623.7 C1193.4,623.7 1228.9,667 1238,720.3 C1247.1,773.6 1245.9,991.9 1245.4,1010.6 C1245.4,1010.6 1143.9,1012.9 1109.9,980.6 C1109.9,980.6 1099.7,794.6 1104.8,745.9 C1104.8,745.9 1035.8,867.2 1009.7,870.6 C983.6,874 967.7,844 955.8,815 C943.9,786.1 902.5,686.9 902.5,686.9 C902.5,686.9 921.3,675.6 943.9,674.4 L1005.7,804.2 C1005.7,804.2 1091.2,652.5 1133.1,627.7 L1193.4,623.7 Z" id="Path" fill="#FFC933" fill-rule="nonzero"></path>
            <path d="M1165,714.6 L1065.6,837.9 L903.5,846.4 L906.9,894 L1060.2,892.8 C1060.2,892.8 1094,891.7 1117.5,861.1 C1141,830.5 1206.3,760.6 1206.3,760.6 L1165,714.6 Z" id="Path" fill="#FFC933" fill-rule="nonzero"></path>
            <path d="M1104.7,475.4 C1104.7,475.4 1090.2,567.5 1101.6,584.8 C1112.9,602.1 1182.4,572.9 1182.4,572.9 C1182.4,572.9 1216.1,556.5 1216.1,543.1 C1216.1,529.8 1228.6,475.6 1189.7,459.2 C1150.9,442.8 1110.7,455.2 1104.7,475.4 Z" id="Path" fill="#FFDFD7" fill-rule="nonzero"></path>
            <path d="M1138,584.2 L1133.1,627.7 C1133.1,627.7 1151.8,635.3 1166.4,632.6 C1181,630 1191,627.7 1193.4,623.7 C1195.8,619.7 1197,562.7 1197,562.7 L1138,584.2 Z" id="Path" fill="#FFDFD7" fill-rule="nonzero"></path>
            <path d="M1141.6,483.3 C1141.6,483.3 1097.8,480.3 1097.3,460.2 C1096.8,440.1 1107.4,430.2 1120.8,429 C1134.2,427.9 1153.7,431.5 1158.8,437.5 C1158.8,437.5 1173.4,425.6 1193,433.5 C1212.6,441.4 1216.8,452.4 1217.4,456 C1218,459.6 1216.1,473.8 1212.7,477.6 C1212.7,477.6 1232.4,485.7 1233.5,502 C1234.6,518.3 1230.7,544.5 1218.1,554.7 C1218.1,554.7 1219.7,565.5 1215,569.3 C1210.3,573.1 1203.3,578.6 1196.7,577.8 C1190.1,577 1178.2,537.9 1178.2,537.9 C1178.2,537.9 1191.6,519.2 1183.1,501.8 C1174.6,484.4 1162.5,485.5 1157.8,491.4 C1153.1,497.3 1156.7,525.8 1156.7,525.8 L1144,526 L1141.6,483.3 Z" id="Path" fill="#283444" fill-rule="nonzero"></path>
            <path d="M906.9,894 L1060.2,892.8 C1060.2,892.8 1094,891.7 1117.5,861.1 C1141,830.5 1206.3,760.6 1206.3,760.6" id="Path" stroke="#FEAC00" stroke-width="3" stroke-linecap="round" stroke-linejoin="round"></path>
            <polyline id="Path" stroke="#FEAC00" stroke-width="3" stroke-linecap="round" stroke-linejoin="round" points="1165 714.6 1103.3 791.1 1104.7 745.8 1106.7 714.6"></polyline>
            <path d="M1114,1015.8 C1074.1,1032.1 1023.5,1054.3 1006.4,1068.4 C976.6,1093 985.5,1121.8 993.2,1152.4 C1000.9,1183 1067.6,1380.7 1067.6,1380.7 C1067.6,1380.7 1117.1,1379.6 1131.9,1373.9" id="Path" stroke="#141B25" stroke-width="5" stroke-linecap="round" stroke-linejoin="round"></path>
            <path d="M489.7,952.3 L489.7,952.3 C489.7,952.3 474.3,1015.6 474.9,1029.8 C475.5,1045.1 467.1,1064.7 547.5,1103 C632,1143.2 662.6,1207.7 662.6,1207.7" id="Path" stroke="#FEAC00" stroke-width="3" stroke-linecap="round" stroke-linejoin="round"></path>
            <polyline id="Path" stroke="#FFFFFF" stroke-width="3" stroke-linecap="round" stroke-linejoin="round" points="677.3 862 808.2 864.8 833.5 862.7"></polyline>
            <path d="M785,697.6 C785,697.6 787.4,689.2 788.5,680.7 C790.9,663.3 795.8,637.8 818.1,629.1 C846.2,618.1 846.9,645.7 847.3,648.3 C847.5,649.7 849.6,660.7 847.3,663.4 C845,666.1 824.6,662.1 820.7,677.2 C814.5,700.7 808.8,711.2 808.8,711.2 L785,697.6 Z" id="Path" fill="#FFDFD7" fill-rule="nonzero"></path>
            <path d="M686.5,1344.1 C686.5,1344.1 677.7,1353.1 677.7,1365 C677.7,1376.9 683.2,1404.1 683.2,1404.1 L687.7,1404 L687.7,1376.1 C687.7,1376.1 696.9,1380.2 706.9,1388.8 C712.7,1393.9 717.8,1400.3 725,1404.7 C737.3,1412.3 758.4,1411.6 767.8,1410.6 C782.7,1409 757.4,1394.6 757.4,1394.6 C757.4,1394.6 749.5,1396.6 738.1,1392.5 C716,1384.5 682.3,1365.1 686.5,1344.1 Z" id="Path" fill="#FF562F" fill-rule="nonzero"></path>
            <path d="M824.6,1371.5 C821.9,1374.6 817.4,1381.5 817.4,1390.2 C817.4,1402.1 822.9,1429.3 822.9,1429.3 L827.4,1429.2 L827.4,1401.3 C827.4,1401.3 836.6,1405.4 846.6,1414 C852.4,1419.1 857.5,1425.5 864.7,1429.9 C877,1437.5 898.1,1436.8 907.5,1435.8 C922.4,1434.2 897.1,1419.8 897.1,1419.8 C897.1,1419.8 889.2,1421.8 877.8,1417.7 C857.8,1410.5 828.2,1393.9 826,1375.2 C825.7,1373.2 825,1371.1 824.6,1371.5 Z" id="Path" fill="#FF562F" fill-rule="nonzero"></path>
            <path d="M1502.6,885.5 C1502.6,893.5 1498.3,900 1493.1,900 C1487.9,900 1483.6,893.5 1483.6,885.5" id="Path" stroke="#37B37F" stroke-width="3" stroke-linecap="round" stroke-linejoin="round"></path>
            <path d="M1551.6,849.9 C1551.6,856.7 1548,862.2 1543.6,862.2 C1539.2,862.2 1535.6,856.7 1535.6,849.9" id="Path" stroke="#37B37F" stroke-width="3" stroke-linecap="round" stroke-linejoin="round"></path>
            <path d="M1620.6,917.7 C1620.6,924.5 1617,930 1612.6,930 C1608.2,930 1604.6,924.5 1604.6,917.7" id="Path" stroke="#37B37F" stroke-width="3" stroke-linecap="round" stroke-linejoin="round"></path>
            <path d="M1572.4,789.4 C1572.4,796.2 1568.8,801.7 1564.4,801.7 C1560,801.7 1556.4,796.2 1556.4,789.4" id="Path" stroke="#37B37F" stroke-width="3" stroke-linecap="round" stroke-linejoin="round"></path>
            <path d="M1590.5,893.1 C1590.5,900.8 1586.4,907 1581.4,907 C1576.4,907 1572.3,900.8 1572.3,893.1" id="Path" stroke="#37B37F" stroke-width="3" stroke-linecap="round" stroke-linejoin="round"></path>
            <path d="M1544.6,915.3 C1544.6,924.7 1539.6,932.4 1533.4,932.4 C1527.2,932.4 1522.2,924.8 1522.2,915.3" id="Path" stroke="#37B37F" stroke-width="3" stroke-linecap="round" stroke-linejoin="round"></path>
            <path d="M1609.3,818.7 C1609.3,828.1 1604.3,835.8 1598.1,835.8 C1591.9,835.8 1586.9,828.2 1586.9,818.7" id="Path" stroke="#37B37F" stroke-width="3" stroke-linecap="round" stroke-linejoin="round"></path>
            <path d="M1638.1,865.6 C1638.1,873.8 1633.8,880.4 1628.4,880.4 C1623,880.4 1618.7,873.8 1618.7,865.6" id="Path" stroke="#37B37F" stroke-width="3" stroke-linecap="round" stroke-linejoin="round"></path>
            <path d="M1522.3,818.7 C1522.3,826.9 1518,833.5 1512.6,833.5 C1507.3,833.5 1502.9,826.9 1502.9,818.7" id="Path" stroke="#37B37F" stroke-width="3" stroke-linecap="round" stroke-linejoin="round"></path>
        </g>
    </g>
</svg>