<?xml version="1.0" standalone="no"?>
<svg width="1844px" height="1408px" viewBox="0 0 1844 1408" version="1.1" xmlns="http://www.w3.org/2000/svg" xmlns:xlink="http://www.w3.org/1999/xlink">
    <!-- Generator: Sketch 63.1 (92452) - https://sketch.com -->
    <title>couple-tv-time</title>
    <desc>Created by Webpixels.</desc>
    <g id="Page-1" stroke="none" stroke-width="1" fill="none" fill-rule="evenodd">
        <g id="couple-tv-time">
            <rect id="Rectangle" fill="#CED5E5" fill-rule="nonzero" opacity="0.2" x="384.5" y="90" width="377.8" height="234.7"></rect>
            <line x1="117.6" y1="426.5" x2="117.6" y2="1219.6" id="Path" stroke="#CED5E5" stroke-width="5" stroke-linecap="round" stroke-linejoin="round"></line>
            <line x1="57.4" y1="1219.6" x2="177.7" y2="1219.6" id="Path" stroke="#CED5E5" stroke-width="5" stroke-linecap="round" stroke-linejoin="round"></line>
            <polyline id="Path" stroke="#F1F2F7" stroke-width="3" stroke-linecap="round" stroke-linejoin="round" points="505.7 69.6 572.6 2.7 641 71"></polyline>
            <path d="M1683.5,625 C1683.5,625 1499,515.8 1438.1,392.9 C1377.2,269.9 1522.7,344.8 1595.1,455.5 C1682.8,589.3 1683.5,625 1683.5,625 Z" id="Path" fill="#52CB96" fill-rule="nonzero"></path>
            <path d="M1680.6,626.6 C1680.6,626.6 1564.2,341.6 1605,273.5 C1645.8,205.5 1692.3,265.3 1699.1,296.1 C1706,326.8 1710.1,437.2 1680.6,626.6 Z" id="Path" fill="#52CB96" fill-rule="nonzero"></path>
            <path d="M1683.5,696.4 C1683.5,696.4 1732,450.6 1800.9,429.4 C1869.8,408.1 1843.4,509.3 1800.9,569.7 C1758.3,630.1 1683.5,696.4 1683.5,696.4 Z" id="Path" fill="#52CB96" fill-rule="nonzero"></path>
            <line x1="1585.1" y1="1171.4" x2="1821.8" y2="1171.4" id="Path" stroke="#CED5E5" stroke-width="5" stroke-linecap="round" stroke-linejoin="round"></line>
            <line x1="1453.9" y1="1171.4" x2="1551.4" y2="1171.4" id="Path" stroke="#CED5E5" stroke-width="5" stroke-linecap="round" stroke-linejoin="round"></line>
            <path d="M1168.7,232.5 C1168.7,232.5 1095.8,175.5 1107.3,125.1 C1119.5,71.7 1165.5,97.3 1168.7,136.4 C1168.7,136.4 1183.4,83.1 1219.4,103.7 C1281.2,139 1168.7,232.5 1168.7,232.5 Z" id="Path" fill="#FE8163" fill-rule="nonzero"></path>
            <path d="M1052.4,282.7 C1052.4,282.7 985.6,269.7 976.3,232.9 C966.4,193.9 1005.1,195.2 1020.3,219.8 C1020.3,219.8 1012.1,180 1042.6,181.4 C1094.8,183.8 1052.4,282.7 1052.4,282.7 Z" id="Path" fill="#FE8163" fill-rule="nonzero"></path>
            <path d="M1264.6,279 C1264.6,279 1250.5,222.2 1275.8,201.6 C1302.7,179.7 1315.7,210.4 1302,231.2 C1302,231.2 1330.1,210.3 1340,234.7 C1357.1,276.3 1264.6,279 1264.6,279 Z" id="Path" fill="#FE8163" fill-rule="nonzero"></path>
            <path d="M276.6,821.7 C276.6,821.7 272.3,987 266.5,1010 L1476.9,1010 L1476.9,830.3 L276.6,821.7 Z" id="Path" fill="#F1F2F7" fill-rule="nonzero"></path>
            <path d="M266.4,1010.1 C266.4,1010.1 248.9,1036.3 248.9,1061.7 C248.9,1087.1 251,1123.3 290.2,1123.8 C329.4,1124.3 1448.9,1123.8 1448.9,1123.8 C1448.9,1123.8 1486.1,1121.8 1488.1,1085.6 C1490.1,1049.4 1489.1,1027.4 1480.4,1006.2 L266.4,1010.1 Z" id="Path" fill="#F1F2F7" fill-rule="nonzero"></path>
            <path d="M294.7,1123.8 L294.7,1243.7 C294.7,1262.3 309.8,1277.4 328.4,1277.4 L1402.4,1277.4 C1421,1277.4 1436.1,1262.3 1436.1,1243.7 L1436.1,1123.8 L294.7,1123.8 Z" id="Path" fill="#F1F2F7" fill-rule="nonzero"></path>
            <path d="M320.3,851.5 C320.3,851.5 290.4,615.3 327.9,570.7 C365.4,526.1 384.8,500.8 540.4,497.8 C696,494.8 1242.4,491.9 1343.8,497.8 C1445.2,503.7 1477.1,576.6 1471.6,679.2 C1466,781.8 1471.3,851.5 1471.3,851.5 L320.3,851.5 Z" id="Path" fill="#F1F2F7" fill-rule="nonzero"></path>
            <path d="M405.2,1317.9 L342,1317.9 C333.9,1317.9 327.4,1311.4 327.4,1303.3 L327.4,1297.6 C327.4,1289.5 333.9,1283 342,1283 L405.2,1283 C413.3,1283 419.8,1289.5 419.8,1297.6 L419.8,1303.3 C419.8,1311.3 413.3,1317.9 405.2,1317.9 Z" id="Path" fill="#CED5E5" fill-rule="nonzero"></path>
            <path d="M1385,1317.9 L1321.8,1317.9 C1313.7,1317.9 1307.2,1311.4 1307.2,1303.3 L1307.2,1297.6 C1307.2,1289.5 1313.7,1283 1321.8,1283 L1385,1283 C1393.1,1283 1399.6,1289.5 1399.6,1297.6 L1399.6,1303.3 C1399.6,1311.3 1393.1,1317.9 1385,1317.9 Z" id="Path" fill="#CED5E5" fill-rule="nonzero"></path>
            <line x1="320.3" y1="851.5" x2="1471.3" y2="851.5" id="Path" stroke="#CED5E5" stroke-width="3" stroke-linecap="round" stroke-linejoin="round"></line>
            <path d="M1059.2,547.9 C1059.2,547.9 935.2,565.4 887.6,594.2 L907.4,616.3 L1054.8,587.9 C1137.6,597.8 1207.9,617.1 1207.9,617.1 L1243.3,575.7 C1158,557.3 1059.2,547.9 1059.2,547.9 Z" id="Path" fill="#FFFFFF" fill-rule="nonzero"></path>
            <path d="M889,595.8 C889,595.8 869.5,618.7 867.6,634.2 C865.8,649.7 874,646.2 874,646.2 L906,614.7 L889,595.8 Z" id="Path" fill="#FFDFD7" fill-rule="nonzero"></path>
            <path d="M605.7,699.8 C605.7,699.8 604.6,688.3 615,683.8 C625.3,679.3 654.1,672.5 679.4,680.4 L691.5,696.5 L672.1,707.7 L660.1,707.1 C660.1,707.1 645.5,709.3 635,707.7 C624.5,706.1 605.7,699.8 605.7,699.8 Z" id="Path" fill="#FFDFD7" fill-rule="nonzero"></path>
            <line x1="266.4" y1="1010.1" x2="1476.9" y2="1010.1" id="Path" stroke="#CED5E5" stroke-width="3" stroke-linecap="round" stroke-linejoin="round"></line>
            <path d="M862.9,1264.2 L854.5,1278.1 C854.5,1278.1 767.7,1292.6 756.5,1307.5 C745.3,1322.4 766.4,1337.6 826.9,1326 C887.4,1314.4 889.7,1306.5 889.7,1306.5 L906.1,1263.3 L862.9,1264.2 Z" id="Path" fill="#FFDFD7" fill-rule="nonzero"></path>
            <path d="M1488.9,1013.8 L1488.9,1013.8 C1448.7,1013.8 1416,981.2 1416,940.9 L1416,878.5 C1416,838.3 1448.6,805.6 1488.9,805.6 L1488.9,805.6 C1529.1,805.6 1561.8,838.2 1561.8,878.5 L1561.8,940.9 C1561.8,981.2 1529.2,1013.8 1488.9,1013.8 Z" id="Path" fill="#CED5E5" fill-rule="nonzero"></path>
            <path d="M460.2,916.6 L445.9,943.8 C445.9,943.8 388.2,926.8 368.1,943.7 C348,960.6 364.8,969.6 386.6,971.4 C408.4,973.2 488.2,974.9 488.2,974.9 L506.3,933 L460.2,916.6 Z" id="Path" fill="#FFDFD7" fill-rule="nonzero"></path>
            <path d="M679.8,1263.3 L683,1274.9 C683,1274.9 615.6,1285.1 594.3,1307.9 C573,1330.7 605.7,1329.7 642.1,1322.5 C678.5,1315.3 726.6,1308.9 731.1,1305.4 C735.6,1301.9 741.5,1289 730.1,1255.6 L679.8,1263.3 Z" id="Path" fill="#FFDFD7" fill-rule="nonzero"></path>
            <line x1="294.7" y1="1123.8" x2="1436.1" y2="1123.8" id="Path" stroke="#CED5E5" stroke-width="3" stroke-linecap="round" stroke-linejoin="round"></line>
            <path d="M450.9,915.9 L508.1,937.1 C508.1,937.1 569.3,800.1 603.5,771.9 L794.3,901.7 L946.4,875.8 L871.7,845.2 L843.9,839.7 C843.9,839.7 789.3,786.7 710,743.6 C630.7,700.5 601,698 601,698 C601,698 575.7,685.6 538.1,738.6 C500.4,791.8 483.3,833.4 450.9,915.9 Z" id="Path" fill="#37B37F" fill-rule="nonzero"></path>
            <path d="M859.8,859.2 C859.8,859.2 713.1,891.9 661.2,913.1 C609.3,934.2 624.8,968 629.2,1015.9 C633.7,1065.3 674.8,1265.7 674.8,1265.7 L736.6,1259.1 L705,987.8 C705,987.8 922.8,945.9 962.2,915.9 C1001.6,885.9 1003.2,871.1 1003.2,871.1 L859.8,859.2 Z" id="Path" fill="#37B37F" fill-rule="nonzero"></path>
            <path d="M284.6,1013.8 L284.6,1013.8 C244.4,1013.8 211.7,981.2 211.7,940.9 L211.7,878.5 C211.7,838.3 244.3,805.6 284.6,805.6 L284.6,805.6 C324.8,805.6 357.5,838.2 357.5,878.5 L357.5,940.9 C357.5,981.2 324.9,1013.8 284.6,1013.8 Z" id="Path" fill="#CED5E5" fill-rule="nonzero"></path>
            <path d="M991.3,550.9 C991.3,550.9 933.9,576.7 855.9,658.5 L808.4,705.3 C808.4,705.3 702.9,684.2 679,677.8 C679,677.8 677,699.2 658.8,708.3 C658.8,708.3 808.4,750.9 815.7,752.6 C823,754.3 920.1,664.9 920.1,664.9 C920.1,664.9 846.4,829 842.7,851.5 C842.7,851.5 887.7,884.5 983.8,873.7 L1011.5,691.1 C1011.5,691.1 1039.9,630.4 1025.7,554.8 L991.3,550.9 Z" id="Path" fill="#FFB3DA" fill-rule="nonzero"></path>
            <path d="M843,910.1 C843,910.1 813.5,902.1 801.9,903.5 C790.3,904.9 818,914.5 818,914.5 C818,914.5 784.4,927.7 779.8,937.1 C776.6,943.6 793.4,958.3 812.6,957.4 C831.8,956.6 859.8,932 859.8,932 L843,910.1 Z" id="Path" fill="#FFDFD7" fill-rule="nonzero"></path>
            <path d="M1025.5,554.9 C1025.5,554.9 1052.4,628.2 1052.4,685.7 C1052.4,743.2 1025.5,861.1 1025.5,861.1 L855.8,937.2 C855.8,937.2 856.6,927.6 840.3,908.6 L989.6,834.1 L1025.5,554.9 Z" id="Path" fill="#FFB3DA" fill-rule="nonzero"></path>
            <path d="M1137.7,829.4 C1137.7,829.4 974.6,873.5 922.6,894.3 C870.6,915.1 885.1,953.5 871.6,1047.2 C858.1,1140.9 855.8,1270.5 855.8,1270.5 L914.6,1270.5 L961.4,974.9 L1126,923.6 L1190.3,843.6 L1137.7,829.4 Z" id="Path" fill="#283444" fill-rule="nonzero"></path>
            <path d="M827.2,1341.5 L818.8,1355.4 C818.8,1355.4 732,1369.9 720.8,1384.8 C709.6,1399.7 730.7,1414.9 791.2,1403.3 C851.7,1391.7 854,1383.8 854,1383.8 L875.8,1349.5 L827.2,1341.5 Z" id="Path" fill="#FFDFD7" fill-rule="nonzero"></path>
            <path d="M1258.7,864.9 C1258.7,864.9 1264.8,891.9 1246.9,926.8 C1229.1,961.7 881.9,1350.5 881.9,1350.5 L818.7,1340.1 L1128.7,901.5 L1184.3,841.9 L1258.7,864.9 Z" id="Path" fill="#283444" fill-rule="nonzero"></path>
            <path d="M1265.6,941.7 C1265.6,941.7 1234.2,947.7 1224,954.3 C1213.8,960.9 1244.2,957.3 1244.2,957.3 C1244.2,957.3 1210.8,983.2 1208.7,990.5 C1206.6,997.8 1241.1,1009.7 1258.8,1000.1 C1276.5,990.5 1300,952.8 1300,952.8 L1292.2,937.9 L1265.6,941.7 Z" id="Path" fill="#FFDFD7" fill-rule="nonzero"></path>
            <path d="M1322.8,653 C1304,605.9 1291.6,586.1 1291.6,586.1 L1243.3,575.7 L1207.9,617.1 C1166.7,678.9 1137.8,829.5 1137.8,829.5 C1137.8,829.5 1140.8,845.6 1169.5,859 C1198.2,872.4 1259.6,871.5 1259.6,871.5 L1287.1,711.5 L1302.6,778 C1295.7,824.6 1262.6,941.1 1262.6,941.1 C1290.4,948.5 1303.7,954.5 1303.7,954.5 L1351.5,778.1 C1351.5,777.9 1341.6,700.1 1322.8,653 Z" id="Path" fill="#FFFFFF" fill-rule="nonzero"></path>
            <path d="M1297.6,531.2 L1291.6,586.1 C1291.6,586.1 1273.8,592.5 1259.4,588.1 C1245,583.6 1243.3,575.7 1243.3,575.7 L1254.1,539.2 C1254.1,539.2 1270.8,522.7 1296.1,531.2" id="Path" fill="#FFDFD7" fill-rule="nonzero"></path>
            <path d="M1243.8,427 C1243.8,427 1217,506.8 1218,521.2 C1219,535.6 1265.1,541 1265.1,541 C1265.1,541 1288.4,543.5 1294.3,535.5 C1300.2,527.6 1325,498.3 1329.5,458.2 C1334,418.1 1260.1,397.8 1243.8,427 Z" id="Path" fill="#FFDFD7" fill-rule="nonzero"></path>
            <path d="M1287.2,431.4 C1287.2,431.4 1245.9,436.8 1238.9,424.9 C1232,413 1262.2,398 1291.8,404.2 C1321.4,410.5 1334.3,427.2 1334.9,439.4 C1335.6,451.6 1331.1,509.7 1297.6,531.2 L1296.7,488.8 C1296.7,488.8 1307.4,482.9 1308.3,468.8 C1309.1,454.8 1292.1,450.1 1287,464.8 C1281.9,479.5 1282.9,477.2 1282.9,477.2 L1276.8,477.2 L1287.2,431.4 Z" id="Path" fill="#283444" fill-rule="nonzero"></path>
            <path d="M997.8,425.3 C997.8,425.3 978.4,485.7 977.5,501.7 C976.7,517.7 1000.3,520.3 1004.2,520.8 C1008.1,521.3 1021.1,521.6 1028.1,515.5 C1035.1,509.3 1059.6,491.3 1064.1,470.5 C1068.6,449.7 1063.8,422.4 1046.4,416.2 C1029,410 1001.9,412 997.8,425.3 Z" id="Path" fill="#FFDFD7" fill-rule="nonzero"></path>
            <path d="M992.3,549 L1005,517.1 L1028.1,514.5 L1025.6,554.9 C1025.6,554.9 1017.3,560.1 1001.4,559 C985.4,557.8 992.3,549 992.3,549 Z" id="Path" fill="#FFDFD7" fill-rule="nonzero"></path>
            <path d="M997.4,426.5 C997.4,426.5 1002.6,389.7 1038,384.9 C1073.4,380.1 1085,406.6 1085,412.8 C1085,419 1081.6,426 1078.5,428.8 C1078.5,428.8 1092.6,440.9 1091.4,454.4 C1090.3,467.9 1079.9,483.5 1074,488.8 C1074,488.8 1083.3,497.8 1081.3,516.6 C1079.3,535.4 1067.5,545.9 1067.5,545.9 L1022.8,530.7 C1022.8,530.7 1029.6,505.1 1034.1,491 C1038.6,476.9 1047,440.1 1044.5,428.8 C1044.5,428.8 1019.8,440 997.4,426.5 Z" id="Path" fill="#FEAC00" fill-rule="nonzero"></path>
            <path d="M855.9,937.2 C855.9,937.2 856.7,927.6 840.4,908.6 L989.7,834.1 L1013.2,651.1" id="Path" stroke="#ED85C3" stroke-width="3" stroke-linecap="round" stroke-linejoin="round"></path>
            <path d="M930.9,640.6 L919.9,664.8 C866.2,778.3 842.5,851.4 842.5,851.4 C842.5,851.4 860.7,866 910.4,873.5" id="Path" stroke="#ED85C3" stroke-width="3" stroke-linecap="round" stroke-linejoin="round"></path>
            <polyline id="Path" stroke="#CED5E5" stroke-width="3" stroke-linecap="round" stroke-linejoin="round" points="1259.6 871.4 1287.1 711.4 1290.8 687.7"></polyline>
            <g id="Group" transform="translate(1447.000000, 858.000000)" fill="#F1F2F7" fill-rule="nonzero">
                <circle id="Oval" cx="12.1" cy="12.7" r="11.9"></circle>
                <circle id="Oval" cx="71.8" cy="12.7" r="11.9"></circle>
                <circle id="Oval" cx="12.1" cy="66.4" r="11.9"></circle>
                <circle id="Oval" cx="71.8" cy="66.4" r="11.9"></circle>
            </g>
            <g id="Group" transform="translate(242.000000, 858.000000)" fill="#F1F2F7" fill-rule="nonzero">
                <circle id="Oval" cx="12.8" cy="12.7" r="11.9"></circle>
                <circle id="Oval" cx="72.5" cy="12.7" r="11.9"></circle>
                <circle id="Oval" cx="12.8" cy="66.4" r="11.9"></circle>
                <circle id="Oval" cx="72.5" cy="66.4" r="11.9"></circle>
            </g>
            <polyline id="Path" stroke="#37B37F" stroke-width="5" stroke-linecap="round" stroke-linejoin="round" points="1680.6 1109.8 1680.6 617.1 1652.3 329.5"></polyline>
            <path d="M1692.3,1171.4 L1667.9,1171.4 C1622.4,1171.4 1585.1,1134.2 1585.1,1088.6 L1585.1,1013.8 L1775,1013.8 L1775,1088.6 C1775,1134.1 1737.8,1171.4 1692.3,1171.4 Z" id="Path" fill="#CED5E5" fill-rule="nonzero"></path>
            <line x1="1680.6" y1="617.1" x2="1496.4" y2="408.8" id="Path" stroke="#37B37F" stroke-width="5" stroke-linecap="round" stroke-linejoin="round"></line>
            <line x1="1680.6" y1="700.4" x2="1792.9" y2="499.8" id="Path" stroke="#37B37F" stroke-width="5" stroke-linecap="round" stroke-linejoin="round"></line>
            <polygon id="Path" fill="#FFC933" fill-rule="nonzero" points="234.4 449.1 0.8 449.1 40.8 211.7 194.4 211.7"></polygon>
            <path d="M360.3,69.6 L360.3,345.1 L786.4,345.1 L786.4,69.6 L360.3,69.6 Z M762.2,324.7 L384.5,324.7 L384.5,90 L762.3,90 L762.3,324.7 L762.2,324.7 Z" id="Shape" fill="#CED5E5" fill-rule="nonzero"></path>
            <line x1="550" y1="163.6" x2="564.1" y2="203.8" id="Path" stroke="#52CB96" stroke-width="3" stroke-linecap="round" stroke-linejoin="round"></line>
            <line x1="599.4" y1="155.2" x2="585.4" y2="203.8" id="Path" stroke="#52CB96" stroke-width="3" stroke-linecap="round" stroke-linejoin="round"></line>
            <line x1="573.3" y1="203.8" x2="570.3" y2="144.4" id="Path" stroke="#52CB96" stroke-width="3" stroke-linecap="round" stroke-linejoin="round"></line>
            <circle id="Oval" fill="#FFB3DA" fill-rule="nonzero" cx="550" cy="163.6" r="10.6"></circle>
            <circle id="Oval" fill="#FFB3DA" fill-rule="nonzero" cx="600.9" cy="146.2" r="10.6"></circle>
            <circle id="Oval" fill="#FFB3DA" fill-rule="nonzero" cx="569.4" cy="136.9" r="8.8"></circle>
            <line x1="420.5" y1="264.8" x2="726.2" y2="264.8" id="Path" stroke="#CED5E5" stroke-width="3" stroke-linecap="round" stroke-linejoin="round"></line>
            <circle id="Oval" fill="#CED5E5" fill-rule="nonzero" cx="572.6" cy="6.3" r="5.7"></circle>
            <path d="M595.7,235 L607.5,203.8 L539.2,203.8 L551,235 C552.7,239.5 552.9,244.4 551.6,249 L544.9,272.5 C543.2,278.4 544,284.8 547.2,290.1 L547.2,290.1 C551.2,296.8 558.5,300.9 566.3,300.9 L580.6,300.9 C588.4,300.9 595.7,296.8 599.7,290.1 L599.7,290.1 C602.9,284.8 603.7,278.4 602,272.5 L595.3,249 C593.8,244.4 594,239.4 595.7,235 Z" id="Path" fill="#37B37F" fill-rule="nonzero"></path>
            <polyline id="Path" stroke="#141B25" stroke-width="3" stroke-linecap="round" stroke-linejoin="round" points="882 1350.5 818.8 1340.1 1128.8 901.5"></polyline>
            <path d="M818.8,868.7 C818.8,868.7 713.2,891.9 661.3,913 C609.4,934.1 624.9,967.9 629.3,1015.8 C633.8,1065.2 674.9,1265.6 674.9,1265.6" id="Path" stroke="#52CB96" stroke-width="3" stroke-linecap="round" stroke-linejoin="round"></path>
        </g>
    </g>
</svg>