<?xml version="1.0" standalone="no"?>
<svg width="1555px" height="1592px" viewBox="0 0 1555 1592" version="1.1" xmlns="http://www.w3.org/2000/svg" xmlns:xlink="http://www.w3.org/1999/xlink">
    <!-- Generator: Sketch 63.1 (92452) - https://sketch.com -->
    <title>couple-moment</title>
    <desc>Created by Webpixels.</desc>
    <g id="Page-1" stroke="none" stroke-width="1" fill="none" fill-rule="evenodd">
        <g id="couple-moment" transform="translate(1.000000, 0.000000)">
            <line x1="1296.1" y1="1476.1" x2="1438.9" y2="1476.1" id="Path" stroke="#CED5E5" stroke-width="3" stroke-linecap="round" stroke-linejoin="round"></line>
            <line x1="354.9" y1="1476.1" x2="600" y2="1476.1" id="Path" stroke="#CED5E5" stroke-width="3" stroke-linecap="round" stroke-linejoin="round"></line>
            <g id="Group" transform="translate(150.000000, 295.000000)" fill="#FFC933" fill-rule="nonzero" opacity="0.2">
                <g transform="translate(178.000000, 0.000000)" id="Path">
                    <path d="M5.4,336 C2.6,336 0.4,333.8 0.4,331 L0.4,5.6 C0.4,2.8 2.6,0.6 5.4,0.6 C8.2,0.6 10.4,2.8 10.4,5.6 L10.4,331 C10.4,333.8 8.2,336 5.4,336 Z"></path>
                </g>
                <g transform="translate(261.000000, 6.000000)" id="Path">
                    <path d="M100,249.6 C98,249.6 96.1,248.4 95.3,246.4 L1.3,7 C0.3,4.4 1.6,1.5 4.1,0.5 C6.7,-0.5 9.6,0.8 10.6,3.3 L104.6,242.7 C105.6,245.3 104.3,248.2 101.8,249.2 C101.3,249.5 100.7,249.6 100,249.6 Z"></path>
                </g>
                <g transform="translate(0.000000, 6.000000)" id="Path">
                    <path d="M5.8,249.6 C5.2,249.6 4.6,249.5 4,249.3 C1.4,248.3 0.2,245.4 1.2,242.8 L95.2,3.4 C96.2,0.8 99.1,-0.4 101.7,0.6 C104.3,1.6 105.5,4.5 104.5,7.1 L10.5,246.5 C9.7,248.4 7.8,249.6 5.8,249.6 Z"></path>
                </g>
                <g transform="translate(93.000000, 6.000000)" id="Path">
                    <path d="M5.5,206.1 C5.1,206.1 4.8,206.1 4.4,206 C1.7,205.4 0,202.7 0.6,200 L45,4.1 C45.6,1.4 48.3,-0.3 51,0.3 C53.7,0.9 55.4,3.6 54.8,6.3 L10.4,202.2 C9.8,204.5 7.8,206.1 5.5,206.1 Z"></path>
                </g>
                <g transform="translate(219.000000, 6.000000)" id="Path">
                    <path d="M50.2,206.1 C47.9,206.1 45.9,204.5 45.3,202.2 L0.9,6.3 C0.3,3.6 2,0.9 4.7,0.3 C7.4,-0.3 10.1,1.4 10.7,4.1 L55,200 C55.6,202.7 53.9,205.4 51.2,206 C50.9,206.1 50.5,206.1 50.2,206.1 Z"></path>
                </g>
            </g>
            <g id="Group" transform="translate(306.000000, 1043.000000)" fill-rule="nonzero">
                <rect id="Rectangle" fill="#F1F2F7" x="1196" y="165.7" width="14" height="78.2"></rect>
                <path d="M1232.1,168.5 L1173.1,168.5 L1173.1,160.7 C1173.1,154.2 1178.4,149 1184.8,149 L1220.3,149 C1226.8,149 1232,154.3 1232,160.7 L1232,168.5 L1232.1,168.5 Z" id="Path" fill="#CED5E5"></path>
                <rect id="Rectangle" fill="#F1F2F7" x="31.5" y="165.7" width="14" height="78.2"></rect>
                <rect id="Rectangle" fill="#F1F2F7" x="136.5" y="243.9" width="23" height="189.2"></rect>
                <rect id="Rectangle" fill="#F1F2F7" x="1081.7" y="243.9" width="23" height="189.2"></rect>
                <path d="M1238.7,256.4 L0.1,256.4 L0.1,235.2 C0.1,230 4.3,225.8 9.5,225.8 L1229.2,225.8 C1234.4,225.8 1238.6,230 1238.6,235.2 L1238.6,256.4 L1238.7,256.4 Z" id="Path" fill="#CED5E5"></path>
                <path d="M1140.1,210.2 L98.7,210.2 C86.2,210.2 76.1,200.1 76.1,187.6 L76.1,171.5 C76.1,159 86.2,148.9 98.7,148.9 L1140.2,148.9 C1152.7,148.9 1162.8,159 1162.8,171.5 L1162.8,187.6 C1162.7,200.1 1152.6,210.2 1140.1,210.2 Z" id="Path" fill="#CED5E5"></path>
                <path d="M1140.1,135.9 L98.7,135.9 C86.2,135.9 76.1,125.8 76.1,113.3 L76.1,97.2 C76.1,84.7 86.2,74.6 98.7,74.6 L1140.2,74.6 C1152.7,74.6 1162.8,84.7 1162.8,97.2 L1162.8,113.3 C1162.7,125.8 1152.6,135.9 1140.1,135.9 Z" id="Path" fill="#CED5E5"></path>
                <path d="M1140.1,61.5 L98.7,61.5 C86.2,61.5 76.1,51.4 76.1,38.9 L76.1,22.8 C76.1,10.3 86.2,0.2 98.7,0.2 L1140.2,0.2 C1152.7,0.2 1162.8,10.3 1162.8,22.8 L1162.8,38.9 C1162.7,51.4 1152.6,61.5 1140.1,61.5 Z" id="Path" fill="#CED5E5"></path>
                <rect id="Rectangle" fill="#F1F2F7" x="82" y="256.4" width="23" height="189.9"></rect>
                <rect id="Rectangle" fill="#F1F2F7" x="1139.8" y="256.4" width="23" height="189.9"></rect>
                <circle id="Oval" fill="#F1F2F7" cx="147.9" cy="30.9" r="6.2"></circle>
                <circle id="Oval" fill="#F1F2F7" cx="147.9" cy="105.3" r="6.2"></circle>
                <circle id="Oval" fill="#F1F2F7" cx="147.9" cy="179.6" r="6.2"></circle>
                <circle id="Oval" fill="#F1F2F7" cx="1093.1" cy="30.9" r="6.2"></circle>
                <circle id="Oval" fill="#F1F2F7" cx="1093.1" cy="105.3" r="6.2"></circle>
                <circle id="Oval" fill="#F1F2F7" cx="1093.1" cy="179.6" r="6.2"></circle>
                <path d="M67.6,168.5 L8.6,168.5 L8.6,160.7 C8.6,154.2 13.9,149 20.3,149 L55.8,149 C62.3,149 67.5,154.3 67.5,160.7 L67.5,168.5 L67.6,168.5 Z" id="Path" fill="#CED5E5"></path>
            </g>
            <path d="M698.2,1548.8 C698.2,1548.8 707.1,1507 811.5,1499.9 L863,1508.4 L863,1540.4 L698.2,1548.8 Z" id="Path" fill="#FFC933" fill-rule="nonzero"></path>
            <path d="M855.099867,1591.3 C855.099867,1591.3 854.4,1548.6 954.6,1518.3 L1006.7,1515 L1013.9,1546.2 L855.099867,1591.3 Z" id="Path" fill="#FFC933" fill-rule="nonzero"></path>
            <line x1="753.8" y1="1476.1" x2="1093.1" y2="1476.1" id="Path" stroke="#CED5E5" stroke-width="3" stroke-linecap="round" stroke-linejoin="round"></line>
            <line x1="0.7" y1="1476.1" x2="162.4" y2="1476.1" id="Path" stroke="#CED5E5" stroke-width="3" stroke-linecap="round" stroke-linejoin="round"></line>
            <line x1="1193.2" y1="1476.1" x2="1274.7" y2="1476.1" id="Path" stroke="#CED5E5" stroke-width="3" stroke-linecap="round" stroke-linejoin="round"></line>
            <line x1="636" y1="1476.1" x2="682.5" y2="1476.1" id="Path" stroke="#CED5E5" stroke-width="3" stroke-linecap="round" stroke-linejoin="round"></line>
            <path d="M933.8,348.3 C933.8,348.3 926.4,424.8 931.5,437.9 C936.6,450.9 956.4,456 989.3,448.7 C1022.2,441.3 1026.2,400.5 1026.2,385.2 C1026.2,369.9 1017.1,325.7 993.3,322.3 C969.5,318.8 940.1,327.9 933.8,348.3 Z" id="Path" fill="#FFDFD7" fill-rule="nonzero"></path>
            <path d="M960.1,489.4 L967.5,443.1 L1006.6,435.7 L1009.8,493.7 C1009.8,493.7 997.3,501.1 980.1,498.8 C962.9,496.6 960.1,489.4 960.1,489.4 Z" id="Path" fill="#FFDFD7" fill-rule="nonzero"></path>
            <path d="M929.9,406.1 C929.9,406.1 918.5,377.6 920.9,357.4 C923.4,337.2 930.3,330.2 937,328.9 C937,328.9 947.6,309.4 976.9,310.8 C989.67583,311.366846 1000.18915,315.603136 1008.19955,321.942025 C1018.56015,330.140699 1024.73369,341.856738 1026.2,353.7 C1027.08664,360.861344 1028.47334,370.20898 1028.76983,380.430244 C1029.07887,391.084265 1028.20343,402.687457 1024.34258,413.753267 C1021.04573,423.202561 1015.57199,432.260009 1006.8,440 L1003.6,380.6 C1003.6,380.6 948,389.1 940.7,342.6 C940.6,342.4 931.7,394.9 929.9,406.1 Z" id="Path" stroke="#5900CC" fill="#5900CC" fill-rule="nonzero"></path>
            <path d="M1009.8,493.8 C1009.8,493.8 1075.6,554.7 1088.6,595.5 C1101.6,636.3 1104.5,720.2 1102.8,739.5 C1101.1,758.8 1079,814.9 1079,814.9 L1034.2,786.6 L1058.5,703.3 L1040.5,620.5 L1047.6,905.7 C1047.6,905.7 1037.4,921 944.7,911.7 C852,902.3 827.3,879.4 827.3,879.4 L886.8,604.7 C886.8,604.7 829.8,631.9 789.9,646.4 C749.9,660.9 685.3,684.7 685.3,684.7 L664,636 L830.7,559.5 C830.7,559.5 916,504.5 960.1,489.5" id="Path" fill="#FFC933" fill-rule="nonzero"></path>
            <path d="M830.6,881.7 C830.6,881.7 800,1077.4 792.4,1174.3 C784.7,1271.2 811.5,1500 811.5,1500 L863,1508.5 C863,1508.5 877.5,1152.2 914.9,1013.2 C914.9,1013.2 933.6,1263.6 941.3,1343.6 C949,1423.5 950.7,1519.6 950.7,1519.6 C950.7,1519.6 999.2,1518.7 1006.8,1515.3 C1014.4,1511.9 1045.4,907.3 1045.4,907.3 C1045.4,907.3 890.6,855.5 830.6,881.7 Z" id="Path" fill="#283444" fill-rule="nonzero"></path>
            <path d="M907.2,735.9 C907.2,735.9 1106.2,695.3 1137.9,696.4 C1169.6,697.5 1171.9,698.6 1177,702 C1182.1,705.4 1296.1,1038.8 1296.1,1038.8 L1233.2,1060.3 C1233.2,1060.3 1135.4,863.6 1134.7,797.2 L1131.2,772.8 L860.8,823.3 L907.2,735.9 Z" id="Path" fill="#5900CC" fill-rule="nonzero"></path>
            <path d="M937.6,599.9 C937.6,599.9 947.2,543.5 954.1,535.8 C962.6,526.2 955.7,568 955.7,568 C955.7,568 973.8,519.8 987.7,515.8 C1001.6,511.8 1010.7,546.1 1009.8,554.1 C1008.9,562 959.9,622.4 959.9,622.4 L937.6,599.9 Z" id="Path" fill="#FFDFD7" fill-rule="nonzero"></path>
            <path d="M1474.4,858.8 C1474.4,858.8 1254.1,744 1220.1,722.7 C1186.1,701.4 1119.8,712.5 1119.8,712.5 L907.2,735.8 L886,715.4 L816.1,768.3 L794.9,823.3 C794.9,823.3 806.6,863.9 896.6,860.5 C986.6,857.1 1160.6,783.9 1160.6,783.9 L1426.8,908.9" id="Path" fill="#5900CC" fill-rule="nonzero"></path>
            <path d="M722.3,511 L775.6,517.4 L861.7,540.2 L830.6,559.5 L815.6,566.4 L796.3,567.7 L886,715.5 C886,715.5 816.5,766.7 794.9,823.4 C794.9,823.4 738.2,759.9 707.6,693 C677,626.1 670.2,590.8 670.2,590.8 L686,532.2 L722.3,511 Z" id="Path" fill="#F1F2F7" fill-rule="nonzero"></path>
            <path d="M670.2,590.7 C670.2,590.7 658.5,610 667.9,659.1 C677.3,708.2 814.5,756.6 824.8,754.7 C835.1,752.8 960.5,624 960.5,624 C960.5,624 955.2,604.8 935.2,599.1 C935.2,599.1 830.6,686.7 812.4,707.2 L706.1,639.5 L670.2,590.7 Z" id="Path" fill="#F1F2F7" fill-rule="nonzero"></path>
            <path d="M1467.9,865.6 C1467.9,865.6 1508.9,819.6 1553.2,819.6 C1553.2,819.6 1556.3,822.7 1535,857.5 C1510.4,897.6 1471.1,931.6 1471.1,931.6 L1428.2,907.4 L1467.9,865.6 Z" id="Path" fill="#283444" fill-rule="nonzero"></path>
            <path d="M1287.5,1040.3 C1287.5,1040.3 1344.8,1017.6 1384.4,1037.5 C1384.4,1037.5 1385.8,1041.7 1351.1,1063.2 C1311.2,1088 1260.8,1100.7 1260.8,1100.7 L1233.3,1059.9 L1287.5,1040.3 Z" id="Path" fill="#283444" fill-rule="nonzero"></path>
            <path d="M1013.3,836.8 C1013.3,836.8 1006.2,810 1018.3,805.8 C1030.4,801.6 1054.2,795.6 1079.2,813 C1079.2,813 1074.3,824.7 1050.5,833 C1026.7,841.3 1019.2,843.2 1013.3,836.8 Z" id="Path" fill="#FFDFD7" fill-rule="nonzero"></path>
            <path d="M690.1,379 C690.1,379 721.3,434.5 720.8,449.9 C720.3,465.3 703.2,482 690.1,484.7 C677,487.4 640,487.3 624.2,454.1 C608.4,421 622.8,375.4 649.9,370.9 C677,366.4 686.1,371.8 690.1,379 Z" id="Path" fill="#FFDFD7" fill-rule="nonzero"></path>
            <path d="M685.9,532.1 L668.4,480.9 L695.4,470.3 L722.4,510.9 C722.4,510.9 748.6,571.8 740.3,577.5 C731.9,583.3 685.9,532.1 685.9,532.1 Z" id="Path" fill="#FFDFD7" fill-rule="nonzero"></path>
            <path d="M690.1,379 C690.1,379 693.1,372.7 687.7,363.1 C682.3,353.5 662.7,352.1 652.8,358.1 C642.9,364.1 632.5,367.7 617.7,390 C602.9,412.3 605.3,432.4 610.4,447.8 C615.5,463.2 608.3,477 599.9,491.1 C591.5,505.2 578.2,540.8 580.6,561.5 C580.6,561.5 580.3,579.4 607.4,571.7 C621.5,567.7 622.5,583.6 644.6,582.2 C653.8,581.6 661.2,568.4 674.7,577.8 C674.7,577.8 694.3,539.6 691,525.6 C687.6,510.8 685.9,498.2 680.4,488.7 C674.5,478.5 659.7,464.3 655.9,455.8 C653.5,450.5 659.2,446.1 655,428.7 C653.3,421.6 650.2,402 650.2,402 C650.2,402 654.8,400.2 661.1,397.3 C680.9,388.2 684.7,383.1 690.1,379 Z" id="Path" fill="#FE8163" fill-rule="nonzero"></path>
            <path d="M655.6,438.6 C655.6,438.6 649.3,427.1 642.1,432.3 C634.9,437.5 641.2,452.7 655.9,455.9 C670.5,459.2 655.6,438.6 655.6,438.6 Z" id="Path" fill="#FFDFD7" fill-rule="nonzero"></path>
            <path d="M1220.1,722.7 C1186.1,701.4 1119.8,712.5 1119.8,712.5 L907.2,735.8" id="Path" stroke="#8B34FF" stroke-width="3" stroke-linecap="round" stroke-linejoin="round"></path>
            <path d="M1093.1,810.1 C1132.5,795.8 1160.5,784 1160.5,784 L1426.7,909" id="Path" stroke="#8B34FF" stroke-width="3" stroke-linecap="round" stroke-linejoin="round"></path>
            <path d="M697.8,697.2 C741.4,730.4 817.3,756.1 824.8,754.7 C835,752.8 960.5,623.9 960.5,623.9 C960.5,623.9 955.2,604.7 935.2,599 C935.2,599 830.6,686.6 812.4,707.1 L706.1,639.4" id="Path" stroke="#CED5E5" stroke-width="3" stroke-linecap="round" stroke-linejoin="round"></path>
            <path d="M664,624.9 C664,624.9 677,620.1 686.4,633.1 C695.8,646.1 704.8,673.6 705.1,686.1 C705.4,698.6 688.7,700.8 684.5,697.4 C680.4,694.1 643.5,643.6 664,624.9 Z" id="Path" fill="#FFDFD7" fill-rule="nonzero"></path>
            <path d="M1294.1,504.5 C1294.1,504.5 1177,412.9 1195.5,332 C1215.1,246.2 1289,287.2 1294.1,350.2 C1294.1,350.2 1323.7,242.3 1381.7,275.4 C1481,332 1294.1,504.5 1294.1,504.5 Z" id="Path" fill="#FFB3DA" fill-rule="nonzero"></path>
            <path d="M508.6,904.1 C508.6,904.1 580.8,796.3 552.3,739 C522,678.2 469.7,732.6 477.3,780.7 C477.3,780.7 441,716.4 403.5,751.7 C339.3,812.1 508.6,904.1 508.6,904.1 Z" id="Path" fill="#FFB3DA" fill-rule="nonzero"></path>
            <path d="M53.3,1476.1 L53.3,137.6 C53.3,61.8 114.9,0.2 190.7,0.2 L217.6,0.2 C293.4,0.2 355,61.8 355,137.6 L355,237 C355,248 346,257 335,257 C324,257 315,248 315,237 L315,137.6 C315,83.9 271.3,40.2 217.6,40.2 L190.7,40.2 C137,40.2 93.3,83.9 93.3,137.6 L93.3,1476.1 L53.3,1476.1 Z" id="Path" fill="#F1F2F7" fill-rule="nonzero"></path>
            <path d="M439,309.2 L227.9,309.2 L265.6,213.2 C276.6,185.3 303.5,166.9 333.4,166.9 L333.4,166.9 C363.4,166.9 390.3,185.2 401.2,213.2 L439,309.2 Z" id="Path" fill="#CED5E5" fill-rule="nonzero"></path>
        </g>
    </g>
</svg>