<?xml version="1.0" standalone="no"?>
<svg width="1753px" height="1646px" viewBox="0 0 1753 1646" version="1.1" xmlns="http://www.w3.org/2000/svg" xmlns:xlink="http://www.w3.org/1999/xlink">
    <!-- Generator: Sketch 63.1 (92452) - https://sketch.com -->
    <title>couple-stroll</title>
    <desc>Created by Webpixels.</desc>
    <g id="Page-1" stroke="none" stroke-width="1" fill="none" fill-rule="evenodd">
        <g id="couple-stroll">
            <line x1="688.4" y1="1535.1" x2="1027.7" y2="1535.1" id="Path" stroke="#CED5E5" stroke-width="3" stroke-linecap="round" stroke-linejoin="round"></line>
            <line x1="1047.2" y1="1535.1" x2="1147.6" y2="1535.1" id="Path" stroke="#CED5E5" stroke-width="3" stroke-linecap="round" stroke-linejoin="round"></line>
            <line x1="508.1" y1="1535.1" x2="608.4" y2="1535.1" id="Path" stroke="#CED5E5" stroke-width="3" stroke-linecap="round" stroke-linejoin="round"></line>
            <line x1="434.1" y1="1535.1" x2="478.2" y2="1535.1" id="Path" stroke="#CED5E5" stroke-width="3" stroke-linecap="round" stroke-linejoin="round"></line>
            <line x1="1177.3" y1="1535.1" x2="1368.7" y2="1535.1" id="Path" stroke="#CED5E5" stroke-width="3" stroke-linecap="round" stroke-linejoin="round"></line>
            <path d="M1266.6,1015.1 C1266.6,1015.1 1309.1,1053.4 1312,1063.3 C1315.6,1075.6 1283.9,1047.4 1283.9,1047.4 C1283.9,1047.4 1314.9,1088.5 1310.8,1102.4 C1306.7,1116.3 1272.9,1105.6 1266.6,1100.6 C1260.3,1095.6 1235.6,1021.9 1235.6,1021.9 L1266.6,1015.1 Z" id="Path" fill="#FFDFD7" fill-rule="nonzero"></path>
            <path d="M797.7,998.1 C797.7,998.1 844,1001.8 847.6,1012.5 C851.3,1023.3 833.3,1038 828.2,1040 C823.2,1042 797.4,1036.3 788,1030.1 C778.6,1023.9 779.9,995.9 797.7,998.1 Z" id="Path" fill="#FFDFD7" fill-rule="nonzero"></path>
            <path d="M830.1,975.9 C830.1,975.9 793.8,1006.9 797.2,1028.7 C800.6,1050.5 815.9,1044.6 821,1040.9 C826.1,1037.2 849.9,1009.1 852.5,996.4 C855,983.6 830.1,975.9 830.1,975.9 Z" id="Path" fill="#FFDFD7" fill-rule="nonzero"></path>
            <path d="M819.3,1515.3 L798.6,1560.8 L824.1,1580.6 L830.3,1571.8 L837.7,1576.6 L834.9,1589.1 C834.9,1589.1 881.1,1633.3 916.5,1641.3 C951.9,1649.2 895.2,1586.9 883.9,1576.4 C872.6,1565.9 860.7,1554.9 860.7,1554.9 L864.9,1542.6 L819.3,1515.3 Z" id="Path" fill="#37B37F" fill-rule="nonzero"></path>
            <path d="M1218,1584.1 L1232.8,1631.9 L1264.7,1626.4 L1262.4,1615.9 L1270.3,1613.5 L1277.6,1624 C1277.6,1624 1338.9,1613.1 1376.6,1597.2 C1410.1,1583.1 1322.1,1576.2 1306.7,1577.5 C1291.3,1578.8 1275.1,1580.1 1275.1,1580.1 L1268.8,1568.7 L1218,1584.1 Z" id="Path" fill="#37B37F" fill-rule="nonzero"></path>
            <path d="M1130.8,1052.3 C1130.8,1052.3 1180.7,1253.2 1190.1,1278.7 C1199.5,1304.2 1277.7,1567 1277.7,1567 L1213.4,1586.8 L1127.8,1292.6 L1058.1,1144.1 C1058.1,1144.1 1046.8,1259.2 1035.6,1304.3 C1024.4,1349.4 870.5,1545.8 870.5,1545.8 L809.3,1509.2 C809.3,1509.2 957.3,1300 972.6,1281.3 C972.6,1281.3 951.1,1044.9 977.6,1015.1 L1130.8,1052.3 Z" id="Path" fill="#283444" fill-rule="nonzero"></path>
            <path d="M1094.2,614.3 C1094.2,614.3 1121.9,618.3 1146,659.3 C1170.1,700.3 1233.8,864 1272,1018.3 C1272,1018.3 1258,1019.6 1239.4,1037.1 C1239.4,1037.1 1160.1,812.8 1122.2,728.5 L1135.5,1051.8 C1135.5,1051.8 1029.1,1065.9 974.8,1012.7 L1015.1,719.3 C1015.1,719.3 984.5,769.2 952.8,820.4 C921.1,871.6 855.9,999.6 855.9,999.6 L828.3,974.4 C828.3,974.4 901.3,805 926.4,764.4 C953.1,721.2 994.4,632.7 1051.7,616 L1094.2,614.3 Z" id="Path" fill="#52CB96" fill-rule="nonzero"></path>
            <path d="M328.6,1509.2 L298.8,1551.2 L396.5,1631.7 C396.5,1631.7 405.3,1599.4 391.6,1581.8 C378.4,1564.8 343,1542.1 343,1542.1 L353,1531.9 L331.6,1512.1 L328.6,1509.2 Z" id="Path" fill="#5900CC" fill-rule="nonzero"></path>
            <path d="M637.3,1593.1 L639.8,1645.5 L770.5,1641 C770.5,1641 755.7,1611 733.8,1606.9 C712.6,1602.9 671.1,1609.3 671.1,1609.3 L672.1,1593.1 L643.6,1590.5 L637.3,1593.1 Z" id="Path" fill="#5900CC" fill-rule="nonzero"></path>
            <path d="M698.9,1231.9 C698.9,1231.9 705,1294 705,1314.4 C705,1334.8 672,1594.2 672,1594.2 L637.4,1594.2 C637.4,1594.2 634.6,1381.3 650.4,1318.4 L623.799851,1241.3 C623.7,1241.3 673.8,1219 698.9,1231.9 Z" id="Path" fill="#FFDFD7" fill-rule="nonzero"></path>
            <path d="M328.6,1509.2 L353.1,1531.9 C353.1,1531.9 538.4,1333.2 559.7,1301.7 C581,1270.2 591.4,1231.4 591.4,1231.4 L552.8,1191.7 C552.8,1191.7 524.1,1200.5 516.5,1222.3 C509,1244.2 506.9,1277.3 506.9,1277.3 C506.9,1277.3 429,1339.9 328.6,1509.2 Z" id="Path" fill="#FFDFD7" fill-rule="nonzero"></path>
            <path d="M627.7,671.3 C627.7,671.3 644.1,674.7 662.3,707 C680.4,739.3 699,783.2 708.8,808.9 L672,856.9 L682.7,959.9 C682.7,959.9 730.9,1181 744.5,1215.9 C744.5,1215.9 708.8,1241.1 599.1,1241.40508 C507.3,1241.7 489.4,1228.6 489.4,1228.6 L564.8,959.5 L571.1,715.5 C571.1,715.5 575.2,688.5 583.2,673 C591.2,657.5 627.7,671.3 627.7,671.3 Z" id="Path" fill="#FFB3DA" fill-rule="nonzero"></path>
            <polygon id="Path" fill="#FFB3DA" fill-rule="nonzero" points="572.2 709.2 530.2 828.3 575 867.4 597.7 785.8 576.5 714.3"></polygon>
            <path d="M537.4,834.6 C537.4,834.6 515.4,937.7 510.3,989.9 C505.2,1042.1 502.1,1074.9 502.1,1074.9 C502.1,1074.9 486.9,1110.8 495,1148.6 C503.1,1186.4 521.1,1121.4 523.9,1102.1 C523.9,1102.1 524.7,1124.8 526.9,1129.7 C529.2,1134.6 538.6,1115.6 535.2,1087.5 C531.8,1059.4 529.2,1051.5 529.2,1051.5 L552.8,929.8 L568.5,861.9 L537.4,834.6 Z" id="Path" fill="#FFDFD7" fill-rule="nonzero"></path>
            <polygon id="Path" fill="#FFDFD7" fill-rule="nonzero" points="704.5 814.4 733.7 890.1 806.3 1012.5 788.1 1030.1 701.4 909.4 675.1 852.8"></polygon>
            <line x1="672" y1="856.8" x2="664" y2="765.4" id="Path" stroke="#ED85C3" stroke-width="3" stroke-linecap="round" stroke-linejoin="round"></line>
            <polyline id="Path" stroke="#ED85C3" stroke-width="3" stroke-linecap="round" stroke-linejoin="round" points="530.2 828.3 575 867.4 597.7 785.8"></polyline>
            <path d="M656.5,533.1 C656.5,533.1 673.8,616 664.2,626.3 C654.5,636.6 617.6,631 617.6,631 C617.6,631 593,630 583,605 C573,580 561.7,534.1 585.7,523.1 C609.5,512.1 648.1,509.8 656.5,533.1 Z" id="Path" fill="#FFDFD7" fill-rule="nonzero"></path>
            <path d="M620.7,631.4 L626,675.1 C626,675.1 621.1,678.1 609.3,679.3 C597.5,680.5 586.1,671.1 586.1,671.1 L592.9,620 C593,620.1 616.7,612.8 620.7,631.4 Z" id="Path" fill="#FFDFD7" fill-rule="nonzero"></path>
            <path d="M610.3,538.1 C610.3,538.1 636.8,548.7 656.5,533.1 C676.1,517.4 654.5,497.5 640.5,489.1 C626.5,480.8 604.2,487.8 588.9,503.1 C573.6,518.4 548.9,517.4 547.6,544.1 C546.3,570.8 555.6,577.7 557.3,587.7 C558.9,597.4 562.3,609.3 538.3,626 C514.3,642.7 508.3,675 522,719.2 L580.3,707.5 C580.3,707.5 597.6,649.6 600.6,613.3 C603.5,577.1 610.3,538.1 610.3,538.1 Z" id="Path" fill="#5900CC" fill-rule="nonzero"></path>
            <path d="M605.2,571.2 C605.2,571.2 601.8,554.5 591.3,556.5 C580.8,558.5 584.3,578.1 589.5,585.1 C594.7,592.1 602.9,589.4 602.9,589.4 L607.3,579.3 L605.2,571.2 Z" id="Path" fill="#FFDFD7" fill-rule="nonzero"></path>
            <path d="M1110.9,473.8 C1110.9,473.8 1132.7,554.6 1126.4,574.2 C1120,593.8 1085.8,592.8 1081.9,592.3 C1078,591.8 1057.4,587.6 1051.1,569.7 C1044.8,551.8 1018.6,484 1051.8,468.3 C1085.1,452.7 1108.6,464.9 1110.9,473.8 Z" id="Path" fill="#FFDFD7" fill-rule="nonzero"></path>
            <path d="M1062,494 C1059.7,488.1 1063.9,481.6 1070.2,481.5 C1086.9,481.2 1111.1,479.1 1117.8,470 C1128.3,455.8 1098.5,443.3 1077.2,449.5 C1055.9,455.6 1045.9,459.3 1039.8,473.7 C1039.8,473.7 1013.5,472.8 1029,528.5 C1040.4,569.5 1056.8,579.5 1056.8,579.5 L1051.2,539.1 C1051.2,539.1 1038.5,537.1 1038,518.9 C1037.4,498.1 1057.4,504.1 1058.6,517.5 L1059.8,530.7 L1069.3,529.6 C1069.3,529.6 1065.5,503.1 1062,494.3 C1062.1,494.1 1062,494.1 1062,494 Z" id="Path" fill="#283444" fill-rule="nonzero"></path>
            <path d="M1056.8,579.4 L1051.7,615.8 C1051.7,615.8 1064.8,624.4 1074.6,624.1 C1084.4,623.9 1094.2,614.2 1094.2,614.2 L1087.7,592.4 L1056.8,579.4 Z" id="Path" fill="#FFDFD7" fill-rule="nonzero"></path>
            <line x1="545.2" y1="1239.6" x2="571.3" y2="1121.4" id="Path" stroke="#ED85C3" stroke-width="3" stroke-linecap="round" stroke-linejoin="round"></line>
            <line x1="605.2" y1="1241.3" x2="605.2" y2="1089.6" id="Path" stroke="#ED85C3" stroke-width="3" stroke-linecap="round" stroke-linejoin="round"></line>
            <line x1="672.5" y1="1236.6" x2="657.4" y2="1130.1" id="Path" stroke="#ED85C3" stroke-width="3" stroke-linecap="round" stroke-linejoin="round"></line>
            <line x1="717.3" y1="1227.1" x2="686.5" y2="1096.5" id="Path" stroke="#ED85C3" stroke-width="3" stroke-linecap="round" stroke-linejoin="round"></line>
            <line x1="510" y1="1235.1" x2="534.9" y2="1142.9" id="Path" stroke="#ED85C3" stroke-width="3" stroke-linecap="round" stroke-linejoin="round"></line>
            <path d="M744.5,1215.8 C744.5,1215.8 708.8,1241 599.1,1241.3 C507.3,1241.6 489.4,1228.5 489.4,1228.5" id="Path" stroke="#ED85C3" stroke-width="3" stroke-linecap="round" stroke-linejoin="round"></path>
            <path d="M809,1509.2 L870.2,1545.8 C870.2,1545.8 1024.1,1349.4 1035.3,1304.3 C1046.5,1259.2 1057.8,1144.1 1057.8,1144.1 L1061,1097.2" id="Path" stroke="#CED5E5" stroke-width="3" stroke-linecap="round" stroke-linejoin="round"></path>
            <path d="M1121,697.9 L1135.5,1051.8 C1135.5,1051.8 1033.4,1068 974.8,1012.7" id="Path" stroke="#37B37F" stroke-width="3" stroke-linecap="round" stroke-linejoin="round"></path>
            <line x1="1015.1" y1="719.3" x2="1028" y2="697.9" id="Path" stroke="#37B37F" stroke-width="3" stroke-linecap="round" stroke-linejoin="round"></line>
            <path d="M1047,617.4 C1047,617.4 1052,624 1060.6,628 C1073.5,633.9 1091.1,630.3 1101.5,616.6" id="Path" stroke="#37B37F" stroke-width="3" stroke-linecap="round" stroke-linejoin="round"></path>
            <path d="M918.7,11.8 C902.8,5.7 886.5,2.1 870.3,0.8 C919.7,49.2 938.5,124.1 912,192.7 C885.5,261.3 821.3,304.2 752.2,306.9 C765,316.8 779.5,325.1 795.5,331.3 C883.7,365.3 982.8,321.4 1016.8,233.2 C1050.9,144.9 1007,45.8 918.7,11.8 Z" id="Path" fill="#FFC933" fill-rule="nonzero"></path>
            <g id="Group" opacity="0.8" transform="translate(65.000000, 103.000000)" fill="#F1F2F7" fill-rule="nonzero">
                <g id="Path">
                    <path d="M556.6,111.4 C536.3,78.6 496.3,60.9 461.3,60.1 C410.4,58.9 399.8,95.4 368.1,86.3 C329.9,75.3 337.2,19.8 290.6,4.7 C274.2,-0.6 247.6,-2.9 227.8,9.9 C198.6,28.8 195.9,42.1 181.9,53.9 C178.5,56.8 171.7,62 162.4,65.5 C142.4,72.9 123.1,66.7 112.7,63.3 C87.1,54.8 87.7,44.7 69.3,41.5 C54.2,38.9 35.2,42.5 21.7,53.9 C-2.6,74.4 -0.3,112.5 0.8,129.3 C1,132.7 1.3,135.5 1.6,137.4 L568.7,137.4 C565.4,125.7 558.9,115.1 556.6,111.4 Z"></path>
                </g>
            </g>
            <path d="M130.9,1074.8 C130.9,1074.8 -15.7,1085.7 2.3,978.6 C20.3,871.5 80.5,855.9 65.9,769.2 C51.2,682.4 -32.3,521.7 71.9,399 C176.1,276.3 231.2,370.2 253,408.4 C294.7,481.2 243,556 275.1,606.5 C307.2,657 293,712 285.3,775 C277.6,838 357.3,886.3 323.9,978.6 C290.5,1070.9 204.3,1071.1 130.9,1074.8 Z" id="Path" fill="#52CB96" fill-rule="nonzero"></path>
            <path d="M156,724.3 C154.5,724.3 153,723.6 152,722.3 L73.8,617.4 C72.1,615.2 72.6,612.1 74.8,610.4 C77,608.7 80.1,609.2 81.8,611.4 L160,716.3 C161.7,718.5 161.2,721.6 159,723.3 C158.1,723.9 157.1,724.3 156,724.3 Z" id="Path" fill="#F1F2F7" fill-rule="nonzero"></path>
            <path d="M156,607.4 C153.2,607.4 151,605.2 151,602.4 L151,575.2 C151,572.4 153.2,570.2 156,570.2 C158.8,570.2 161,572.4 161,575.2 L161,602.4 C161,605.2 158.8,607.4 156,607.4 Z" id="Path" fill="#F1F2F7" fill-rule="nonzero"></path>
            <path d="M156,872.4 C154.7,872.4 153.4,871.9 152.4,870.9 L113.3,830.1 C111.4,828.1 111.5,824.9 113.4,823 C115.4,821.1 118.6,821.2 120.5,823.1 L159.6,863.9 C161.5,865.9 161.4,869.1 159.5,871 C158.5,872 157.3,872.4 156,872.4 Z" id="Path" fill="#F1F2F7" fill-rule="nonzero"></path>
            <path d="M151,1535.1 L151,481.1 C151,478.3 153.2,476.1 156,476.1 C158.8,476.1 161,478.3 161,481.1 L161,1535.1 L151,1535.1 Z" id="Path" fill="#F1F2F7" fill-rule="nonzero"></path>
            <path d="M156,990.5 C154.8,990.5 153.6,990.1 152.7,989.2 C150.6,987.4 150.5,984.2 152.3,982.1 L242.4,881.6 C244.2,879.5 247.4,879.4 249.5,881.2 C251.6,883 251.7,886.2 249.9,888.3 L159.8,988.8 C158.8,989.9 157.4,990.5 156,990.5 Z" id="Path" fill="#F1F2F7" fill-rule="nonzero"></path>
            <path d="M156,546.6 C154.9,546.6 153.8,546.3 152.9,545.5 C150.7,543.8 150.3,540.7 152,538.5 L190.5,489.2 C192.2,487 195.3,486.6 197.5,488.3 C199.7,490 200.1,493.1 198.4,495.3 L160,544.6 C159,545.9 157.5,546.6 156,546.6 Z" id="Path" fill="#F1F2F7" fill-rule="nonzero"></path>
            <line x1="110.7" y1="1535.1" x2="201.4" y2="1535.1" id="Path" stroke="#CED5E5" stroke-width="3" stroke-linecap="round" stroke-linejoin="round"></line>
            <path d="M1494.2,1535.1 C1494.2,1535.1 1361.9,1405.3 1368.7,1288.5 C1375.5,1171.7 1465.3,1286.3 1478.9,1361.8 C1492.5,1437.3 1494.2,1535.1 1494.2,1535.1 Z" id="Path" fill="#52CB96" fill-rule="nonzero"></path>
            <path d="M1494.2,1535.1 C1494.2,1535.1 1475.4,1252.7 1526.9,1174.5 C1585.6,1085.2 1634.6,1266.4 1615.8,1353.9 C1597.1,1441.6 1494.2,1535.1 1494.2,1535.1 Z" id="Path" fill="#52CB96" fill-rule="nonzero"></path>
            <path d="M1494.2,1535.1 C1494.2,1535.1 1514.6,1507.6 1553.9,1478.9 C1600.6,1444.8 1669.7,1408.5 1701.2,1408.4 C1790.5,1408.1 1750.2,1442.4 1680.4,1472.2 C1610.7,1501.9 1521.4,1527.5 1494.2,1535.1 Z" id="Path" fill="#52CB96" fill-rule="nonzero"></path>
            <line x1="1409" y1="1535.1" x2="1600.5" y2="1535.1" id="Path" stroke="#CED5E5" stroke-width="3" stroke-linecap="round" stroke-linejoin="round"></line>
            <line x1="1494.2" y1="1535.1" x2="1412.3" y2="1311.4" id="Path" stroke="#F1F2F7" stroke-width="4" stroke-linecap="round" stroke-linejoin="round"></line>
            <path d="M1494.2,1535.1 C1494.2,1535.1 1537.3,1438.1 1551.8,1351.7 C1560.3,1301 1560.3,1254 1560.3,1254" id="Path" stroke="#F1F2F7" stroke-width="4" stroke-linecap="round" stroke-linejoin="round"></path>
            <path d="M1494.2,1535.1 C1494.2,1535.1 1580,1482.7 1615.9,1465.6 C1651.8,1448.6 1682.2,1437.8 1682.2,1437.8" id="Path" stroke="#F1F2F7" stroke-width="4" stroke-linecap="round" stroke-linejoin="round"></path>
            <path d="M953.6,295.5 L1378.2,295.5 C1378.2,295.5 1363.5,251.8 1319.2,249 C1274.9,246.2 1254.6,286.4 1221.7,249 C1188.8,211.6 1138.4,201.9 1097.5,229.7 C1056.7,257.5 1033.4,251.8 1023.2,247.3 C1013,242.8 957.5,238.8 953.5,293.2" id="Path" fill="#F1F2F7" fill-rule="nonzero" opacity="0.8"></path>
        </g>
    </g>
</svg>