<?xml version="1.0" standalone="no"?>
<svg width="1317px" height="1101px" viewBox="0 0 1317 1101" version="1.1" xmlns="http://www.w3.org/2000/svg" xmlns:xlink="http://www.w3.org/1999/xlink">
    <!-- Generator: Sketch 63.1 (92452) - https://sketch.com -->
    <title>inspiration</title>
    <desc>Created by Webpixels.</desc>
    <g id="Page-1" stroke="none" stroke-width="1" fill="none" fill-rule="evenodd">
        <g id="inspiration">
            <path d="M5.5,824.9 C5.5,824.9 -29.4,674.5 79.2,579.2 C187.8,483.8 257,477.3 376,448.8 C542.5,409 505.1,252.2 613.7,159.3 C722.3,66.4 824.9,64.4 879.1,147.2 C924.9,217.2 868.9,290.3 879.1,417.5 C886.3,507.7 1021.5,494.7 1042,632.2 C1062.5,769.7 1021.5,842.1 923.8,860.2 C826.1,878.3 688.4,874.7 520.8,936.2 C448.1,962.9 394.9,1006.8 305.4,1013.5 C188.6,1022.3 47.2,1003.8 5.5,824.9 Z" id="Path" fill="#F1F2F7" fill-rule="nonzero"></path>
            <path d="M126.6,603.3 C126.6,603.3 117.2,594.6 132.9,592.1 C148.6,589.7 236.7,590 263.5,592.1 C290.3,594.2 298.8,612.5 298.8,612.5 C298.8,612.5 291.3,627.7 273.8,631 C256.3,634.3 247.5,629.7 247.5,629.7 C247.5,629.7 149.2,611.7 126.6,603.3 Z" id="Path" fill="#FFDFD7" fill-rule="nonzero"></path>
            <path d="M639.9,563.5 L666.4,503.6 L715.5,497.2 L758.9,563.6 C758.9,563.6 730.7,615.9 683.7,612.7 C636.7,609.3 639.9,563.5 639.9,563.5 Z" id="Path" fill="#FFDFD7" fill-rule="nonzero"></path>
            <path d="M635.4,343 C635.4,343 620.9,442.5 620.9,470.3 C620.9,498 665.2,512.2 696.9,506.5 C728.6,500.8 760.2,444.7 760.2,444.7 C760.2,444.7 780.1,397.6 781.6,351.5 C783.1,305.4 722.8,295.7 708.3,296.6 C692.3,297.5 645.7,304.4 635.4,343 Z" id="Path" fill="#FFDFD7" fill-rule="nonzero"></path>
            <path d="M635.1,345.3 C635.1,345.3 616.5,329 621,304.9 C625.4,280.8 654.8,260.3 687.4,271.9 C720,283.6 723,292.4 723,292.4 C723,292.4 735.6,277.5 751.3,281.9 C767,286.3 797.2,311.1 795.5,356.3 C793.2,421 753.5,462 736.2,478.5 L767.3,405.5 C767.3,405.5 759.2,392.1 742.9,398.7 C742.9,398.7 738.1,412 736.3,418.2 L724.4,416.8 C724.4,416.8 729.9,371.6 726.6,347.4 C726.5,347.5 679.4,355.1 635.1,345.3 Z" id="Path" fill="#FE8163" fill-rule="nonzero"></path>
            <path d="M641.8,559.2 L689.2,589.7 L694.9,612.3 L699.4,592.5 L748.7,547.9 L820.3,601.7 L860.4,660 C860.4,660 817,818.7 745.8,830.7 C674.6,842.8 596.2,769.2 581.7,722.1 C567.2,675 596.3,588.8 596.3,588.8 L641.8,559.2 Z" id="Path" fill="#FFFFFF" fill-rule="nonzero"></path>
            <path d="M238.8,638 C238.8,638 261.4,610 302.1,612.7 L398.9,781 C398.9,781 511.1,644.4 595.3,587.4 L701.3,745.8 L822.4,599.2 C822.4,599.2 908.4,677 929.2,712.3 C950,747.6 916.5,1099.6 916.5,1099.6 L560,1099.6 L533.8,795 L420.7,877.3 C420.7,877.3 381.8,902.3 353.7,854.4 C325.7,806.3 238.8,638 238.8,638 Z" id="Path" stroke="#FFB3DA" fill="#8B34FF" fill-rule="nonzero"></path>
            <polygon id="Path" fill="#FFFFFF" fill-rule="nonzero" points="629 551 604.4 579.1 662.3 648.2 689.1 589.7"></polygon>
            <polygon id="Path" fill="#FFFFFF" fill-rule="nonzero" points="755.8 541.4 699.4 592.4 741 648.2 783.2 569.2"></polygon>
            <polyline id="Path" stroke="#F1F2F7" stroke-width="3" stroke-linecap="round" stroke-linejoin="round" points="689.1 589.7 662.3 648.2 604.4 579.1"></polyline>
            <polyline id="Path" stroke="#F1F2F7" stroke-width="3" stroke-linecap="round" stroke-linejoin="round" points="699.4 592.4 741 648.2 783.2 569.2"></polyline>
            <path d="M270,391 C270,352.5 238.5,321.3 199.8,321.9 C162.9,322.5 132.7,352.5 131.8,389.4 C131.4,409.8 139.7,428.1 153.3,441.1 C156.9,444.5 160.2,448.1 163.2,452 L163.2,452 C176.7,469.5 184.1,491 184.1,513.1 L184.1,523.8 L200.8,523.8 L217.5,523.8 L217.5,513.1 C217.5,491 224.8,469.5 238.4,452 L238.4,452 C241.4,448.1 244.8,444.5 248.4,441 C261.7,428.5 270,410.7 270,391 Z" id="Path" fill="#FFC933" fill-rule="nonzero"></path>
            <path d="M209.3,561 L192.6,561 C186.1,561 180.8,555.7 180.8,549.2 L180.8,521.2 C180.8,519.7 182,518.6 183.4,518.6 L218.3,518.6 C219.8,518.6 220.9,519.8 220.9,521.2 L220.9,549.2 C221,555.8 215.7,561 209.3,561 Z" id="Path" fill="#FFFFFF" fill-rule="nonzero"></path>
            <path d="M222.1,530.7 L178.6,530.7 C177.1,530.7 175.9,529.5 175.9,528 L175.9,527.7 C175.9,526.2 177.1,525 178.6,525 L222.1,525 C223.6,525 224.8,526.2 224.8,527.7 L224.8,528 C224.8,529.5 223.6,530.7 222.1,530.7 Z" id="Path" fill="#CED5E5" fill-rule="nonzero"></path>
            <path d="M222.1,542.4 L178.6,542.4 C177.1,542.4 175.9,541.2 175.9,539.7 L175.9,539.4 C175.9,537.9 177.1,536.7 178.6,536.7 L222.1,536.7 C223.6,536.7 224.8,537.9 224.8,539.4 L224.8,539.7 C224.8,541.2 223.6,542.4 222.1,542.4 Z" id="Path" fill="#CED5E5" fill-rule="nonzero"></path>
            <path d="M222.1,554.1 L178.6,554.1 C177.1,554.1 175.9,552.9 175.9,551.4 L175.9,551.1 C175.9,549.6 177.1,548.4 178.6,548.4 L222.1,548.4 C223.6,548.4 224.8,549.6 224.8,551.1 L224.8,551.4 C224.8,552.9 223.6,554.1 222.1,554.1 Z" id="Path" fill="#CED5E5" fill-rule="nonzero"></path>
            <rect id="Rectangle" fill="#FFFFFF" fill-rule="nonzero" x="192.9" y="416.3" width="4.2" height="104"></rect>
            <rect id="Rectangle" fill="#FFFFFF" fill-rule="nonzero" x="203.1" y="416.3" width="4.2" height="104"></rect>
            <circle id="Oval" fill="#FFFFFF" fill-rule="nonzero" cx="189.5" cy="416.3" r="7.5"></circle>
            <circle id="Oval" fill="#FFFFFF" fill-rule="nonzero" cx="210.7" cy="416.3" r="7.5"></circle>
            <line x1="200.9" y1="299.8" x2="200.9" y2="257.5" id="Path" stroke="#FFC933" stroke-width="6" stroke-linecap="round" stroke-linejoin="round"></line>
            <line x1="134" y1="327.5" x2="104.1" y2="297.6" id="Path" stroke="#FFC933" stroke-width="6" stroke-linecap="round" stroke-linejoin="round"></line>
            <line x1="106.3" y1="394.5" x2="64" y2="394.5" id="Path" stroke="#FFC933" stroke-width="6" stroke-linecap="round" stroke-linejoin="round"></line>
            <line x1="134" y1="461.4" x2="104.1" y2="491.3" id="Path" stroke="#FFC933" stroke-width="6" stroke-linecap="round" stroke-linejoin="round"></line>
            <line x1="267.8" y1="461.4" x2="297.7" y2="491.3" id="Path" stroke="#FFC933" stroke-width="6" stroke-linecap="round" stroke-linejoin="round"></line>
            <line x1="295.5" y1="394.5" x2="337.8" y2="394.5" id="Path" stroke="#FFC933" stroke-width="6" stroke-linecap="round" stroke-linejoin="round"></line>
            <line x1="267.8" y1="327.5" x2="297.7" y2="297.6" id="Path" stroke="#FFC933" stroke-width="6" stroke-linecap="round" stroke-linejoin="round"></line>
            <line x1="842.4" y1="778.2" x2="846.6" y2="1099.4" id="Path" stroke="#52CB96" stroke-width="3" stroke-linecap="round" stroke-linejoin="round"></line>
            <circle id="Oval" fill="#CED5E5" fill-rule="nonzero" cx="233.9" cy="180.4" r="15.7"></circle>
            <circle id="Oval" fill="#CED5E5" fill-rule="nonzero" cx="401.5" cy="238.7" r="11.5"></circle>
            <circle id="Oval" fill="#CED5E5" fill-rule="nonzero" cx="18.6" cy="523.3" r="18.4"></circle>
            <circle id="Oval" fill="#CED5E5" fill-rule="nonzero" cx="451.9" cy="537.6" r="12.7"></circle>
            <circle id="Oval" fill="#CED5E5" fill-rule="nonzero" cx="899.9" cy="546.2" r="8.6"></circle>
            <circle id="Oval" fill="#CED5E5" fill-rule="nonzero" cx="961.2" cy="369.2" r="16.6"></circle>
            <circle id="Oval" fill="#CED5E5" fill-rule="nonzero" cx="988.9" cy="126.3" r="11.1"></circle>
            <circle id="Oval" fill="#CED5E5" fill-rule="nonzero" cx="720.3" cy="21" r="21"></circle>
            <path d="M736.199917,418.3 C736.199917,418.3 737.9,392.6 745.4,387.6 C752.9,382.6 758.4,383.1 765.5,386.4 C772.6,389.7 786,408.3 761,436.8 C735.9,465.3 736.199917,418.3 736.199917,418.3 Z" id="Path" fill="#FFDFD7" fill-rule="nonzero"></path>
            <g id="Group" transform="translate(1129.000000, 99.000000)" fill="#52CB96" fill-rule="nonzero">
                <circle id="Oval" cx="101.1" cy="86.3" r="86.3"></circle>
                <polygon id="Path" points="0 172.5 120.6 131.5 61.4 60.9"></polygon>
            </g>
            <g id="Group" transform="translate(1141.000000, 334.000000)" fill="#52CB96" fill-rule="nonzero">
                <rect id="Rectangle" transform="translate(81.681640, 56.641195) rotate(-27.651534) translate(-81.681640, -56.641195) " x="22.5307394" y="48.6410732" width="118.301801" height="16.0002436"></rect>
                <rect id="Rectangle" transform="translate(81.682910, 113.705745) rotate(-60.599799) translate(-81.682910, -113.705745) " x="73.683021" y="53.5565796" width="15.999778" height="120.298331"></rect>
                <circle id="Oval" cx="134.1" cy="143.2" r="28.6"></circle>
                <circle id="Oval" cx="134.1" cy="29.3" r="28.6"></circle>
                <circle id="Oval" cx="29.3" cy="84.1" r="28.6"></circle>
            </g>
            <g id="Group" transform="translate(1149.000000, 587.000000)" fill="#52CB96" fill-rule="nonzero">
                <path d="M147.2,200.2 L0.2,200.2 L0.2,165 C0.2,126.9 31.1,95.9 69.3,95.9 L78.2,95.9 C116.3,95.9 147.3,126.8 147.3,165 L147.3,200.2 L147.2,200.2 Z" id="Path"></path>
                <circle id="Oval" cx="73.7" cy="40" r="39.3"></circle>
            </g>
            <path d="M1222.7,863 C1175.1,863 1136.4,901.6 1136.4,949.3 C1136.4,996.9 1175,1035.6 1222.7,1035.6 C1270.4,1035.6 1309,997 1309,949.3 C1308.9,901.6 1270.3,863 1222.7,863 Z M1197.8,990.1 L1197.8,908.3 L1268.7,949.2 L1197.8,990.1 Z" id="Shape" fill="#52CB96" fill-rule="nonzero"></path>
        </g>
    </g>
</svg>