<?xml version="1.0" standalone="no"?>
<svg width="1348px" height="1046px" viewBox="0 0 1348 1046" version="1.1" xmlns="http://www.w3.org/2000/svg" xmlns:xlink="http://www.w3.org/1999/xlink">
    <!-- Generator: Sketch 63.1 (92452) - https://sketch.com -->
    <title>presentation</title>
    <desc>Created by Webpixels.</desc>
    <g id="Page-1" stroke="none" stroke-width="1" fill="none" fill-rule="evenodd">
        <g id="presentation" transform="translate(1.000000, 0.000000)">
            <line x1="0.7" y1="1008.7" x2="486.6" y2="1008.7" id="Path" stroke="#CED5E5" stroke-width="3" stroke-linecap="round" stroke-linejoin="round"></line>
            <line x1="958.3" y1="1008.7" x2="1298" y2="1008.7" id="Path" stroke="#CED5E5" stroke-width="3" stroke-linecap="round" stroke-linejoin="round"></line>
            <line x1="608.1" y1="1008.7" x2="766.8" y2="1008.7" id="Path" stroke="#CED5E5" stroke-width="3" stroke-linecap="round" stroke-linejoin="round"></line>
            <line x1="807" y1="1008.7" x2="834.4" y2="1008.7" id="Path" stroke="#CED5E5" stroke-width="3" stroke-linecap="round" stroke-linejoin="round"></line>
            <path d="M584.9,2.7 C584.9,2.7 469.9,-0.2 444,96.2 C418.1,192.6 467,248.3 409.5,298.1 C352,347.9 301.7,392.3 375,523.1 C448.3,653.9 596.4,588.2 626.6,708.8 C656.8,829.4 678.4,892.6 863.8,892.6 C1049.2,892.6 1065.1,731.6 988.9,672.6 C912.7,613.6 777.6,567.6 806.3,479.9 C817.5,445.7 896.5,406.6 871,290.1 C848,185.1 731.5,218.2 730.1,97.4 C728.7,-20.3 584.9,2.7 584.9,2.7 Z" id="Path" fill="#F1F2F7" fill-rule="nonzero"></path>
            <rect id="Rectangle" fill="#8B34FF" fill-rule="nonzero" x="624.7" y="99.7" width="561.4" height="387.7"></rect>
            <rect id="Rectangle" fill="#FFB3DA" fill-rule="nonzero" x="663.3" y="138.3" width="561.4" height="387.7"></rect>
            <polygon id="Path" fill="#52CB96" fill-rule="nonzero" points="1176 916.3 1203.7 733.2 1209.8 685.6 1215.6 686.8 1209.1 916.3"></polygon>
            <path d="M1187,843.5 C1187,843.5 1087.4,807.6 1071.7,746.7 C1056,685.9 1124.7,751.9 1144.3,780.7 C1164,809.6 1187,843.5 1187,843.5 Z" id="Path" fill="#52CB96" fill-rule="nonzero"></path>
            <path d="M1212.4,798.5 C1212.4,798.5 1252.8,693.8 1311.7,674.9 C1370.6,655.9 1341.1,706.2 1320.2,723.3 C1299.3,740.3 1212.4,798.5 1212.4,798.5 Z" id="Path" fill="#52CB96" fill-rule="nonzero"></path>
            <rect id="Rectangle" fill="#ED85C3" fill-rule="nonzero" x="663.3" y="138.3" width="561.4" height="41"></rect>
            <path d="M1198.3,769.2 C1198.3,769.2 1149.7,758.9 1127.5,726.2 C1105.3,693.5 1134,696.8 1149.1,709.8 C1164.2,722.9 1198.3,769.2 1198.3,769.2 Z" id="Path" fill="#52CB96" fill-rule="nonzero"></path>
            <path d="M1203.8,734.6 C1203.8,734.6 1152.7,671.7 1150.6,629.1 C1148.5,586.5 1189,620.6 1196.7,671 C1204.4,721.4 1203.8,734.6 1203.8,734.6 Z" id="Path" fill="#52CB96" fill-rule="nonzero"></path>
            <path d="M1209.5,702.8 C1209.5,702.8 1207.4,578.3 1247.3,550.9 C1287.2,523.4 1261.7,613.1 1242.1,651 C1222.5,688.9 1209.5,702.8 1209.5,702.8 Z" id="Path" fill="#52CB96" fill-rule="nonzero"></path>
            <polyline id="Path" stroke="#FFFFFF" stroke-width="3" stroke-linecap="round" stroke-linejoin="round" points="766.8 242 766.8 426.8 1135.9 426.8"></polyline>
            <path d="M1092.4,247.1 C1092.4,247.1 1060.8,317.5 968,366.4 C875.3,415.3 766.7,426.8 766.7,426.8" id="Path" stroke="#FFFFFF" stroke-width="3" stroke-linecap="round" stroke-linejoin="round"></path>
            <polyline id="Path" stroke="#FFFFFF" stroke-width="3" stroke-linecap="round" stroke-linejoin="round" points="1069.4 258.7 1092.4 247.1 1096.6 270.8"></polyline>
            <rect id="Rectangle" stroke="#FFFFFF" stroke-width="3" stroke-linecap="round" stroke-linejoin="round" x="1161.3" y="149.5" width="18" height="18"></rect>
            <g id="Group" transform="translate(1192.000000, 149.000000)" stroke="#FFFFFF" stroke-linecap="round" stroke-linejoin="round" stroke-width="3">
                <line x1="0.1" y1="0.5" x2="18.5" y2="18.8" id="Path"></line>
                <line x1="18.5" y1="0.5" x2="0.1" y2="18.8" id="Path"></line>
            </g>
            <path d="M268.8,879.4 L254.5,984.3 C254.5,984.3 245.9,992.7 235.8,992.2 C225.7,991.7 220.9,981.7 220.9,981.7 L218.5,886 C218.5,885.9 235.8,872.9 268.8,879.4 Z" id="Path" fill="#FFDFD7" fill-rule="nonzero"></path>
            <path d="M189.1,892.3 L174.2,996 C174.2,996 155.5,1014.7 139.9,992.2 L135.8,896.1 L189.1,892.3 Z" id="Path" fill="#FFDFD7" fill-rule="nonzero"></path>
            <path d="M288.3,593.3 L299.7,866.4 C299.7,866.4 291.9,873.9 256.6,882.6 C221.3,891.2 204.6,882.6 204.6,882.6 L204.6,635.9 L214.4,592.2 L288.3,593.3 Z" id="Path" fill="#5900CC" fill-rule="nonzero"></path>
            <path d="M105.2,584.3 C105.2,584.3 102.8,700.8 96.1,747.3 C89.4,793.8 79.2,895.4 79.2,895.4 C79.2,895.4 112.1,911.3 162.7,903 C203.3,896.4 204.6,891.9 204.6,891.9 L204.6,636 L214.4,592.3 L153.1,571.8 L105.2,577.6 L105.2,584.3 Z" id="Path" fill="#5900CC" fill-rule="nonzero"></path>
            <path d="M215.7,114.9 C215.7,114.9 226.7,110.1 228.4,102.2 C230.1,94.3 227.2,74.4 200.8,80.9 C200.8,80.9 199.4,67.5 181.2,66.5 C163,65.5 155.6,76.8 158,90.7 C158,90.7 144.6,83.5 130,94.8 C115.4,106.1 121.1,132.9 121.1,132.9 C121.1,132.9 107.4,122.8 89.9,138.7 C72.4,154.5 84.4,179.2 103.1,192.1 C103.1,192.1 93.5,201 103.8,216.1 C114.1,231.2 145,239.7 169.9,224.5 C169.9,224.5 181.2,217.7 183.1,208.9 C185,200 169.4,149 175.9,136.3 C182.3,123.6 195.8,115.4 215.7,114.9 Z" id="Path" fill="#ED85C3" fill-rule="nonzero"></path>
            <path d="M215.7,114.9 C215.7,114.9 227.1,144.4 229.1,153.4 C231.1,162.4 230.5,186 224.5,191.7 C218.5,197.5 201.3,196.5 191.3,191.7 C181.4,186.9 163.9,180.1 158.2,174.3 C156.1,172.2 148.4,160.9 156.4,156.1 C164.4,151.3 170.2,161.1 170.2,161.1 C170.2,161.1 161.8,128.8 184.2,117.8 C207.1,106.8 215.7,114.9 215.7,114.9 Z" id="Path" fill="#FFDFD7" fill-rule="nonzero"></path>
            <path d="M177.2,185.3 L173.6,224.5 C173.6,224.5 171,234.1 175,241.6 C178.8,248.8 186.6,258.5 196,260.2 C202.3,261.3 210.7,259.7 214.3,258.9 C221.7,257.3 208.7,250 208.7,250 L193,192.5 C193,192.5 188.8,183.3 177.2,185.3 Z" id="Path" fill="#FFDFD7" fill-rule="nonzero"></path>
            <path d="M173.6,224.5 C173.6,224.5 154.3,241.2 127,282.2 C99.7,323.2 71.6,413.4 71.6,413.4 L114.3,431.3 L98.5,587 C98.5,587 122.9,573.6 170.4,583.6 C217.8,593.7 258.6,601.8 304.1,589.8 L263.4,417.8 L317.1,366.5 C317.1,366.5 230,255.9 204.1,232.4 C204.1,232.4 202.9,235.7 192.3,234.7 C178.3,233.4 173.6,224.5 173.6,224.5 Z" id="Path" fill="#52CB96" fill-rule="nonzero"></path>
            <polygon id="Path" fill="#FFDFD7" fill-rule="nonzero" points="86.2 419.5 83.6 593.7 100.4 598.5 126.8 436.5"></polygon>
            <polyline id="Path" fill="#FFDFD7" fill-rule="nonzero" points="305.2 377.8 386.7 453.5 380.8 470.5 269.8 411.7"></polyline>
            <path d="M220.9,981.7 C220.9,981.7 219.5,986.5 219.5,993.7 C219.5,1000.9 220.9,1017.7 220.9,1017.7 L329.7,1021.7 C329.7,1021.7 325.5,1011.2 312.6,1004 C304.5,999.5 281,985.8 254.5,984.5 C254.5,984.5 243,989.4 235.2,988.1 C227.4,986.6 220.9,981.7 220.9,981.7 Z" id="Path" fill="#ED85C3" fill-rule="nonzero"></path>
            <path d="M139.9,992.2 C139.9,992.2 138.6,994.8 136.8,1002.1 C135,1009.4 133.6,1023.4 133.6,1023.4 C133.6,1023.4 226.5,1043.4 239.2,1045.8 C239.2,1045.8 231.7,1026.4 214.5,1014.9 C197.2,1003.4 174.3,996 174.3,996 C174.3,996 163.1,1000.3 156.3,999.4 C149.4,998.5 141.7,994.2 139.9,992.2 Z" id="Path" fill="#ED85C3" fill-rule="nonzero"></path>
            <polyline id="Path" stroke="#37B37F" stroke-width="3" stroke-linecap="round" stroke-linejoin="round" points="156.7 335.6 143.5 443.2 71.6 413.4"></polyline>
            <line x1="304.1" y1="589.9" x2="242.3" y2="335.6" id="Path" stroke="#37B37F" stroke-width="3" stroke-linecap="round" stroke-linejoin="round"></line>
            <path d="M204.6,635.9 L204.6,882.6 L204.6,891.9 C204.6,891.9 198.3,898.6 154,904.3 C109.7,910 79.2,895.5 79.2,895.5" id="Path" stroke="#8B34FF" stroke-width="3" stroke-linecap="round" stroke-linejoin="round"></path>
            <path d="M100.4,598.5 C100.4,598.5 109.4,620.2 109.8,623.6 C110.3,627 110.8,630.2 107.3,629.5 C104.5,629 97.4,617.3 97.4,617.3 L100.4,598.5 Z" id="Path" fill="#FFDFD7" fill-rule="nonzero"></path>
            <path d="M100.4,598.5 L83.7,591.4 C83.7,591.4 70.7,614.8 65.2,628.9 C63.8,632.6 64,636.2 65.1,639.4 L75.9,617.4 C76.1,617.1 76.4,617 76.7,617.1 C77,617.3 77.1,617.6 77,617.9 L65.9,640.5 C65.8,640.6 65.7,640.7 65.6,640.8 C66.4,642.7 67.6,644.5 68.8,646.1 L81.1,618.8 C81.2,618.5 81.6,618.3 81.9,618.5 C82.2,618.6 82.4,619 82.2,619.3 L69.7,646.8 C69.7,646.9 69.6,646.9 69.5,647 C70.6,648.2 71.8,649.3 72.9,650.1 L86.8,622.1 C87,621.8 87.3,621.7 87.7,621.8 C88,622 88.1,622.3 88,622.6 L74,650.7 C74,650.7 74,650.7 73.9,650.8 C77,652.8 79.8,653.3 80.9,651.8 C82.6,649.3 92.5,630.9 97.2,617.1 C101.3,605.9 100.4,598.5 100.4,598.5 Z" id="Path" fill="#FFDFD7" fill-rule="nonzero"></path>
            <path d="M386.7,453.5 C386.7,453.5 407.5,442.7 410.8,441.9 C414.1,441.1 417.3,440.4 416.9,443.9 C416.6,446.8 405.6,454.8 405.6,454.8 L386.7,453.5 Z" id="Path" fill="#FFDFD7" fill-rule="nonzero"></path>
            <path d="M407.7,476.2 C407.4,476.1 407.2,475.7 407.3,475.4 C407.4,475.1 407.8,474.9 408.1,475 L431.6,484.1 C431.7,484.2 431.9,484.3 431.9,484.4 C433.7,483.4 435.4,482.1 436.9,480.7 L408.7,470.8 C408.4,470.7 408.2,470.3 408.3,470 C408.4,469.7 408.8,469.5 409.1,469.6 L437.6,479.6 C437.7,479.6 437.8,479.7 437.8,479.7 C439.2,478.2 440.3,476.6 441.1,475.1 L411.5,464.6 C411.2,464.5 411,464.1 411.1,463.8 C411.2,463.5 411.6,463.3 411.9,463.4 L441.6,473.9 C441.6,473.9 441.6,473.9 441.7,473.9 C443,471.1 443.1,468.6 441.6,467.8 C439,466.3 419.8,458.1 405.6,454.6 C393.9,451.7 386.6,453.3 386.6,453.3 L380.7,470.4 C380.7,470.4 405.5,481.5 420.1,485.7 C423.9,486.8 427.5,486.3 430.6,484.9 L407.7,476.2 Z" id="Path" fill="#FFDFD7" fill-rule="nonzero"></path>
            <path d="M1226.8,781.7 C1226.8,781.7 1279.8,718.6 1312.9,694.9 C1312.9,694.9 1321.2,688.4 1344.3,674.6" id="Path" stroke="#FFFFFF" stroke-width="2" stroke-linecap="round" stroke-linejoin="round"></path>
            <path d="M1071.6,724 C1071.6,724 1152.9,810.2 1174.4,833.7" id="Path" stroke="#FFFFFF" stroke-width="2" stroke-linecap="round" stroke-linejoin="round"></path>
            <path d="M1120.9,702.8 C1120.9,702.8 1168.2,744.3 1185,760.2" id="Path" stroke="#FFFFFF" stroke-width="2" stroke-linecap="round" stroke-linejoin="round"></path>
            <line x1="1156.4" y1="610.3" x2="1199.7" y2="721.9" id="Path" stroke="#FFFFFF" stroke-width="2" stroke-linecap="round" stroke-linejoin="round"></line>
            <line x1="1254.9" y1="546.4" x2="1215.6" y2="686.8" id="Path" stroke="#FFFFFF" stroke-width="2" stroke-linecap="round" stroke-linejoin="round"></line>
            <line x1="1300.6" y1="704.7" x2="1299.1" y2="680.3" id="Path" stroke="#FFFFFF" stroke-width="2" stroke-linecap="round" stroke-linejoin="round"></line>
            <line x1="1277.3" y1="726.5" x2="1275.9" y2="696.5" id="Path" stroke="#FFFFFF" stroke-width="2" stroke-linecap="round" stroke-linejoin="round"></line>
            <line x1="1257.7" y1="746.9" x2="1256.9" y2="717.2" id="Path" stroke="#FFFFFF" stroke-width="2" stroke-linecap="round" stroke-linejoin="round"></line>
            <line x1="1300.6" y1="704.7" x2="1332.7" y2="710.2" id="Path" stroke="#FFFFFF" stroke-width="2" stroke-linecap="round" stroke-linejoin="round"></line>
            <line x1="1277.3" y1="726.5" x2="1309.5" y2="733" id="Path" stroke="#FFFFFF" stroke-width="2" stroke-linecap="round" stroke-linejoin="round"></line>
            <line x1="1257.7" y1="746.9" x2="1281.1" y2="751.6" id="Path" stroke="#FFFFFF" stroke-width="2" stroke-linecap="round" stroke-linejoin="round"></line>
            <line x1="1242.7" y1="763.5" x2="1241.5" y2="741.3" id="Path" stroke="#FFFFFF" stroke-width="2" stroke-linecap="round" stroke-linejoin="round"></line>
            <line x1="1260.9" y1="765.5" x2="1242.7" y2="763.5" id="Path" stroke="#FFFFFF" stroke-width="2" stroke-linecap="round" stroke-linejoin="round"></line>
            <line x1="1243.5" y1="587.1" x2="1266.2" y2="580.9" id="Path" stroke="#FFFFFF" stroke-width="2" stroke-linecap="round" stroke-linejoin="round"></line>
            <line x1="1236" y1="613.9" x2="1259.2" y2="608.2" id="Path" stroke="#FFFFFF" stroke-width="2" stroke-linecap="round" stroke-linejoin="round"></line>
            <line x1="1229.2" y1="638.4" x2="1250" y2="633.7" id="Path" stroke="#FFFFFF" stroke-width="2" stroke-linecap="round" stroke-linejoin="round"></line>
            <line x1="1222.6" y1="662" x2="1237.4" y2="659.9" id="Path" stroke="#FFFFFF" stroke-width="2" stroke-linecap="round" stroke-linejoin="round"></line>
            <line x1="1243.5" y1="587.1" x2="1230.5" y2="572.1" id="Path" stroke="#FFFFFF" stroke-width="2" stroke-linecap="round" stroke-linejoin="round"></line>
            <line x1="1236" y1="613.9" x2="1221.4" y2="596.4" id="Path" stroke="#FFFFFF" stroke-width="2" stroke-linecap="round" stroke-linejoin="round"></line>
            <line x1="1229.2" y1="638.4" x2="1216" y2="620.8" id="Path" stroke="#FFFFFF" stroke-width="2" stroke-linecap="round" stroke-linejoin="round"></line>
            <line x1="1222.6" y1="662" x2="1212.4" y2="646.4" id="Path" stroke="#FFFFFF" stroke-width="2" stroke-linecap="round" stroke-linejoin="round"></line>
            <line x1="1163.9" y1="629.6" x2="1171.5" y2="616.6" id="Path" stroke="#FFFFFF" stroke-width="2" stroke-linecap="round" stroke-linejoin="round"></line>
            <line x1="1172.8" y1="652.5" x2="1182.9" y2="631.6" id="Path" stroke="#FFFFFF" stroke-width="2" stroke-linecap="round" stroke-linejoin="round"></line>
            <line x1="1181.8" y1="675.7" x2="1192" y2="651.7" id="Path" stroke="#FFFFFF" stroke-width="2" stroke-linecap="round" stroke-linejoin="round"></line>
            <line x1="1188.9" y1="693.9" x2="1197.2" y2="674.6" id="Path" stroke="#FFFFFF" stroke-width="2" stroke-linecap="round" stroke-linejoin="round"></line>
            <line x1="1163.9" y1="629.6" x2="1150.6" y2="630.1" id="Path" stroke="#FFFFFF" stroke-width="2" stroke-linecap="round" stroke-linejoin="round"></line>
            <line x1="1172.8" y1="652.5" x2="1155.7" y2="653" id="Path" stroke="#FFFFFF" stroke-width="2" stroke-linecap="round" stroke-linejoin="round"></line>
            <line x1="1181.8" y1="675.7" x2="1165.5" y2="675.7" id="Path" stroke="#FFFFFF" stroke-width="2" stroke-linecap="round" stroke-linejoin="round"></line>
            <line x1="1188.9" y1="693.9" x2="1175.5" y2="693.8" id="Path" stroke="#FFFFFF" stroke-width="2" stroke-linecap="round" stroke-linejoin="round"></line>
            <line x1="1131.8" y1="712.4" x2="1134.6" y2="701.7" id="Path" stroke="#FFFFFF" stroke-width="2" stroke-linecap="round" stroke-linejoin="round"></line>
            <line x1="1149.1" y1="709.8" x2="1146.9" y2="725.8" id="Path" stroke="#FFFFFF" stroke-width="2" stroke-linecap="round" stroke-linejoin="round"></line>
            <line x1="1164.3" y1="725.9" x2="1164.3" y2="741.2" id="Path" stroke="#FFFFFF" stroke-width="2" stroke-linecap="round" stroke-linejoin="round"></line>
            <line x1="1131.8" y1="712.4" x2="1120.9" y2="714.3" id="Path" stroke="#FFFFFF" stroke-width="2" stroke-linecap="round" stroke-linejoin="round"></line>
            <line x1="1146.9" y1="725.8" x2="1128.9" y2="728.2" id="Path" stroke="#FFFFFF" stroke-width="2" stroke-linecap="round" stroke-linejoin="round"></line>
            <line x1="1164.3" y1="741.2" x2="1146" y2="745.2" id="Path" stroke="#FFFFFF" stroke-width="2" stroke-linecap="round" stroke-linejoin="round"></line>
            <line x1="1176" y1="751.9" x2="1176" y2="740.2" id="Path" stroke="#FFFFFF" stroke-width="2" stroke-linecap="round" stroke-linejoin="round"></line>
            <line x1="1161.3" y1="755" x2="1176" y2="751.9" id="Path" stroke="#FFFFFF" stroke-width="2" stroke-linecap="round" stroke-linejoin="round"></line>
            <line x1="1089.7" y1="743.2" x2="1091.8" y2="728.2" id="Path" stroke="#FFFFFF" stroke-width="2" stroke-linecap="round" stroke-linejoin="round"></line>
            <line x1="1108.5" y1="763.3" x2="1112" y2="744.4" id="Path" stroke="#FFFFFF" stroke-width="2" stroke-linecap="round" stroke-linejoin="round"></line>
            <line x1="1134" y1="767.5" x2="1132" y2="788.2" id="Path" stroke="#FFFFFF" stroke-width="2" stroke-linecap="round" stroke-linejoin="round"></line>
            <line x1="1152.5" y1="792.7" x2="1151.6" y2="809.2" id="Path" stroke="#FFFFFF" stroke-width="2" stroke-linecap="round" stroke-linejoin="round"></line>
            <line x1="1131.9" y1="815.9" x2="1151.6" y2="809.2" id="Path" stroke="#FFFFFF" stroke-width="2" stroke-linecap="round" stroke-linejoin="round"></line>
            <line x1="1103.7" y1="794.7" x2="1132" y2="788.2" id="Path" stroke="#FFFFFF" stroke-width="2" stroke-linecap="round" stroke-linejoin="round"></line>
            <line x1="1108.5" y1="763.3" x2="1080.3" y2="766.9" id="Path" stroke="#FFFFFF" stroke-width="2" stroke-linecap="round" stroke-linejoin="round"></line>
            <line x1="1089.7" y1="743.2" x2="1071.2" y2="744.5" id="Path" stroke="#FFFFFF" stroke-width="2" stroke-linecap="round" stroke-linejoin="round"></line>
            <path d="M204.6,882.6 C204.6,882.6 217,890 247.8,884.5 C278.6,879 294.9,870.2 299.7,866.5" id="Path" stroke="#8B34FF" stroke-width="3" stroke-linecap="round" stroke-linejoin="round"></path>
            <polygon id="Path" fill="#FFC933" fill-rule="nonzero" points="1195.5 916.3 1115.8 916.3 1136.6 1032 1195.5 1032 1254.5 1032 1275.3 916.3"></polygon>
        </g>
    </g>
</svg>