<?xml version="1.0" standalone="no"?>
<svg width="1278px" height="1170px" viewBox="0 0 1278 1170" version="1.1" xmlns="http://www.w3.org/2000/svg" xmlns:xlink="http://www.w3.org/1999/xlink">
    <!-- Generator: Sketch 63.1 (92452) - https://sketch.com -->
    <title>team-work</title>
    <desc>Created by Webpixels.</desc>
    <g id="Page-1" stroke="none" stroke-width="1" fill="none" fill-rule="evenodd">
        <g id="team-work" transform="translate(1.000000, 0.000000)">
            <polygon id="Path" fill="#FFDFD7" fill-rule="nonzero" points="66.5 1060.1 59.3 1101.5 58.7 1110 86.4 1116.3 92.9 1108.3 106 1049.8"></polygon>
            <path d="M59.3,1101.5 C59.3,1101.5 54.5,1102.3 53.8,1107.4 C53.1,1112.5 49.8,1134.6 49.8,1134.6 C49.8,1134.6 47.6,1141.1 63.3,1144.2 C79,1147.3 154.9,1161.9 154.9,1161.9 C154.9,1161.9 155.6,1152.2 150.4,1143.8 C138,1123.7 92.9,1108.3 92.9,1108.3 C92.9,1108.3 86.3,1112.1 74.4,1109.8 C62.5,1107.5 59.3,1101.5 59.3,1101.5 Z" id="Path" fill="#37B37F" fill-rule="nonzero"></path>
            <path d="M80.5,695.1 C80.5,695.1 63.6,731.3 68.1,776.7 C79.7,893 43.8,1086.3 43.8,1086.3 L113.7,1097.7 C113.7,1097.7 153.9,855.3 160.1,816 C166.3,776.7 174,695.2 174,695.2 L80.5,695.2 L80.5,695.1 Z" id="Path" fill="#283444" fill-rule="nonzero"></path>
            <path d="M790.4,416.9 C790.4,416.9 758.4,400.8 747.6,384.5 C736.8,368.2 746.7,353.5 753.3,352.2 C759.9,350.9 785,377.1 785,377.1 C785,377.1 780.8,364 786.5,361.2 C792.2,358.4 805,398.3 805,398.3 L790.4,416.9 Z" id="Path" fill="#FFDFD7" fill-rule="nonzero"></path>
            <path d="M985.3,510.8 C985.3,510.8 918.7,481.3 881.8,459.3 C846.3,438.1 805.3,397.2 805.3,397.2 L788.5,415.9 C788.5,415.9 789.5,418 790.1,419.4 C796.8,434.3 891.8,533.4 972.8,563.8 L985.3,510.8 Z" id="Path" fill="#283444" fill-rule="nonzero"></path>
            <path d="M109.8,536.4 C109.8,536.4 122.9,462.4 199.4,466 C276,469.5 297.5,641.1 409.8,623.9 C522.1,606.7 500.5,595.4 584.4,542.1 C668.3,488.8 802.1,545.5 880.3,696.3 C958.5,847.1 1103.7,706.9 1239.7,818.4 C1375.8,929.9 1108.2,1069.9 896,971.8 C683.8,873.7 417.6,988.8 317.9,958.8 C218.2,928.8 72.9,715.6 109.8,536.4 Z" id="Path" fill="#F1F2F7" fill-rule="nonzero"></path>
            <path d="M614.5,1027.1 C614.5,1027.1 515.4,885.7 515.599698,799.7 C515.8,713.7 607.7,703.5 614.5,824.3 C621.3,945 614.5,1027.1 614.5,1027.1 Z" id="Path" fill="#ED85C3" fill-rule="nonzero"></path>
            <path d="M614.5,1027.1 C614.5,1027.1 626.4,890.7 699.5,851.6 C772.6,812.5 793.6,865.7 787.4,880.8 C781.1,895.8 614.5,1027.1 614.5,1027.1 Z" id="Path" fill="#ED85C3" fill-rule="nonzero"></path>
            <path d="M614.5,1027.1 C614.5,1027.1 571.5,970.6 515.6,968.1 C459.7,965.5 521.1,1006.3 614.5,1027.1 Z" id="Path" fill="#ED85C3" fill-rule="nonzero"></path>
            <line x1="614.5" y1="1027.1" x2="554.4" y2="795.8" id="Path" stroke="#FFFFFF" stroke-width="3" stroke-linecap="round" stroke-linejoin="round"></line>
            <path d="M719.9,886.7 C660.9,928.3 614.5,1027.1 614.5,1027.1 C614.5,1027.1 563.5,989.9 523,981.6" id="Path" stroke="#FFFFFF" stroke-width="3" stroke-linecap="round" stroke-linejoin="round"></path>
            <line x1="878.2" y1="1163.2" x2="1261.4" y2="1163.2" id="Path" stroke="#CED5E5" stroke-width="3" stroke-linecap="round" stroke-linejoin="round"></line>
            <path d="M1005.6,1126.8 C1005.6,1126.8 1006.6,1128.9 1008.1,1134.6 C1009.5,1140.4 1010.7,1151.4 1010.7,1151.4 L978.3,1162.2 C964.6,1166.8 950.2,1169.1 935.7,1169.1 L927.5,1169.1 C927.5,1169.1 933.4,1153.8 947,1144.7 C960.6,1135.6 978.7,1129.8 978.7,1129.8 C978.7,1129.8 987.5,1133.2 992.9,1132.5 C998.2,1131.8 1004.2,1128.4 1005.6,1126.8 Z" id="Path" fill="#ED85C3" fill-rule="nonzero"></path>
            <path d="M1125.4,1105.2 C1125.4,1105.2 1126.9,1107 1129.5,1112.3 C1132.1,1117.6 1135.6,1128.2 1135.6,1128.2 C1135.6,1128.2 1108.2,1145 1085.5,1155.2 C1073.1,1160.8 1061.4,1163 1058,1163.1 C1058,1163.1 1060.5,1146.9 1071.9,1135.1 C1083.3,1123.3 1099.7,1113.8 1099.7,1113.8 C1099.7,1113.8 1109,1115.3 1114.1,1113.4 C1119.2,1111.5 1124.4,1107 1125.4,1105.2 Z" id="Path" fill="#ED85C3" fill-rule="nonzero"></path>
            <polygon id="Path" fill="#FFDFD7" fill-rule="nonzero" points="201.8 1090.4 210.8 1122.1 215 1133.4 243.1 1133.4 245.2 1122.1 233.6 1064.7"></polygon>
            <path d="M173.3,701.7 L263.4,1107 L192.1,1107 C192.1,1107 85.1,779.4 78.8,746.8 C72.6,714.2 78.9,692.2 78.9,692.2 L173.3,701.7 Z" id="Path" fill="#283444" fill-rule="nonzero"></path>
            <path d="M192.1,1107 C192.1,1107 85.1,779.4 78.8,746.8 C72.6,714.2 78.9,692.2 78.9,692.2" id="Path" stroke="#CED5E5" stroke-width="3" stroke-linecap="round" stroke-linejoin="round"></path>
            <path d="M1090.7,753 L1128.9,1107.4 C1128.9,1107.4 1115.6,1117.4 1091.7,1118.6 L1065.1,1015.6 L1001.3,757.1 C1001.3,757 1062.6,729.8 1090.7,753 Z" id="Path" fill="#CED5E5" fill-rule="nonzero"></path>
            <path d="M344,339 L359,326.7 L371,285.3 C371,285.3 377.7,281 375,304 C375,304 390.7,285 400.9,278.2 C411.1,271.4 418.6,298.5 412.5,308.7 C408.3,315.7 358.3,356.5 358.3,356.5 L344,339 Z" id="Path" fill="#FFDFD7" fill-rule="nonzero"></path>
            <circle id="Oval" fill="#FFB3DA" fill-rule="nonzero" cx="524" cy="190.9" r="190.5"></circle>
            <path d="M372.1,350.3 L387.1,338 L399.1,296.6 C399.1,296.6 405.8,292.3 403.1,315.3 C403.1,315.3 418.8,296.3 429,289.5 C439.2,282.7 446.7,309.8 440.6,320 C436.4,327 386.4,367.8 386.4,367.8 L372.1,350.3 Z" id="Path" fill="#FFDFD7" fill-rule="nonzero"></path>
            <path d="M129,466.7 C129,466.7 134.4,447.2 134.5,432.1 L150.9,439.7 L154.8,469 L129,466.7 Z" id="Path" fill="#FFDFD7" fill-rule="nonzero"></path>
            <path d="M168.2,467.4 L341.5,336.6 C341.5,336.6 355.2,338.8 362.4,353.1 L191.5,504.7 C191.5,504.7 168.2,502.1 168.2,467.4 Z" id="Path" fill="#52CB96" fill-rule="nonzero"></path>
            <path d="M133.4,464.1 C133.4,464.1 107,471.8 84.1,542.3 C61.2,612.8 51.2,716.3 51.2,716.3 C51.2,716.3 81.8,714.6 201.4,720.8 L200.3,544.5 L387,370.7 C387,370.7 384.2,353.6 370.1,347.6 L216.4,465.1 L190,479.5 C190.1,479.4 155.5,454.5 133.4,464.1 Z" id="Path" fill="#52CB96" fill-rule="nonzero"></path>
            <path d="M134.4,435.8 C134.4,435.8 117.4,429.2 101.1,396.2 C77.6,348.8 103.4,332 129,326.9 C155.8,321.6 166.7,364.8 173.4,388.3 C180,411.8 184.7,424.7 178.9,430.1 C173,435.6 160.8,441.7 151.5,443.7 C142.1,445.8 134.4,435.8 134.4,435.8 Z" id="Path" fill="#FFDFD7" fill-rule="nonzero"></path>
            <path d="M134.4,435.8 C134.4,435.8 108.7,428 96.4,402.6 C84.1,377.2 78.8,356.1 93.7,342.4 C108.6,328.7 108,315.2 139.6,316.2 C171.3,317.2 163.7,342.6 159.2,347.6 C154.7,352.6 142,359.4 142,359.4 L151.6,396.5 L146.9,399.4 C146.9,399.4 146.3,387.9 138.9,383.6 C131.5,379.3 123.9,387.1 130.9,401.4 C137.8,415.7 135.9,423.4 134.4,435.8 Z" id="Path" fill="#283444" fill-rule="nonzero"></path>
            <path d="M370.1,347.6 L216.4,465.1 L190,479.5 C190,479.5 172.5,469.9 168.1,467.4" id="Path" stroke="#37B37F" stroke-width="3" stroke-linecap="round" stroke-linejoin="round"></path>
            <path d="M974.3,768.3 L974.3,1128.2 C974.3,1128.2 988.5,1139.1 1004.9,1129.3 C1021.2,1119.5 1099.8,735.6 1099.8,735.6 C1099.8,735.6 1003.6,735.6 974.3,768.3 Z" id="Path" fill="#CED5E5" fill-rule="nonzero"></path>
            <rect id="Rectangle" fill="#52CB96" fill-rule="nonzero" opacity="0.8" x="531.4" y="198.8" width="275.5" height="275.5"></rect>
            <path d="M760.9,492.9 C760.9,492.9 728.9,476.8 718.1,460.5 C707.3,444.2 717.2,429.5 723.8,428.2 C730.4,426.9 755.5,453.1 755.5,453.1 C755.5,453.1 751.3,440 757,437.2 C762.7,434.4 775.5,474.3 775.5,474.3 L760.9,492.9 Z" id="Path" fill="#FFDFD7" fill-rule="nonzero"></path>
            <path d="M1099.8,735.6 L1095.3,757.3 L1038.1,1017 C1038.1,1017 1021.7,1093.3 1006.4,1127.5" id="Path" stroke="#F1F2F7" stroke-width="3" stroke-linecap="round" stroke-linejoin="round"></path>
            <path d="M946.2,394.4 C946.2,394.4 945.8,437.9 954.5,460.9 C963.2,484 975.5,481.3 999,465.1 C1022.5,448.8 1017.6,427.7 1016.5,414.5 C1015.4,401.3 1007.1,374.4 981.9,371.4 C956.7,368.4 948.4,384.9 946.2,394.4 Z" id="Path" fill="#FFDFD7" fill-rule="nonzero"></path>
            <path d="M985.3,466.3 C985.3,466.3 991.7,479.1 987.7,501.3 L1014.8,497.9 C1014.8,497.9 1001.7,465.5 1000.5,451.1 L985.3,466.3 Z" id="Path" fill="#FFDFD7" fill-rule="nonzero"></path>
            <path d="M946.2,394.4 C946.2,394.4 950.6,412.5 971.8,409.3 C971.8,409.3 984.9,471.2 1010.9,490.2 C1010.9,490.2 1072.3,482.9 1084.5,465 C1084.5,465 1032.1,405.2 1017.6,383.6 C1003.1,362.1 979.5,357.5 964.8,364.9 C950.1,372.3 942.2,383.9 946.2,394.4 Z" id="Path" fill="#FFC022" fill-rule="nonzero"></path>
            <path d="M761,494.1 C761,494.1 883,580.7 972.5,610.4 L982.9,534.3 C982.9,534.3 893.9,518.3 857.3,504.7 C820.7,491.1 777.9,473.8 777.9,473.8 C777.9,473.8 759,476.4 761,494.1 Z" id="Path" fill="#283444" fill-rule="nonzero"></path>
            <path d="M955.4,788.1 C955.4,788.1 971.8,666.4 972.4,627.6 C973,588.9 967.3,503.4 997.9,494.8 C1028.5,486.2 1050.7,548.6 1067.6,603.6 C1083.7,655.8 1118.6,735.8 1118.6,735.8 C1118.6,735.8 1084.6,770.8 1037,780.1 C989.4,789.4 955.4,788.1 955.4,788.1 Z" id="Path" fill="#283444" fill-rule="nonzero"></path>
            <path d="M210.8,1122.1 C210.8,1122.1 206.2,1123.9 206.6,1129 C207,1134.1 208.1,1156.4 208.1,1156.4 C208.1,1156.4 207.3,1163.2 223.2,1163.1 C239.2,1163 316.5,1162.4 316.5,1162.4 C316.5,1162.4 315.3,1152.8 308.6,1145.6 C292.5,1128.3 245.2,1122.1 245.2,1122.1 C245.2,1122.1 239.5,1127.1 227.3,1127.2 C215.2,1127.3 210.8,1122.1 210.8,1122.1 Z" id="Path" fill="#37B37F" fill-rule="nonzero"></path>
            <path d="M982.9,534.3 C982.9,534.3 893.9,518.3 857.3,504.7 C820.7,491.1 777.9,473.8 777.9,473.8" id="Path" stroke="#CED5E5" stroke-width="3" stroke-linecap="round" stroke-linejoin="round"></path>
            <path d="M975,532.8 C975,532.8 978.5,519 983.8,508" id="Path" stroke="#CED5E5" stroke-width="3" stroke-linecap="round" stroke-linejoin="round"></path>
            <line x1="0.5" y1="1163.2" x2="383.7" y2="1163.2" id="Path" stroke="#CED5E5" stroke-width="3" stroke-linecap="round" stroke-linejoin="round"></line>
            <path d="M620.1,1161.9 L604.4,1161.9 C562.4,1161.9 528.4,1127.9 528.4,1085.9 L528.4,1027.1 L696.2,1027.1 L696.2,1085.9 C696.1,1127.9 662.1,1161.9 620.1,1161.9 Z" id="Path" fill="#CED5E5" fill-rule="nonzero"></path>
        </g>
    </g>
</svg>